<svg width="1584" height="396" viewBox="0 0 1584 396" fill="none" xmlns="http://www.w3.org/2000/svg">
<g clip-path="url(#clip0_1085_109)">
<rect width="1584" height="396" fill="#FFFFF1"/>
<path d="M1432.96 29.392H1437.5L1438.77 46H1435.31L1434.95 39.256C1434.81 36.88 1434.74 34.384 1434.81 32.488L1432 44.224H1428.67L1425.67 32.464C1425.81 34.792 1425.79 37 1425.67 39.328L1425.31 46H1421.87L1423.17 29.392H1427.66L1430.39 40.84L1432.96 29.392ZM1447.8 29.008C1452.36 29.008 1455.17 32.128 1455.17 37.696C1455.17 43.144 1452.36 46.384 1447.8 46.384C1443.24 46.384 1440.41 43.24 1440.41 37.696C1440.41 32.272 1443.24 29.008 1447.8 29.008ZM1447.8 31.648C1445.45 31.648 1444.13 33.352 1444.13 37.696C1444.13 42.04 1445.5 43.744 1447.8 43.744C1450.18 43.744 1451.45 42.04 1451.45 37.696C1451.45 33.352 1450.18 31.648 1447.8 31.648ZM1470.4 46H1466.87V38.728H1461.37V46H1457.85V29.392H1461.37V35.944H1466.87V29.392H1470.4V46ZM1477.04 29.392H1481.34L1486.43 46H1482.68L1481.75 42.28H1476.54L1475.6 46H1471.93L1477.04 29.392ZM1479.13 32.008L1477.21 39.664H1481.08L1479.13 32.008ZM1498.26 29.392H1502.79L1504.07 46H1500.61L1500.25 39.256C1500.11 36.88 1500.03 34.384 1500.11 32.488L1497.3 44.224H1493.96L1490.96 32.464C1491.11 34.792 1491.08 37 1490.96 39.328L1490.6 46H1487.17L1488.47 29.392H1492.95L1495.69 40.84L1498.26 29.392ZM1517.08 29.392H1521.62L1522.89 46H1519.43L1519.07 39.256C1518.93 36.88 1518.86 34.384 1518.93 32.488L1516.12 44.224H1512.78L1509.78 32.464C1509.93 34.792 1509.9 37 1509.78 39.328L1509.42 46H1505.99L1507.29 29.392H1511.78L1514.51 40.84L1517.08 29.392ZM1525.6 29.392H1535.52L1535.13 31.96H1529.13V36.28H1534.36V38.824H1529.13V43.408H1535.56V46H1525.6V29.392ZM1538.28 29.392H1542.63C1547.02 29.392 1551.2 30.76 1551.2 37.624C1551.2 44.32 1547.12 46 1543.04 46H1538.28V29.392ZM1543.18 31.984H1541.81V43.408H1543.25C1545.68 43.408 1547.52 42.28 1547.52 37.624C1547.52 32.872 1545.58 31.984 1543.18 31.984ZM1379.19 58.392H1383.49L1388.58 75H1384.83L1383.9 71.28H1378.69L1377.75 75H1374.08L1379.19 58.392ZM1381.28 61.008L1379.36 68.664H1383.22L1381.28 61.008ZM1395.18 58.008C1397.65 58.008 1399.33 58.752 1400.77 60.096L1399.09 62.04C1397.91 61.08 1396.76 60.648 1395.42 60.648C1393.98 60.648 1392.99 61.272 1392.99 62.448C1392.99 63.6 1393.62 64.08 1396.33 64.92C1399.33 65.88 1401.25 67.128 1401.25 70.2C1401.25 73.248 1398.85 75.384 1394.82 75.384C1392.06 75.384 1390.04 74.4 1388.67 73.056L1390.47 71.064C1391.7 72.096 1393.02 72.72 1394.72 72.72C1396.42 72.72 1397.58 71.904 1397.58 70.44C1397.58 69.12 1396.93 68.544 1394.41 67.776C1390.81 66.648 1389.37 65.208 1389.37 62.688C1389.37 59.856 1391.82 58.008 1395.18 58.008ZM1416.23 75H1412.71V67.728H1407.21V75H1403.68V58.392H1407.21V64.944H1412.71V58.392H1416.23V75ZM1419.74 58.392H1424.92C1429.36 58.392 1431.62 60 1431.62 63.36C1431.62 65.568 1430.54 66.888 1428.33 67.848L1432.62 75H1428.62L1425.06 68.496H1423.26V75H1419.74V58.392ZM1424.85 60.912H1423.26V66H1425.11C1426.96 66 1427.97 65.232 1427.97 63.36C1427.97 61.656 1426.98 60.912 1424.85 60.912ZM1437.62 58.392H1441.92L1447.01 75H1443.26L1442.33 71.28H1437.12L1436.18 75H1432.51L1437.62 58.392ZM1439.71 61.008L1437.79 68.664H1441.65L1439.71 61.008ZM1452.07 75H1448.54V58.392H1458.19L1457.81 60.96H1452.07V65.664H1457.06V68.232H1452.07V75ZM1469.14 58.392H1472.67V69.528C1472.67 72.864 1470.53 75.384 1466.33 75.384C1462.13 75.384 1460.02 72.984 1460.02 69.528V58.392H1463.55V69.36C1463.55 71.592 1464.41 72.696 1466.33 72.696C1468.28 72.696 1469.14 71.592 1469.14 69.36V58.392ZM1475.96 58.392H1479.49V72.168H1486.07L1485.68 75H1475.96V58.392ZM1494.03 58.392H1497.56V75H1494.03V58.392ZM1506.15 58.008C1508.62 58.008 1510.3 58.752 1511.74 60.096L1510.06 62.04C1508.89 61.08 1507.74 60.648 1506.39 60.648C1504.95 60.648 1503.97 61.272 1503.97 62.448C1503.97 63.6 1504.59 64.08 1507.3 64.92C1510.3 65.88 1512.22 67.128 1512.22 70.2C1512.22 73.248 1509.82 75.384 1505.79 75.384C1503.03 75.384 1501.02 74.4 1499.65 73.056L1501.45 71.064C1502.67 72.096 1503.99 72.72 1505.7 72.72C1507.4 72.72 1508.55 71.904 1508.55 70.44C1508.55 69.12 1507.9 68.544 1505.38 67.776C1501.78 66.648 1500.34 65.208 1500.34 62.688C1500.34 59.856 1502.79 58.008 1506.15 58.008ZM1514.66 58.392H1518.19V72.168H1524.76L1524.38 75H1514.66V58.392ZM1530.01 58.392H1534.31L1539.4 75H1535.65L1534.72 71.28H1529.51L1528.57 75H1524.9L1530.01 58.392ZM1532.1 61.008L1530.18 68.664H1534.05L1532.1 61.008ZM1551.23 58.392H1555.76L1557.04 75H1553.58L1553.22 68.256C1553.08 65.88 1553 63.384 1553.08 61.488L1550.27 73.224H1546.93L1543.93 61.464C1544.08 63.792 1544.05 66 1543.93 68.328L1543.57 75H1540.14L1541.44 58.392H1545.92L1548.66 69.84L1551.23 58.392Z" fill="black"/>
<path d="M1423.61 95H1422.19V84.665H1427.68L1427.51 85.805H1423.61V89.33H1426.99V90.455H1423.61V95ZM1433.98 87.095H1435.36V95H1434.18L1434.07 93.77C1433.77 94.25 1433.43 94.605 1433.04 94.835C1432.65 95.065 1432.17 95.18 1431.61 95.18C1430.92 95.18 1430.38 94.97 1429.99 94.55C1429.6 94.13 1429.41 93.535 1429.41 92.765V87.095H1430.79V92.615C1430.79 93.155 1430.88 93.54 1431.07 93.77C1431.26 93.99 1431.57 94.1 1432 94.1C1432.43 94.1 1432.81 93.975 1433.13 93.725C1433.46 93.465 1433.74 93.135 1433.98 92.735V87.095ZM1439.79 95.18C1439.29 95.18 1438.89 95.03 1438.59 94.73C1438.29 94.43 1438.14 94 1438.14 93.44V83.915L1439.52 83.75V93.41C1439.52 93.62 1439.55 93.78 1439.62 93.89C1439.7 93.99 1439.83 94.04 1440.01 94.04C1440.11 94.04 1440.2 94.035 1440.28 94.025C1440.37 94.005 1440.45 93.98 1440.52 93.95L1440.88 94.91C1440.73 94.99 1440.56 95.055 1440.37 95.105C1440.18 95.155 1439.99 95.18 1439.79 95.18ZM1444.18 95.18C1443.68 95.18 1443.28 95.03 1442.98 94.73C1442.68 94.43 1442.53 94 1442.53 93.44V83.915L1443.91 83.75V93.41C1443.91 93.62 1443.95 93.78 1444.02 93.89C1444.1 93.99 1444.23 94.04 1444.41 94.04C1444.51 94.04 1444.6 94.035 1444.68 94.025C1444.77 94.005 1444.85 93.98 1444.92 93.95L1445.28 94.91C1445.13 94.99 1444.96 95.055 1444.77 95.105C1444.58 95.155 1444.38 95.18 1444.18 95.18ZM1453.6 84.485C1454.31 84.485 1454.91 84.59 1455.4 84.8C1455.9 85 1456.36 85.295 1456.79 85.685L1456.01 86.555C1455.62 86.235 1455.24 86.005 1454.86 85.865C1454.49 85.725 1454.09 85.655 1453.66 85.655C1453.32 85.655 1453 85.71 1452.71 85.82C1452.43 85.92 1452.21 86.08 1452.04 86.3C1451.88 86.52 1451.8 86.795 1451.8 87.125C1451.8 87.415 1451.86 87.665 1451.98 87.875C1452.1 88.075 1452.32 88.265 1452.64 88.445C1452.97 88.615 1453.44 88.795 1454.06 88.985C1454.61 89.155 1455.12 89.36 1455.58 89.6C1456.05 89.83 1456.42 90.145 1456.7 90.545C1456.98 90.935 1457.12 91.46 1457.12 92.12C1457.12 92.72 1456.98 93.25 1456.69 93.71C1456.4 94.17 1455.98 94.53 1455.43 94.79C1454.88 95.05 1454.21 95.18 1453.43 95.18C1452.69 95.18 1452.03 95.065 1451.44 94.835C1450.86 94.595 1450.35 94.265 1449.92 93.845L1450.7 92.975C1451.09 93.285 1451.5 93.535 1451.93 93.725C1452.36 93.915 1452.86 94.01 1453.42 94.01C1453.83 94.01 1454.2 93.945 1454.53 93.815C1454.87 93.675 1455.14 93.47 1455.34 93.2C1455.54 92.92 1455.64 92.575 1455.64 92.165C1455.64 91.825 1455.57 91.545 1455.44 91.325C1455.31 91.095 1455.09 90.89 1454.77 90.71C1454.45 90.53 1453.99 90.35 1453.4 90.17C1452.73 89.96 1452.17 89.73 1451.71 89.48C1451.26 89.22 1450.92 88.905 1450.69 88.535C1450.46 88.165 1450.34 87.715 1450.34 87.185C1450.34 86.655 1450.48 86.19 1450.76 85.79C1451.04 85.38 1451.43 85.06 1451.92 84.83C1452.41 84.6 1452.97 84.485 1453.6 84.485ZM1459.24 85.31L1460.62 85.145V92.87C1460.62 93.27 1460.69 93.565 1460.83 93.755C1460.98 93.945 1461.22 94.04 1461.56 94.04C1461.73 94.04 1461.9 94.015 1462.07 93.965C1462.24 93.905 1462.42 93.825 1462.61 93.725L1463.14 94.64C1462.88 94.82 1462.6 94.955 1462.31 95.045C1462.02 95.135 1461.71 95.18 1461.37 95.18C1460.7 95.18 1460.17 94.99 1459.79 94.61C1459.42 94.22 1459.24 93.66 1459.24 92.93V85.31ZM1457.86 87.095H1462.49L1462.34 88.16H1457.86V87.095ZM1467.12 86.915C1468.07 86.915 1468.77 87.145 1469.22 87.605C1469.67 88.065 1469.89 88.71 1469.89 89.54V93.155C1469.89 93.495 1469.95 93.74 1470.07 93.89C1470.19 94.03 1470.35 94.14 1470.55 94.22L1470.24 95.18C1469.8 95.13 1469.44 94.995 1469.17 94.775C1468.9 94.555 1468.72 94.2 1468.62 93.71L1468.51 93.155V89.6C1468.51 89.03 1468.37 88.63 1468.09 88.4C1467.82 88.16 1467.41 88.04 1466.86 88.04C1466.57 88.04 1466.25 88.075 1465.89 88.145C1465.53 88.215 1465.14 88.32 1464.73 88.46L1464.39 87.455C1464.88 87.275 1465.34 87.14 1465.78 87.05C1466.23 86.96 1466.68 86.915 1467.12 86.915ZM1467.3 90.185H1468.74V91.1H1467.48C1466.75 91.1 1466.2 91.235 1465.83 91.505C1465.47 91.775 1465.29 92.18 1465.29 92.72C1465.29 93.18 1465.4 93.535 1465.63 93.785C1465.86 94.025 1466.2 94.145 1466.65 94.145C1467.1 94.145 1467.49 94.02 1467.81 93.77C1468.14 93.52 1468.42 93.145 1468.65 92.645L1468.83 93.77C1468.56 94.26 1468.21 94.62 1467.78 94.85C1467.35 95.07 1466.87 95.18 1466.34 95.18C1465.55 95.18 1464.93 94.96 1464.48 94.52C1464.04 94.07 1463.82 93.495 1463.82 92.795C1463.82 91.945 1464.12 91.3 1464.73 90.86C1465.34 90.41 1466.2 90.185 1467.3 90.185ZM1475.6 86.915C1476.07 86.915 1476.5 86.98 1476.88 87.11C1477.27 87.24 1477.65 87.46 1478.02 87.77L1477.36 88.64C1477.09 88.44 1476.82 88.295 1476.55 88.205C1476.29 88.105 1475.99 88.055 1475.66 88.055C1475.04 88.055 1474.55 88.305 1474.18 88.805C1473.82 89.295 1473.64 90.055 1473.64 91.085C1473.64 91.775 1473.72 92.335 1473.88 92.765C1474.05 93.195 1474.28 93.51 1474.58 93.71C1474.88 93.91 1475.24 94.01 1475.66 94.01C1475.99 94.01 1476.29 93.96 1476.55 93.86C1476.81 93.75 1477.09 93.6 1477.39 93.41L1478.02 94.31C1477.67 94.59 1477.29 94.805 1476.89 94.955C1476.49 95.105 1476.06 95.18 1475.6 95.18C1474.89 95.18 1474.28 95.02 1473.76 94.7C1473.25 94.37 1472.85 93.905 1472.57 93.305C1472.29 92.695 1472.15 91.965 1472.15 91.115C1472.15 90.275 1472.29 89.54 1472.56 88.91C1472.84 88.28 1473.24 87.79 1473.76 87.44C1474.28 87.09 1474.89 86.915 1475.6 86.915ZM1484.27 87.095H1485.81L1482.9 90.59L1486.14 95H1484.49L1481.36 90.68L1484.27 87.095ZM1479.89 83.915L1481.27 83.75V95H1479.89V83.915ZM1491.61 84.665H1493.77C1494.43 84.665 1495.06 84.735 1495.67 84.875C1496.29 85.005 1496.85 85.25 1497.34 85.61C1497.84 85.97 1498.23 86.49 1498.51 87.17C1498.8 87.84 1498.94 88.71 1498.94 89.78C1498.94 90.83 1498.8 91.695 1498.51 92.375C1498.22 93.055 1497.83 93.59 1497.35 93.98C1496.87 94.36 1496.35 94.625 1495.78 94.775C1495.21 94.925 1494.64 95 1494.08 95H1491.61V84.665ZM1494.08 85.805H1493.03V93.875H1494.19C1494.6 93.875 1494.99 93.82 1495.37 93.71C1495.76 93.6 1496.11 93.4 1496.41 93.11C1496.72 92.81 1496.96 92.395 1497.14 91.865C1497.33 91.325 1497.43 90.63 1497.43 89.78C1497.43 88.91 1497.33 88.21 1497.14 87.68C1496.95 87.15 1496.7 86.75 1496.38 86.48C1496.06 86.21 1495.7 86.03 1495.3 85.94C1494.9 85.85 1494.49 85.805 1494.08 85.805ZM1503.9 86.915C1504.61 86.915 1505.21 87.075 1505.69 87.395C1506.18 87.705 1506.54 88.15 1506.78 88.73C1507.03 89.31 1507.16 90.005 1507.16 90.815C1507.16 90.945 1507.15 91.075 1507.14 91.205C1507.14 91.325 1507.14 91.43 1507.13 91.52H1501.85V90.5H1505.79C1505.79 90.48 1505.79 90.465 1505.79 90.455C1505.79 90.435 1505.79 90.42 1505.79 90.41C1505.79 89.89 1505.72 89.455 1505.58 89.105C1505.45 88.745 1505.25 88.475 1504.97 88.295C1504.7 88.105 1504.35 88.01 1503.93 88.01C1503.55 88.01 1503.22 88.115 1502.94 88.325C1502.66 88.525 1502.45 88.85 1502.3 89.3C1502.15 89.74 1502.07 90.315 1502.07 91.025C1502.07 91.755 1502.16 92.345 1502.34 92.795C1502.53 93.235 1502.79 93.555 1503.11 93.755C1503.43 93.955 1503.8 94.055 1504.22 94.055C1504.61 94.055 1504.96 94 1505.28 93.89C1505.6 93.78 1505.93 93.605 1506.27 93.365L1506.87 94.19C1506.48 94.5 1506.06 94.745 1505.61 94.925C1505.16 95.095 1504.66 95.18 1504.11 95.18C1503.38 95.18 1502.75 95.02 1502.22 94.7C1501.7 94.37 1501.3 93.9 1501.02 93.29C1500.75 92.68 1500.62 91.96 1500.62 91.13C1500.62 90.31 1500.75 89.585 1501.01 88.955C1501.28 88.315 1501.66 87.815 1502.15 87.455C1502.64 87.095 1503.22 86.915 1503.9 86.915ZM1513.56 87.095H1515.02L1512.33 95H1510.67L1507.94 87.095H1509.44L1511.51 93.77L1513.56 87.095ZM1519.09 86.915C1519.8 86.915 1520.4 87.075 1520.88 87.395C1521.37 87.705 1521.73 88.15 1521.97 88.73C1522.22 89.31 1522.35 90.005 1522.35 90.815C1522.35 90.945 1522.34 91.075 1522.33 91.205C1522.33 91.325 1522.33 91.43 1522.32 91.52H1517.04V90.5H1520.98C1520.98 90.48 1520.98 90.465 1520.98 90.455C1520.98 90.435 1520.98 90.42 1520.98 90.41C1520.98 89.89 1520.91 89.455 1520.77 89.105C1520.64 88.745 1520.44 88.475 1520.16 88.295C1519.89 88.105 1519.54 88.01 1519.12 88.01C1518.74 88.01 1518.41 88.115 1518.13 88.325C1517.85 88.525 1517.64 88.85 1517.49 89.3C1517.34 89.74 1517.26 90.315 1517.26 91.025C1517.26 91.755 1517.35 92.345 1517.53 92.795C1517.72 93.235 1517.98 93.555 1518.3 93.755C1518.62 93.955 1518.99 94.055 1519.41 94.055C1519.8 94.055 1520.15 94 1520.47 93.89C1520.79 93.78 1521.12 93.605 1521.46 93.365L1522.06 94.19C1521.67 94.5 1521.25 94.745 1520.8 94.925C1520.35 95.095 1519.85 95.18 1519.3 95.18C1518.57 95.18 1517.94 95.02 1517.41 94.7C1516.89 94.37 1516.49 93.9 1516.21 93.29C1515.94 92.68 1515.81 91.96 1515.81 91.13C1515.81 90.31 1515.94 89.585 1516.2 88.955C1516.47 88.315 1516.85 87.815 1517.34 87.455C1517.83 87.095 1518.41 86.915 1519.09 86.915ZM1526.13 95.18C1525.63 95.18 1525.23 95.03 1524.93 94.73C1524.63 94.43 1524.48 94 1524.48 93.44V83.915L1525.86 83.75V93.41C1525.86 93.62 1525.89 93.78 1525.96 93.89C1526.04 93.99 1526.17 94.04 1526.35 94.04C1526.45 94.04 1526.54 94.035 1526.62 94.025C1526.71 94.005 1526.79 93.98 1526.86 93.95L1527.22 94.91C1527.07 94.99 1526.9 95.055 1526.71 95.105C1526.52 95.155 1526.33 95.18 1526.13 95.18ZM1531.77 86.915C1532.9 86.915 1533.76 87.29 1534.36 88.04C1534.97 88.79 1535.28 89.79 1535.28 91.04C1535.28 91.85 1535.14 92.57 1534.86 93.2C1534.59 93.82 1534.19 94.305 1533.66 94.655C1533.14 95.005 1532.5 95.18 1531.75 95.18C1530.63 95.18 1529.76 94.805 1529.14 94.055C1528.53 93.305 1528.23 92.305 1528.23 91.055C1528.23 90.235 1528.37 89.515 1528.65 88.895C1528.93 88.275 1529.33 87.79 1529.85 87.44C1530.38 87.09 1531.02 86.915 1531.77 86.915ZM1531.77 88.025C1531.11 88.025 1530.6 88.27 1530.24 88.76C1529.89 89.25 1529.71 90.015 1529.71 91.055C1529.71 92.085 1529.89 92.845 1530.24 93.335C1530.59 93.825 1531.09 94.07 1531.75 94.07C1532.41 94.07 1532.92 93.825 1533.27 93.335C1533.62 92.835 1533.79 92.07 1533.79 91.04C1533.79 90.01 1533.62 89.25 1533.27 88.76C1532.92 88.27 1532.42 88.025 1531.77 88.025ZM1541.19 86.915C1541.89 86.915 1542.45 87.085 1542.88 87.425C1543.31 87.765 1543.62 88.245 1543.81 88.865C1544.01 89.485 1544.11 90.21 1544.11 91.04C1544.11 91.84 1543.99 92.555 1543.75 93.185C1543.52 93.805 1543.18 94.295 1542.72 94.655C1542.26 95.005 1541.69 95.18 1541.01 95.18C1540.54 95.18 1540.11 95.09 1539.73 94.91C1539.36 94.73 1539.05 94.455 1538.79 94.085L1538.8 92.87C1539 93.24 1539.26 93.53 1539.58 93.74C1539.91 93.95 1540.28 94.055 1540.68 94.055C1541.31 94.055 1541.79 93.81 1542.12 93.32C1542.46 92.83 1542.63 92.07 1542.63 91.04C1542.63 90.35 1542.56 89.785 1542.42 89.345C1542.29 88.895 1542.09 88.56 1541.83 88.34C1541.57 88.12 1541.24 88.01 1540.84 88.01C1540.38 88.01 1539.98 88.16 1539.63 88.46C1539.29 88.76 1539.02 89.085 1538.82 89.435L1538.7 88.4C1538.99 87.92 1539.35 87.555 1539.79 87.305C1540.23 87.045 1540.7 86.915 1541.19 86.915ZM1537.56 87.095H1538.74L1538.88 88.415L1538.94 89V98.03L1537.56 98.195V87.095ZM1549.18 86.915C1549.89 86.915 1550.49 87.075 1550.97 87.395C1551.46 87.705 1551.82 88.15 1552.06 88.73C1552.31 89.31 1552.44 90.005 1552.44 90.815C1552.44 90.945 1552.43 91.075 1552.42 91.205C1552.42 91.325 1552.42 91.43 1552.41 91.52H1547.13V90.5H1551.07C1551.07 90.48 1551.07 90.465 1551.07 90.455C1551.07 90.435 1551.07 90.42 1551.07 90.41C1551.07 89.89 1551 89.455 1550.86 89.105C1550.73 88.745 1550.53 88.475 1550.25 88.295C1549.98 88.105 1549.63 88.01 1549.21 88.01C1548.83 88.01 1548.5 88.115 1548.22 88.325C1547.94 88.525 1547.73 88.85 1547.58 89.3C1547.43 89.74 1547.35 90.315 1547.35 91.025C1547.35 91.755 1547.44 92.345 1547.62 92.795C1547.81 93.235 1548.07 93.555 1548.39 93.755C1548.71 93.955 1549.08 94.055 1549.5 94.055C1549.89 94.055 1550.24 94 1550.56 93.89C1550.88 93.78 1551.21 93.605 1551.55 93.365L1552.15 94.19C1551.76 94.5 1551.34 94.745 1550.89 94.925C1550.44 95.095 1549.94 95.18 1549.39 95.18C1548.66 95.18 1548.03 95.02 1547.5 94.7C1546.98 94.37 1546.58 93.9 1546.3 93.29C1546.03 92.68 1545.9 91.96 1545.9 91.13C1545.9 90.31 1546.03 89.585 1546.29 88.955C1546.56 88.315 1546.94 87.815 1547.43 87.455C1547.92 87.095 1548.5 86.915 1549.18 86.915ZM1558.07 86.915C1558.2 86.915 1558.33 86.925 1558.46 86.945C1558.6 86.955 1558.73 86.975 1558.85 87.005L1558.6 88.355C1558.48 88.325 1558.37 88.305 1558.27 88.295C1558.17 88.275 1558.05 88.265 1557.91 88.265C1557.56 88.265 1557.25 88.36 1556.99 88.55C1556.74 88.73 1556.53 89.015 1556.36 89.405C1556.19 89.785 1556.05 90.275 1555.94 90.875L1555.9 88.895C1556.1 88.235 1556.38 87.74 1556.75 87.41C1557.13 87.08 1557.57 86.915 1558.07 86.915ZM1554.64 87.095H1555.82L1555.97 88.85L1556.02 90.275V95H1554.64V87.095ZM1434.56 105.425L1434.67 104.855L1435.25 104.945L1436.93 106.82L1435.85 107.615L1434.56 105.425ZM1433.99 101.915H1435.34L1435.1 104.465L1434.67 104.855L1434.23 104.465L1433.99 101.915ZM1434.95 104.36L1437.25 103.34L1437.67 104.585L1435.19 105.125L1434.67 104.855L1434.95 104.36ZM1431.68 104.585L1432.09 103.355L1434.41 104.36L1434.67 104.855L1434.14 105.125L1431.68 104.585ZM1434.1 104.93L1434.67 104.855L1434.77 105.44L1433.5 107.615L1432.42 106.835L1434.1 104.93ZM1445.98 101.75C1446.36 101.75 1446.69 101.785 1446.97 101.855C1447.26 101.915 1447.56 102.015 1447.87 102.155L1447.43 103.16C1447.18 103.05 1446.94 102.975 1446.7 102.935C1446.47 102.885 1446.25 102.86 1446.05 102.86C1445.62 102.86 1445.32 102.955 1445.14 103.145C1444.97 103.335 1444.88 103.62 1444.88 104V113H1443.5V104.015C1443.5 103.575 1443.6 103.185 1443.79 102.845C1443.98 102.505 1444.26 102.24 1444.63 102.05C1445 101.85 1445.45 101.75 1445.98 101.75ZM1442.09 105.095H1446.8L1446.65 106.16H1442.09V105.095ZM1451.83 104.915C1451.96 104.915 1452.09 104.925 1452.22 104.945C1452.36 104.955 1452.49 104.975 1452.61 105.005L1452.35 106.355C1452.23 106.325 1452.12 106.305 1452.02 106.295C1451.92 106.275 1451.8 106.265 1451.66 106.265C1451.31 106.265 1451.01 106.36 1450.75 106.55C1450.5 106.73 1450.29 107.015 1450.12 107.405C1449.95 107.785 1449.81 108.275 1449.7 108.875L1449.65 106.895C1449.85 106.235 1450.14 105.74 1450.51 105.41C1450.89 105.08 1451.33 104.915 1451.83 104.915ZM1448.39 105.095H1449.58L1449.73 106.85L1449.77 108.275V113H1448.39V105.095ZM1457 104.915C1458.13 104.915 1459 105.29 1459.6 106.04C1460.21 106.79 1460.51 107.79 1460.51 109.04C1460.51 109.85 1460.37 110.57 1460.09 111.2C1459.82 111.82 1459.42 112.305 1458.89 112.655C1458.37 113.005 1457.74 113.18 1456.99 113.18C1455.87 113.18 1455 112.805 1454.38 112.055C1453.77 111.305 1453.46 110.305 1453.46 109.055C1453.46 108.235 1453.6 107.515 1453.88 106.895C1454.16 106.275 1454.56 105.79 1455.08 105.44C1455.61 105.09 1456.25 104.915 1457 104.915ZM1457 106.025C1456.34 106.025 1455.83 106.27 1455.47 106.76C1455.12 107.25 1454.95 108.015 1454.95 109.055C1454.95 110.085 1455.12 110.845 1455.47 111.335C1455.82 111.825 1456.33 112.07 1456.99 112.07C1457.65 112.07 1458.15 111.825 1458.5 111.335C1458.85 110.835 1459.03 110.07 1459.03 109.04C1459.03 108.01 1458.85 107.25 1458.5 106.76C1458.15 106.27 1457.65 106.025 1457 106.025ZM1466.51 104.915C1467.24 104.915 1467.81 105.13 1468.21 105.56C1468.61 105.99 1468.81 106.58 1468.81 107.33V113H1467.43V107.525C1467.43 106.935 1467.31 106.535 1467.08 106.325C1466.86 106.105 1466.56 105.995 1466.18 105.995C1465.74 105.995 1465.36 106.125 1465.04 106.385C1464.72 106.635 1464.43 106.97 1464.17 107.39L1463.93 106.52C1464.2 106.05 1464.56 105.665 1465 105.365C1465.44 105.065 1465.94 104.915 1466.51 104.915ZM1462.79 105.095H1463.98L1464.17 107.03V113H1462.79V105.095ZM1471.67 103.31L1473.05 103.145V110.87C1473.05 111.27 1473.12 111.565 1473.26 111.755C1473.41 111.945 1473.66 112.04 1474 112.04C1474.17 112.04 1474.34 112.015 1474.51 111.965C1474.68 111.905 1474.86 111.825 1475.05 111.725L1475.57 112.64C1475.31 112.82 1475.04 112.955 1474.75 113.045C1474.46 113.135 1474.14 113.18 1473.8 113.18C1473.13 113.18 1472.61 112.99 1472.23 112.61C1471.86 112.22 1471.67 111.66 1471.67 110.93V103.31ZM1470.29 105.095H1474.93L1474.78 106.16H1470.29V105.095ZM1479.57 104.915C1480.28 104.915 1480.88 105.075 1481.36 105.395C1481.85 105.705 1482.21 106.15 1482.45 106.73C1482.7 107.31 1482.83 108.005 1482.83 108.815C1482.83 108.945 1482.82 109.075 1482.81 109.205C1482.81 109.325 1482.81 109.43 1482.8 109.52H1477.52V108.5H1481.46C1481.46 108.48 1481.46 108.465 1481.46 108.455C1481.46 108.435 1481.46 108.42 1481.46 108.41C1481.46 107.89 1481.39 107.455 1481.25 107.105C1481.12 106.745 1480.92 106.475 1480.64 106.295C1480.37 106.105 1480.02 106.01 1479.6 106.01C1479.22 106.01 1478.89 106.115 1478.61 106.325C1478.33 106.525 1478.12 106.85 1477.97 107.3C1477.82 107.74 1477.74 108.315 1477.74 109.025C1477.74 109.755 1477.83 110.345 1478.01 110.795C1478.2 111.235 1478.46 111.555 1478.78 111.755C1479.1 111.955 1479.47 112.055 1479.89 112.055C1480.28 112.055 1480.63 112 1480.95 111.89C1481.27 111.78 1481.6 111.605 1481.94 111.365L1482.54 112.19C1482.15 112.5 1481.73 112.745 1481.28 112.925C1480.83 113.095 1480.33 113.18 1479.78 113.18C1479.05 113.18 1478.42 113.02 1477.89 112.7C1477.37 112.37 1476.97 111.9 1476.69 111.29C1476.42 110.68 1476.29 109.96 1476.29 109.13C1476.29 108.31 1476.42 107.585 1476.68 106.955C1476.95 106.315 1477.33 105.815 1477.82 105.455C1478.31 105.095 1478.89 104.915 1479.57 104.915ZM1488.75 104.915C1489.48 104.915 1490.04 105.13 1490.44 105.56C1490.84 105.99 1491.04 106.58 1491.04 107.33V113H1489.66V107.525C1489.66 106.935 1489.55 106.535 1489.32 106.325C1489.1 106.105 1488.8 105.995 1488.42 105.995C1487.98 105.995 1487.6 106.125 1487.28 106.385C1486.96 106.635 1486.67 106.97 1486.41 107.39L1486.17 106.52C1486.44 106.05 1486.79 105.665 1487.23 105.365C1487.67 105.065 1488.18 104.915 1488.75 104.915ZM1485.03 105.095H1486.21L1486.41 107.03V113H1485.03V105.095ZM1496.43 104.915C1496.77 104.915 1497.07 104.97 1497.34 105.08C1497.62 105.18 1497.87 105.315 1498.09 105.485C1498.32 105.655 1498.53 105.845 1498.71 106.055L1498.69 107.225C1498.52 106.975 1498.34 106.76 1498.14 106.58C1497.95 106.4 1497.74 106.26 1497.51 106.16C1497.28 106.06 1497.02 106.01 1496.73 106.01C1496.34 106.01 1496 106.12 1495.71 106.34C1495.42 106.56 1495.19 106.895 1495.03 107.345C1494.88 107.795 1494.81 108.365 1494.81 109.055C1494.81 109.745 1494.88 110.315 1495.02 110.765C1495.16 111.215 1495.36 111.55 1495.63 111.77C1495.9 111.98 1496.23 112.085 1496.61 112.085C1497.08 112.085 1497.47 111.97 1497.78 111.74C1498.1 111.5 1498.4 111.165 1498.68 110.735L1498.72 111.68C1498.47 112.14 1498.14 112.505 1497.72 112.775C1497.31 113.045 1496.84 113.18 1496.31 113.18C1495.67 113.18 1495.12 113.01 1494.67 112.67C1494.23 112.33 1493.9 111.855 1493.67 111.245C1493.44 110.625 1493.32 109.905 1493.32 109.085C1493.32 108.275 1493.45 107.56 1493.7 106.94C1493.95 106.31 1494.3 105.815 1494.76 105.455C1495.23 105.095 1495.79 104.915 1496.43 104.915ZM1498.56 111.155V101.75L1499.94 101.915V113H1498.72L1498.56 111.665V111.155ZM1509.36 101.75C1509.74 101.75 1510.07 101.785 1510.35 101.855C1510.64 101.915 1510.94 102.015 1511.25 102.155L1510.82 103.16C1510.57 103.05 1510.32 102.975 1510.08 102.935C1509.85 102.885 1509.64 102.86 1509.44 102.86C1509.01 102.86 1508.7 102.955 1508.52 103.145C1508.35 103.335 1508.27 103.62 1508.27 104V113H1506.89V104.015C1506.89 103.575 1506.98 103.185 1507.17 102.845C1507.36 102.505 1507.64 102.24 1508.01 102.05C1508.38 101.85 1508.83 101.75 1509.36 101.75ZM1505.48 105.095H1510.19L1510.04 106.16H1505.48V105.095ZM1514.6 104.915C1515.73 104.915 1516.6 105.29 1517.2 106.04C1517.81 106.79 1518.11 107.79 1518.11 109.04C1518.11 109.85 1517.97 110.57 1517.69 111.2C1517.42 111.82 1517.02 112.305 1516.49 112.655C1515.97 113.005 1515.34 113.18 1514.59 113.18C1513.47 113.18 1512.6 112.805 1511.98 112.055C1511.37 111.305 1511.06 110.305 1511.06 109.055C1511.06 108.235 1511.2 107.515 1511.48 106.895C1511.76 106.275 1512.16 105.79 1512.68 105.44C1513.21 105.09 1513.85 104.915 1514.6 104.915ZM1514.6 106.025C1513.94 106.025 1513.43 106.27 1513.07 106.76C1512.72 107.25 1512.55 108.015 1512.55 109.055C1512.55 110.085 1512.72 110.845 1513.07 111.335C1513.42 111.825 1513.93 112.07 1514.59 112.07C1515.25 112.07 1515.75 111.825 1516.1 111.335C1516.45 110.835 1516.63 110.07 1516.63 109.04C1516.63 108.01 1516.45 107.25 1516.1 106.76C1515.75 106.27 1515.25 106.025 1514.6 106.025ZM1523.27 104.915C1523.74 104.915 1524.17 104.98 1524.55 105.11C1524.94 105.24 1525.32 105.46 1525.69 105.77L1525.03 106.64C1524.76 106.44 1524.49 106.295 1524.22 106.205C1523.96 106.105 1523.66 106.055 1523.33 106.055C1522.71 106.055 1522.22 106.305 1521.85 106.805C1521.49 107.295 1521.31 108.055 1521.31 109.085C1521.31 109.775 1521.39 110.335 1521.55 110.765C1521.72 111.195 1521.95 111.51 1522.25 111.71C1522.55 111.91 1522.91 112.01 1523.33 112.01C1523.66 112.01 1523.96 111.96 1524.22 111.86C1524.48 111.75 1524.76 111.6 1525.06 111.41L1525.69 112.31C1525.34 112.59 1524.96 112.805 1524.56 112.955C1524.16 113.105 1523.73 113.18 1523.27 113.18C1522.56 113.18 1521.95 113.02 1521.43 112.7C1520.92 112.37 1520.52 111.905 1520.24 111.305C1519.96 110.695 1519.82 109.965 1519.82 109.115C1519.82 108.275 1519.96 107.54 1520.23 106.91C1520.51 106.28 1520.91 105.79 1521.43 105.44C1521.95 105.09 1522.56 104.915 1523.27 104.915ZM1532.05 105.095H1533.43V113H1532.25L1532.14 111.77C1531.84 112.25 1531.5 112.605 1531.11 112.835C1530.72 113.065 1530.24 113.18 1529.68 113.18C1528.99 113.18 1528.45 112.97 1528.06 112.55C1527.67 112.13 1527.48 111.535 1527.48 110.765V105.095H1528.86V110.615C1528.86 111.155 1528.95 111.54 1529.14 111.77C1529.33 111.99 1529.64 112.1 1530.07 112.1C1530.5 112.1 1530.88 111.975 1531.2 111.725C1531.53 111.465 1531.81 111.135 1532.05 110.735V105.095ZM1538.43 104.915C1538.99 104.915 1539.48 104.995 1539.91 105.155C1540.34 105.305 1540.74 105.525 1541.11 105.815L1540.53 106.685C1540.18 106.455 1539.84 106.285 1539.51 106.175C1539.19 106.065 1538.84 106.01 1538.47 106.01C1538.17 106.01 1537.91 106.055 1537.69 106.145C1537.47 106.225 1537.3 106.345 1537.18 106.505C1537.07 106.655 1537.02 106.835 1537.02 107.045C1537.02 107.255 1537.07 107.435 1537.17 107.585C1537.28 107.735 1537.46 107.87 1537.71 107.99C1537.96 108.1 1538.29 108.21 1538.71 108.32C1539.27 108.46 1539.75 108.635 1540.14 108.845C1540.53 109.045 1540.82 109.305 1541.02 109.625C1541.23 109.935 1541.34 110.32 1541.34 110.78C1541.34 111.33 1541.19 111.785 1540.89 112.145C1540.6 112.495 1540.21 112.755 1539.73 112.925C1539.26 113.095 1538.76 113.18 1538.22 113.18C1537.55 113.18 1536.97 113.085 1536.48 112.895C1536 112.695 1535.58 112.445 1535.23 112.145L1535.97 111.305C1536.29 111.545 1536.63 111.735 1536.99 111.875C1537.36 112.005 1537.76 112.07 1538.19 112.07C1538.71 112.07 1539.12 111.965 1539.42 111.755C1539.73 111.535 1539.88 111.24 1539.88 110.87C1539.88 110.61 1539.83 110.395 1539.72 110.225C1539.62 110.055 1539.43 109.905 1539.15 109.775C1538.87 109.645 1538.47 109.515 1537.96 109.385C1537.11 109.155 1536.5 108.855 1536.13 108.485C1535.76 108.105 1535.58 107.64 1535.58 107.09C1535.58 106.67 1535.7 106.295 1535.95 105.965C1536.2 105.635 1536.54 105.38 1536.97 105.2C1537.4 105.01 1537.89 104.915 1538.43 104.915ZM1546 104.915C1546.71 104.915 1547.31 105.075 1547.79 105.395C1548.28 105.705 1548.64 106.15 1548.88 106.73C1549.13 107.31 1549.26 108.005 1549.26 108.815C1549.26 108.945 1549.25 109.075 1549.24 109.205C1549.24 109.325 1549.24 109.43 1549.23 109.52H1543.95V108.5H1547.89C1547.89 108.48 1547.89 108.465 1547.89 108.455C1547.89 108.435 1547.89 108.42 1547.89 108.41C1547.89 107.89 1547.82 107.455 1547.68 107.105C1547.55 106.745 1547.35 106.475 1547.07 106.295C1546.8 106.105 1546.45 106.01 1546.03 106.01C1545.65 106.01 1545.32 106.115 1545.04 106.325C1544.76 106.525 1544.55 106.85 1544.4 107.3C1544.25 107.74 1544.17 108.315 1544.17 109.025C1544.17 109.755 1544.26 110.345 1544.44 110.795C1544.63 111.235 1544.89 111.555 1545.21 111.755C1545.53 111.955 1545.9 112.055 1546.32 112.055C1546.71 112.055 1547.06 112 1547.38 111.89C1547.7 111.78 1548.03 111.605 1548.37 111.365L1548.97 112.19C1548.58 112.5 1548.16 112.745 1547.71 112.925C1547.26 113.095 1546.76 113.18 1546.21 113.18C1545.48 113.18 1544.85 113.02 1544.32 112.7C1543.8 112.37 1543.4 111.9 1543.12 111.29C1542.85 110.68 1542.72 109.96 1542.72 109.13C1542.72 108.31 1542.85 107.585 1543.11 106.955C1543.38 106.315 1543.76 105.815 1544.25 105.455C1544.74 105.095 1545.32 104.915 1546 104.915ZM1554.07 104.915C1554.41 104.915 1554.72 104.97 1554.99 105.08C1555.27 105.18 1555.52 105.315 1555.74 105.485C1555.97 105.655 1556.17 105.845 1556.35 106.055L1556.34 107.225C1556.17 106.975 1555.98 106.76 1555.78 106.58C1555.59 106.4 1555.38 106.26 1555.15 106.16C1554.92 106.06 1554.66 106.01 1554.37 106.01C1553.98 106.01 1553.64 106.12 1553.35 106.34C1553.06 106.56 1552.84 106.895 1552.68 107.345C1552.53 107.795 1552.45 108.365 1552.45 109.055C1552.45 109.745 1552.52 110.315 1552.66 110.765C1552.8 111.215 1553.01 111.55 1553.28 111.77C1553.55 111.98 1553.87 112.085 1554.25 112.085C1554.72 112.085 1555.11 111.97 1555.42 111.74C1555.74 111.5 1556.04 111.165 1556.32 110.735L1556.37 111.68C1556.12 112.14 1555.78 112.505 1555.36 112.775C1554.95 113.045 1554.48 113.18 1553.95 113.18C1553.31 113.18 1552.77 113.01 1552.32 112.67C1551.88 112.33 1551.54 111.855 1551.31 111.245C1551.08 110.625 1550.97 109.905 1550.97 109.085C1550.97 108.275 1551.09 107.56 1551.34 106.94C1551.59 106.31 1551.95 105.815 1552.41 105.455C1552.88 105.095 1553.43 104.915 1554.07 104.915ZM1556.2 111.155V101.75L1557.58 101.915V113H1556.37L1556.2 111.665V111.155Z" fill="black"/>
<path d="M26 10.5H1558C1566.56 10.5 1573.5 17.4396 1573.5 26V370C1573.5 378.56 1566.56 385.5 1558 385.5H26C17.4396 385.5 10.5 378.56 10.5 370V26C10.5 17.4396 17.4396 10.5 26 10.5Z" stroke="black"/>
<g filter="url(#filter0_d_1085_109)">
<path d="M949 442C992.022 315.165 1018.66 271.665 1084.71 238.82C1150.76 205.974 1174.58 203.447 1242.07 143.862C1309.56 84.2765 1324 -23.7891 1324 -37" stroke="black" stroke-width="57"/>
<path d="M1282.98 84.0826C1282.57 84.0052 1282.17 83.9104 1281.77 83.7983L1277.07 82.4513L1278.71 79.5401L1287.06 81.9482L1284.77 86.0273L1278.55 87.3997C1278.03 87.4851 1277.52 87.5762 1277.02 87.6731L1276.82 88.0218C1277.27 88.0757 1277.68 88.1531 1278.07 88.2539L1282.76 89.6009L1280.5 93.6277L1269.32 96.2226L1270.96 93.3115L1277.24 91.8519C1277.75 91.7434 1278.26 91.6406 1278.78 91.5436L1278.98 91.1949C1278.57 91.0944 1278.17 90.9996 1277.77 90.9106L1273.06 89.581L1275.01 86.112L1281.24 84.7396C1281.77 84.6193 1282.28 84.5166 1282.78 84.4313L1282.98 84.0826ZM1281.95 74.2348C1282.21 74.0822 1282.46 74.0048 1282.72 74.0026L1291.58 73.9257L1290.01 76.7149L1283.65 76.7701C1283.5 76.7713 1283.36 76.813 1283.22 76.8952C1283.08 76.9774 1282.97 77.0824 1282.9 77.2102L1282.43 78.0469L1279.53 78.0721L1281.38 74.7949C1281.5 74.5741 1281.69 74.3874 1281.95 74.2348ZM1277.98 76.4723C1278.43 76.2024 1278.75 75.8816 1278.96 75.5097C1279.16 75.161 1279.18 74.8602 1279.03 74.607C1278.88 74.3424 1278.6 74.2118 1278.2 74.2153C1277.79 74.2189 1277.36 74.3556 1276.91 74.6254C1276.48 74.8837 1276.16 75.1871 1275.96 75.5357C1275.75 75.9076 1275.72 76.2259 1275.86 76.4907C1276.01 76.7554 1276.29 76.886 1276.7 76.8824C1277.11 76.8788 1277.54 76.7421 1277.98 76.4723ZM1291.87 70.3175C1291.24 70.5196 1290.65 70.6231 1290.09 70.6279L1286.59 70.6583L1285.65 72.3318L1282.75 72.357L1283.69 70.6835L1279.45 70.7203L1281.02 67.9311L1285.26 67.8943L1286.82 65.1226L1289.72 65.0975L1288.16 67.8692L1291.62 67.8391C1291.75 67.838 1291.89 67.7963 1292.05 67.714C1292.19 67.6202 1292.3 67.5152 1292.36 67.399L1293.68 65.0631L1296.58 65.0379L1295.09 67.6876C1294.71 68.3616 1294.23 68.9209 1293.66 69.3653C1293.09 69.7981 1292.49 70.1156 1291.87 70.3175ZM1295.33 54.4096C1296.04 54.2068 1296.66 54.1031 1297.2 54.0985L1302.75 54.0502L1301.19 56.8394L1295.75 56.8866C1295.21 56.8912 1294.66 57.0405 1294.1 57.3345C1293.54 57.6286 1293.09 58.0661 1292.77 58.6472C1292.51 59.1004 1292.41 59.454 1292.47 59.7079C1292.51 59.962 1292.65 60.14 1292.88 60.2421C1293.13 60.3325 1293.43 60.3761 1293.79 60.373C1294.19 60.3695 1294.59 60.3661 1294.99 60.3626C1295.4 60.359 1295.82 60.3554 1296.25 60.3517L1299.23 60.3258L1297.66 63.1149L1283.66 63.2365L1285.23 60.4473L1289.23 60.4126C1289.75 60.4081 1290.4 60.5874 1291.19 60.9506L1291.39 60.602C1290.78 60.4338 1290.42 60.1363 1290.3 59.7094C1290.18 59.2825 1290.23 58.8195 1290.44 58.3204C1290.65 57.8097 1290.93 57.3505 1291.28 56.9427C1291.8 56.3137 1292.43 55.7878 1293.16 55.3652C1293.89 54.9309 1294.62 54.6124 1295.33 54.4096ZM1300.88 40.9716C1300.86 40.4398 1301.03 39.8485 1301.4 39.1977L1304.3 39.1725C1303.84 39.986 1303.67 40.6582 1303.78 41.1892C1303.88 41.7204 1304.17 42.1052 1304.66 42.3438C1305.15 42.5824 1305.74 42.6988 1306.42 42.6929L1309.16 42.6691L1307.59 45.4582L1301.13 45.5143C1300.99 45.5155 1300.88 45.5454 1300.78 45.6041C1300.68 45.6628 1300.6 45.7502 1300.53 45.8664L1299.91 46.9647L1297.01 46.9898L1298.64 44.0961C1298.8 43.8056 1299.02 43.5724 1299.27 43.3967C1299.54 43.2094 1299.82 43.1144 1300.13 43.1117C1300.73 43.1065 1301.61 43.2087 1302.78 43.4183L1302.98 43.0697C1302.33 42.9018 1301.83 42.6402 1301.47 42.2848C1301.1 41.9295 1300.9 41.4918 1300.88 40.9716ZM1310.68 28.4954C1311.42 28.1537 1312.21 27.9791 1313.06 27.9717C1313.85 27.9648 1314.5 28.1327 1315.01 28.4752C1315.51 28.8062 1315.79 29.3242 1315.85 30.0292C1315.89 30.7342 1315.61 31.6156 1315.02 32.6731C1314.43 33.719 1313.72 34.6041 1312.89 35.3283C1312.04 36.0527 1311.19 36.592 1310.34 36.9463C1309.5 37.3006 1308.74 37.4807 1308.07 37.4865C1308 37.4871 1307.94 37.4876 1307.89 37.488L1309.46 34.6989C1309.51 34.6984 1309.57 34.6979 1309.64 34.6973C1309.83 34.6957 1310.06 34.6243 1310.36 34.483C1310.66 34.33 1310.96 34.1077 1311.27 33.8158C1311.59 33.5124 1311.87 33.1457 1312.11 32.7157C1312.36 32.2625 1312.48 31.8913 1312.47 31.6023C1312.47 31.3017 1312.35 31.0887 1312.12 30.9636C1311.89 30.8268 1311.55 30.7603 1311.11 30.7641C1310.74 30.7673 1310.38 30.8457 1310.03 30.9991C1309.68 31.1524 1309.35 31.375 1309.05 31.6667C1308.75 31.9469 1308.49 32.2787 1308.28 32.6622L1306.69 35.4862L1304.25 35.5074L1303.56 32.9807L1301.39 36.8332L1298.49 36.8584L1303.15 28.5781L1305.39 28.5587L1306.61 32.3644L1307.01 32.3609C1307.04 32.1757 1307.1 31.967 1307.21 31.7348C1307.3 31.5027 1307.42 31.2645 1307.59 31.0202C1307.88 30.5898 1308.29 30.1468 1308.81 29.6912C1309.33 29.2242 1309.95 28.8256 1310.68 28.4954ZM1309.09 24.778C1308.45 24.7836 1307.9 24.6784 1307.45 24.4626C1307 24.2353 1306.72 23.8733 1306.63 23.3769C1306.54 22.8804 1306.71 22.2544 1307.13 21.4991L1308.4 19.2503L1311.3 19.2251L1309.98 21.561C1309.92 21.6773 1309.9 21.7814 1309.95 21.8736C1309.99 21.9541 1310.09 21.9938 1310.24 21.9925L1311.08 21.9852L1312.64 19.2135L1315.54 19.1883L1313.98 21.96L1320.84 21.9005L1319.27 24.6896L1312.41 24.7492L1311.47 26.4227L1308.57 26.4478L1309.51 24.7744L1309.09 24.778Z" fill="#FFFFF1"/>
<path d="M1161.44 185.516C1161.11 185.718 1160.89 185.926 1160.78 186.141C1160.68 186.348 1160.66 186.551 1160.71 186.748C1160.76 186.931 1160.86 187.093 1161 187.235L1164.42 185.17C1164.15 185.106 1163.85 185.065 1163.53 185.048C1163.19 185.025 1162.85 185.048 1162.49 185.118C1162.12 185.182 1161.77 185.315 1161.44 185.516ZM1162.53 188.142C1162.77 188.22 1163.07 188.288 1163.42 188.343C1163.78 188.392 1164.18 188.39 1164.62 188.338C1165.07 188.278 1165.49 188.127 1165.89 187.883C1166.28 187.647 1166.5 187.416 1166.56 187.189C1166.64 186.956 1166.63 186.744 1166.55 186.555L1169.21 184.93C1169.74 185.423 1170.05 186.038 1170.12 186.777C1170.18 187.502 1169.54 188.278 1168.19 189.105C1167.2 189.709 1166.16 190.093 1165.07 190.258C1163.98 190.416 1162.93 190.407 1161.94 190.231C1160.95 190.042 1160.08 189.748 1159.33 189.347C1158.58 188.946 1158.01 188.474 1157.62 187.93C1157.23 187.373 1157.14 186.78 1157.36 186.153C1157.56 185.519 1158.16 184.9 1159.15 184.295C1160.15 183.684 1161.22 183.298 1162.36 183.139C1163.5 182.98 1164.62 183.019 1165.7 183.258C1166.79 183.497 1167.75 183.888 1168.6 184.432L1162.53 188.142ZM1175.39 179.339L1182.39 180.193L1179.52 181.944L1174.74 181.351L1174.4 181.56L1175.75 184.247L1172.88 185.997L1170.92 182.069L1164.3 181.392L1167.2 179.621L1172.01 180.093L1170.89 177.37L1173.74 175.63L1175.39 179.339ZM1186.31 172.874C1185.7 172.549 1185.03 172.417 1184.29 172.478C1183.55 172.526 1182.91 172.714 1182.37 173.04C1182.03 173.249 1181.78 173.488 1181.63 173.756C1181.48 174.012 1181.45 174.281 1181.57 174.562C1181.68 174.829 1181.94 175.073 1182.35 175.292C1182.97 175.618 1183.64 175.756 1184.38 175.708C1185.12 175.646 1185.76 175.452 1186.29 175.126C1186.63 174.917 1186.88 174.685 1187.04 174.429C1187.19 174.161 1187.21 173.892 1187.1 173.624C1186.99 173.344 1186.73 173.093 1186.31 172.874ZM1189.05 171.207C1189.79 171.602 1190.36 172.074 1190.76 172.624C1191.15 173.161 1191.28 173.729 1191.14 174.328C1191 174.92 1190.5 175.481 1189.64 176.008C1188.89 176.467 1188.17 176.746 1187.47 176.846C1186.77 176.939 1186.08 176.96 1185.39 176.908L1185.05 177.116C1185.92 177.321 1186.74 177.628 1187.51 178.035L1191.57 180.195L1188.84 181.863L1175.31 174.667L1178.05 173L1178.08 173.019C1178.27 173.119 1178.44 173.249 1178.6 173.41C1178.74 173.564 1178.87 173.723 1178.98 173.885L1179.32 173.676C1179.29 173.624 1179.27 173.575 1179.26 173.529C1179.2 173.3 1179.18 173.069 1179.2 172.837C1179.23 172.604 1179.36 172.343 1179.6 172.052C1179.82 171.754 1180.18 171.453 1180.68 171.147C1181.51 170.64 1182.44 170.328 1183.47 170.212C1184.5 170.095 1185.5 170.135 1186.48 170.331C1187.45 170.52 1188.3 170.812 1189.05 171.207ZM1192.86 166.335C1192.53 166.536 1192.31 166.745 1192.2 166.959C1192.11 167.167 1192.08 167.369 1192.13 167.566C1192.19 167.75 1192.28 167.912 1192.43 168.053L1195.84 165.989C1195.57 165.924 1195.28 165.883 1194.95 165.867C1194.61 165.844 1194.27 165.867 1193.91 165.937C1193.54 166.001 1193.19 166.134 1192.86 166.335ZM1193.95 168.96C1194.19 169.039 1194.49 169.106 1194.84 169.162C1195.2 169.211 1195.6 169.209 1196.04 169.156C1196.49 169.097 1196.91 168.945 1197.31 168.702C1197.7 168.466 1197.92 168.235 1197.99 168.008C1198.06 167.774 1198.05 167.563 1197.97 167.374L1200.63 165.748C1201.17 166.241 1201.47 166.857 1201.54 167.596C1201.61 168.321 1200.96 169.097 1199.61 169.923C1198.62 170.528 1197.58 170.912 1196.5 171.076C1195.4 171.234 1194.36 171.226 1193.37 171.05C1192.38 170.861 1191.5 170.566 1190.75 170.165C1190 169.765 1189.43 169.292 1189.04 168.748C1188.65 168.191 1188.57 167.599 1188.78 166.971C1188.98 166.337 1189.58 165.718 1190.57 165.114C1191.57 164.502 1192.64 164.117 1193.78 163.958C1194.93 163.798 1196.04 163.838 1197.12 164.077C1198.21 164.316 1199.18 164.707 1200.03 165.251L1193.95 168.96ZM1202.69 158.441C1202.93 157.972 1203.37 157.542 1204 157.153L1206.57 158.515C1205.77 159.001 1205.29 159.501 1205.13 160.015C1204.96 160.523 1205.03 160.996 1205.35 161.437C1205.66 161.877 1206.12 162.257 1206.72 162.576L1209.14 163.863L1206.41 165.53L1200.7 162.496C1200.59 162.433 1200.47 162.404 1200.35 162.407C1200.24 162.411 1200.12 162.447 1200.01 162.517L1198.93 163.173L1196.37 161.811L1199.21 160.081C1199.49 159.908 1199.79 159.806 1200.1 159.777C1200.43 159.741 1200.72 159.795 1200.99 159.939C1201.52 160.221 1202.25 160.732 1203.18 161.471L1203.52 161.263C1203.03 160.808 1202.71 160.341 1202.57 159.863C1202.42 159.378 1202.46 158.904 1202.69 158.441ZM1207.6 155.222C1207.9 155.213 1208.16 155.268 1208.38 155.387L1216.21 159.549L1213.47 161.216L1207.86 158.229C1207.73 158.16 1207.58 158.128 1207.42 158.133C1207.26 158.138 1207.12 158.178 1206.99 158.255L1206.17 158.755L1203.61 157.393L1206.82 155.434C1207.04 155.302 1207.3 155.231 1207.6 155.222ZM1203.03 155.268C1203.55 155.246 1203.99 155.124 1204.36 154.902C1204.7 154.693 1204.86 154.444 1204.85 154.153C1204.85 153.849 1204.66 153.604 1204.31 153.416C1203.95 153.222 1203.5 153.135 1202.98 153.157C1202.47 153.173 1202.05 153.284 1201.71 153.493C1201.34 153.715 1201.16 153.975 1201.16 154.272C1201.15 154.57 1201.33 154.816 1201.7 155.01C1202.06 155.204 1202.51 155.29 1203.03 155.268ZM1215.97 152.231C1215.64 152.433 1215.42 152.641 1215.31 152.856C1215.21 153.063 1215.19 153.266 1215.24 153.463C1215.29 153.646 1215.39 153.808 1215.53 153.95L1218.95 151.885C1218.68 151.821 1218.38 151.78 1218.06 151.763C1217.72 151.74 1217.37 151.763 1217.02 151.833C1216.65 151.897 1216.3 152.03 1215.97 152.231ZM1217.05 154.857C1217.3 154.935 1217.6 155.002 1217.94 155.058C1218.31 155.107 1218.71 155.105 1219.14 155.053C1219.59 154.993 1220.02 154.842 1220.42 154.598C1220.8 154.362 1221.03 154.131 1221.09 153.904C1221.17 153.671 1221.16 153.459 1221.07 153.27L1223.74 151.645C1224.27 152.138 1224.57 152.753 1224.64 153.492C1224.71 154.217 1224.07 154.993 1222.71 155.82C1221.72 156.424 1220.68 156.808 1219.6 156.973C1218.5 157.131 1217.46 157.122 1216.47 156.946C1215.48 156.757 1214.61 156.463 1213.86 156.062C1213.1 155.661 1212.53 155.189 1212.15 154.645C1211.76 154.088 1211.67 153.495 1211.88 152.868C1212.09 152.234 1212.68 151.615 1213.67 151.01C1214.67 150.399 1215.74 150.013 1216.89 149.854C1218.03 149.695 1219.14 149.734 1220.23 149.973C1221.31 150.212 1222.28 150.603 1223.13 151.147L1217.05 154.857ZM1231.03 143.175C1231.76 143.338 1232.35 143.546 1232.83 143.796L1237.73 146.407L1235 148.075L1230.2 145.52C1229.73 145.269 1229.17 145.137 1228.54 145.123C1227.9 145.108 1227.3 145.275 1226.73 145.622C1226.28 145.893 1226.02 146.152 1225.95 146.399C1225.87 146.639 1225.9 146.86 1226.06 147.06C1226.23 147.254 1226.47 147.435 1226.79 147.604C1227.5 147.986 1228.23 148.371 1228.96 148.759L1231.59 150.159L1228.86 151.826L1220.24 147.242L1222.97 145.575L1223.02 145.603C1223.26 145.728 1223.48 145.91 1223.68 146.149C1223.9 146.38 1224.08 146.62 1224.23 146.866L1224.57 146.658C1224.11 146.222 1223.94 145.791 1224.04 145.365C1224.15 144.939 1224.41 144.56 1224.84 144.23C1225.27 143.887 1225.74 143.622 1226.25 143.435C1227.01 143.142 1227.82 142.986 1228.66 142.967C1229.52 142.942 1230.31 143.011 1231.03 143.175ZM1242.3 140.698C1242.35 140.491 1242.33 140.306 1242.25 140.144L1245.15 138.372C1245.86 138.986 1246.19 139.673 1246.13 140.435C1246.08 141.19 1245.46 141.936 1244.25 142.673C1243.26 143.277 1242.22 143.661 1241.14 143.826C1240.04 143.984 1239 143.975 1238.01 143.799C1237.02 143.61 1236.15 143.315 1235.39 142.915C1234.64 142.514 1234.07 142.041 1233.68 141.498C1233.3 140.941 1233.21 140.348 1233.42 139.721C1233.62 139.087 1234.22 138.467 1235.21 137.863C1236.03 137.363 1236.89 137.02 1237.79 136.835C1238.68 136.636 1239.55 136.571 1240.39 136.639C1241.22 136.694 1241.99 136.836 1242.69 137.067L1239.81 138.828C1239.52 138.79 1239.19 138.796 1238.82 138.847C1238.46 138.891 1238.11 139.017 1237.77 139.225C1237.4 139.447 1237.2 139.685 1237.16 139.937C1237.11 140.183 1237.18 140.419 1237.36 140.645C1237.54 140.871 1237.79 141.072 1238.12 141.247C1238.45 141.423 1238.82 141.554 1239.23 141.641C1239.64 141.728 1240.06 141.752 1240.5 141.712C1240.93 141.667 1241.32 141.533 1241.69 141.31C1242.03 141.102 1242.23 140.898 1242.3 140.698ZM1247.64 132.897C1247.31 133.099 1247.09 133.307 1246.98 133.522C1246.88 133.73 1246.86 133.932 1246.91 134.129C1246.96 134.312 1247.06 134.475 1247.2 134.616L1250.62 132.551C1250.35 132.487 1250.05 132.446 1249.73 132.429C1249.39 132.406 1249.04 132.429 1248.69 132.499C1248.32 132.563 1247.97 132.696 1247.64 132.897ZM1248.72 135.523C1248.97 135.601 1249.27 135.669 1249.62 135.724C1249.98 135.773 1250.38 135.771 1250.82 135.719C1251.27 135.659 1251.69 135.508 1252.09 135.264C1252.48 135.028 1252.7 134.797 1252.76 134.57C1252.84 134.337 1252.83 134.125 1252.74 133.936L1255.41 132.311C1255.94 132.804 1256.25 133.42 1256.31 134.158C1256.38 134.883 1255.74 135.659 1254.38 136.486C1253.39 137.09 1252.36 137.474 1251.27 137.639C1250.18 137.797 1249.13 137.788 1248.14 137.612C1247.15 137.423 1246.28 137.129 1245.53 136.728C1244.77 136.327 1244.2 135.855 1243.82 135.311C1243.43 134.754 1243.34 134.161 1243.56 133.534C1243.76 132.9 1244.35 132.281 1245.34 131.676C1246.35 131.065 1247.42 130.679 1248.56 130.52C1249.7 130.361 1250.82 130.4 1251.9 130.639C1252.98 130.878 1253.95 131.27 1254.8 131.813L1248.72 135.523ZM1262.99 125.865C1263.74 125.823 1264.47 125.99 1265.18 126.366C1265.69 126.635 1266.04 126.978 1266.24 127.395C1266.43 127.813 1266.38 128.287 1266.09 128.818C1265.79 129.349 1265.18 129.896 1264.26 130.458C1263.34 131.021 1262.42 131.405 1261.51 131.61C1260.6 131.816 1259.77 131.88 1259.01 131.803C1258.27 131.719 1257.65 131.543 1257.14 131.274L1259.61 129.763C1259.87 129.9 1260.2 129.931 1260.59 129.853C1260.98 129.762 1261.44 129.553 1261.98 129.227C1262.21 129.088 1262.39 128.947 1262.54 128.804C1262.7 128.653 1262.79 128.512 1262.81 128.379C1262.83 128.246 1262.75 128.136 1262.59 128.049C1262.43 127.967 1262.24 127.95 1262.01 127.996C1261.78 128.029 1261.54 128.106 1261.27 128.226C1261.02 128.34 1260.68 128.508 1260.24 128.733C1259.46 129.133 1258.77 129.451 1258.19 129.686C1257.59 129.915 1256.94 130.043 1256.23 130.071C1255.54 130.091 1254.86 129.923 1254.19 129.566C1253.7 129.31 1253.38 128.985 1253.2 128.594C1253.04 128.195 1253.11 127.744 1253.4 127.239C1253.7 126.735 1254.3 126.212 1255.18 125.67C1256.07 125.128 1256.94 124.758 1257.79 124.561C1258.66 124.357 1259.44 124.291 1260.13 124.363C1260.84 124.428 1261.44 124.589 1261.92 124.846L1262.06 124.921L1259.59 126.432L1259.44 126.357C1259.27 126.263 1259.01 126.261 1258.66 126.35C1258.32 126.44 1257.93 126.613 1257.51 126.87C1257.16 127.085 1256.92 127.294 1256.78 127.496C1256.65 127.685 1256.67 127.824 1256.83 127.911C1256.94 127.968 1257.08 127.977 1257.25 127.939C1257.43 127.894 1257.66 127.811 1257.92 127.691C1258.17 127.564 1258.44 127.428 1258.72 127.28C1259.55 126.859 1260.27 126.531 1260.9 126.294C1261.53 126.044 1262.23 125.901 1262.99 125.865Z" fill="#FFFFF1"/>
<path d="M1034.19 261.891L1045.35 270.345L1042.74 272.201L1031.58 263.747L1034.19 261.891ZM1056.06 254.218C1056.73 254.449 1057.27 254.725 1057.69 255.047L1062.13 258.405L1059.52 260.26L1055.18 256.975C1054.76 256.653 1054.25 256.468 1053.66 256.42C1053.07 256.371 1052.5 256.541 1051.96 256.927C1051.54 257.229 1051.28 257.525 1051.2 257.816C1051.11 258.099 1051.14 258.363 1051.27 258.61C1051.42 258.849 1051.64 259.077 1051.92 259.295C1052.57 259.786 1053.23 260.281 1053.89 260.78L1056.26 262.58L1053.9 264.261L1049.56 260.976C1049.14 260.654 1048.63 260.473 1048.05 260.433C1047.46 260.385 1046.9 260.554 1046.35 260.94C1045.93 261.242 1045.68 261.538 1045.6 261.829C1045.51 262.112 1045.53 262.377 1045.67 262.623C1045.81 262.862 1046.03 263.087 1046.3 263.296L1046.38 263.356C1046.8 263.67 1047.11 263.908 1047.32 264.069C1047.53 264.222 1047.84 264.459 1048.26 264.781L1050.64 266.581L1048.03 268.436L1040.25 262.543L1042.86 260.687L1042.91 260.723C1043.12 260.884 1043.32 261.112 1043.49 261.407C1043.68 261.694 1043.84 261.988 1043.96 262.29L1044.29 262.058C1043.89 261.516 1043.75 260.992 1043.86 260.489C1043.98 259.985 1044.24 259.547 1044.66 259.175C1045.07 258.786 1045.51 258.493 1045.99 258.295C1046.52 258.058 1047.03 257.943 1047.53 257.951C1048.01 257.95 1048.42 258.003 1048.75 258.111C1049.08 258.218 1049.31 258.316 1049.42 258.405L1049.75 258.173C1049.39 257.599 1049.29 257.049 1049.43 256.523C1049.58 255.996 1049.86 255.546 1050.28 255.174C1050.69 254.785 1051.14 254.492 1051.61 254.294C1052.34 253.981 1053.09 253.834 1053.88 253.854C1054.67 253.866 1055.4 253.987 1056.06 254.218ZM1072.36 242.621C1073.02 242.852 1073.56 243.128 1073.99 243.45L1078.42 246.808L1075.81 248.663L1071.48 245.378C1071.05 245.056 1070.54 244.871 1069.95 244.823C1069.36 244.774 1068.8 244.944 1068.25 245.33C1067.83 245.632 1067.58 245.928 1067.5 246.219C1067.41 246.502 1067.43 246.766 1067.57 247.013C1067.71 247.252 1067.93 247.48 1068.22 247.698C1068.87 248.189 1069.52 248.684 1070.18 249.183L1072.55 250.983L1070.19 252.664L1065.86 249.379C1065.43 249.057 1064.93 248.876 1064.35 248.836C1063.76 248.788 1063.19 248.957 1062.65 249.343C1062.22 249.645 1061.97 249.941 1061.89 250.232C1061.8 250.515 1061.83 250.78 1061.96 251.026C1062.11 251.265 1062.32 251.489 1062.6 251.699L1062.68 251.759C1063.09 252.073 1063.4 252.311 1063.62 252.472C1063.82 252.625 1064.13 252.862 1064.56 253.184L1066.93 254.984L1064.33 256.839L1056.55 250.946L1059.15 249.09L1059.2 249.126C1059.41 249.287 1059.61 249.515 1059.79 249.81C1059.98 250.097 1060.13 250.391 1060.26 250.693L1060.58 250.461C1060.18 249.918 1060.04 249.395 1060.16 248.892C1060.27 248.388 1060.53 247.95 1060.95 247.578C1061.36 247.189 1061.81 246.896 1062.28 246.698C1062.81 246.461 1063.33 246.346 1063.82 246.354C1064.3 246.353 1064.71 246.406 1065.04 246.514C1065.37 246.621 1065.6 246.719 1065.72 246.808L1066.04 246.576C1065.69 246.002 1065.58 245.452 1065.73 244.926C1065.88 244.399 1066.16 243.949 1066.57 243.577C1066.98 243.188 1067.43 242.895 1067.91 242.697C1068.63 242.384 1069.38 242.237 1070.17 242.257C1070.96 242.268 1071.69 242.39 1072.36 242.621ZM1078.53 238.06C1078.22 238.284 1078.01 238.522 1077.89 238.773C1077.79 239.016 1077.76 239.256 1077.8 239.494C1077.84 239.715 1077.93 239.914 1078.05 240.089L1081.31 237.793C1081.06 237.703 1080.79 237.64 1080.49 237.604C1080.18 237.56 1079.86 237.571 1079.52 237.637C1079.18 237.695 1078.85 237.836 1078.53 238.06ZM1079.42 241.246C1079.65 241.352 1079.92 241.447 1080.24 241.531C1080.57 241.607 1080.94 241.624 1081.35 241.583C1081.77 241.534 1082.17 241.374 1082.55 241.103C1082.92 240.841 1083.14 240.575 1083.21 240.308C1083.29 240.033 1083.29 239.781 1083.22 239.551L1085.76 237.741C1086.23 238.356 1086.49 239.106 1086.52 239.99C1086.55 240.859 1085.92 241.753 1084.62 242.674C1083.68 243.346 1082.7 243.754 1081.69 243.897C1080.66 244.031 1079.7 243.97 1078.79 243.711C1077.88 243.437 1077.08 243.043 1076.4 242.527C1075.72 242.012 1075.22 241.421 1074.88 240.753C1074.55 240.069 1074.49 239.358 1074.72 238.619C1074.94 237.872 1075.52 237.163 1076.46 236.49C1077.42 235.81 1078.43 235.402 1079.49 235.268C1080.56 235.134 1081.59 235.236 1082.58 235.575C1083.58 235.913 1084.46 236.427 1085.22 237.118L1079.42 241.246ZM1088 229.122C1088.24 228.574 1088.67 228.083 1089.28 227.65L1091.59 229.401C1090.83 229.942 1090.36 230.515 1090.19 231.121C1090.01 231.718 1090.06 232.287 1090.33 232.828C1090.6 233.368 1091.01 233.844 1091.55 234.255L1093.73 235.909L1091.12 237.765L1085.98 233.864C1085.87 233.783 1085.76 233.742 1085.65 233.741C1085.55 233.739 1085.44 233.777 1085.33 233.854L1084.3 234.585L1081.99 232.834L1084.7 230.909C1084.97 230.715 1085.25 230.609 1085.54 230.59C1085.84 230.562 1086.11 230.641 1086.36 230.827C1086.84 231.189 1087.49 231.834 1088.31 232.762L1088.64 232.53C1088.21 231.963 1087.94 231.391 1087.83 230.813C1087.71 230.227 1087.76 229.664 1088 229.122ZM1101.44 224.476C1102.13 224.463 1102.8 224.698 1103.44 225.181C1103.9 225.527 1104.21 225.954 1104.37 226.462C1104.54 226.969 1104.47 227.533 1104.17 228.152C1103.87 228.771 1103.28 229.394 1102.4 230.02C1101.52 230.646 1100.66 231.06 1099.8 231.26C1098.95 231.46 1098.18 231.496 1097.48 231.367C1096.79 231.231 1096.22 230.99 1095.77 230.643L1098.13 228.962C1098.36 229.139 1098.66 229.191 1099.03 229.117C1099.4 229.028 1099.83 228.802 1100.34 228.438C1100.56 228.284 1100.74 228.125 1100.88 227.961C1101.04 227.789 1101.13 227.625 1101.15 227.468C1101.17 227.31 1101.11 227.175 1100.96 227.062C1100.82 226.958 1100.65 226.927 1100.43 226.971C1100.22 227 1099.98 227.079 1099.73 227.21C1099.5 227.332 1099.17 227.517 1098.76 227.763C1098.01 228.202 1097.36 228.548 1096.81 228.8C1096.25 229.044 1095.64 229.165 1094.98 229.164C1094.34 229.154 1093.71 228.92 1093.11 228.461C1092.67 228.131 1092.38 227.728 1092.24 227.252C1092.1 226.769 1092.19 226.233 1092.49 225.645C1092.79 225.058 1093.36 224.463 1094.21 223.86C1095.05 223.256 1095.88 222.858 1096.67 222.665C1097.48 222.464 1098.21 222.423 1098.85 222.543C1099.51 222.656 1100.05 222.877 1100.49 223.207L1100.61 223.304L1098.25 224.985L1098.12 224.889C1097.97 224.768 1097.72 224.753 1097.4 224.842C1097.08 224.932 1096.71 225.12 1096.31 225.406C1095.97 225.646 1095.74 225.883 1095.61 226.118C1095.48 226.337 1095.48 226.503 1095.63 226.616C1095.73 226.688 1095.86 226.706 1096.02 226.669C1096.19 226.624 1096.4 226.536 1096.65 226.406C1096.89 226.267 1097.14 226.117 1097.42 225.956C1098.2 225.494 1098.88 225.137 1099.48 224.885C1100.07 224.618 1100.73 224.481 1101.44 224.476ZM1103.35 217.937C1103.63 217.941 1103.87 218.019 1104.07 218.172L1111.13 223.523L1108.53 225.378L1103.46 221.538C1103.34 221.449 1103.21 221.404 1103.06 221.401C1102.91 221.399 1102.77 221.441 1102.65 221.526L1101.87 222.082L1099.56 220.331L1102.62 218.151C1102.83 218.004 1103.07 217.932 1103.35 217.937ZM1099.11 217.767C1099.6 217.766 1100.01 217.642 1100.36 217.395C1100.69 217.163 1100.85 216.873 1100.86 216.526C1100.86 216.163 1100.71 215.861 1100.39 215.619C1100.06 215.37 1099.65 215.245 1099.17 215.246C1098.69 215.239 1098.29 215.351 1097.97 215.583C1097.62 215.831 1097.44 216.132 1097.42 216.487C1097.41 216.842 1097.56 217.144 1097.89 217.394C1098.22 217.643 1098.63 217.768 1099.11 217.767ZM1114.78 217.528C1114.35 217.119 1114 216.715 1113.72 216.317L1110.93 212.238L1113.49 210.417L1118.77 218.085L1115.08 220.718L1104.82 216.587L1107.38 214.766L1112.83 216.955C1113.36 217.168 1113.9 217.436 1114.46 217.76L1114.78 217.528ZM1120.49 208.196C1120.18 208.421 1119.96 208.658 1119.85 208.909C1119.75 209.152 1119.72 209.393 1119.76 209.63C1119.8 209.852 1119.88 210.05 1120.01 210.226L1123.27 207.93C1123.02 207.839 1122.75 207.776 1122.45 207.74C1122.14 207.696 1121.81 207.707 1121.48 207.773C1121.14 207.831 1120.81 207.972 1120.49 208.196ZM1121.38 211.383C1121.6 211.489 1121.88 211.584 1122.2 211.667C1122.53 211.743 1122.9 211.761 1123.31 211.719C1123.73 211.67 1124.13 211.511 1124.51 211.24C1124.88 210.977 1125.1 210.712 1125.16 210.445C1125.24 210.169 1125.25 209.917 1125.18 209.687L1127.72 207.878C1128.19 208.493 1128.44 209.242 1128.47 210.127C1128.5 210.996 1127.87 211.89 1126.58 212.81C1125.64 213.483 1124.66 213.89 1123.64 214.033C1122.62 214.168 1121.65 214.106 1120.75 213.848C1119.84 213.574 1119.04 213.179 1118.36 212.664C1117.68 212.149 1117.17 211.557 1116.84 210.889C1116.51 210.205 1116.45 209.494 1116.68 208.755C1116.89 208.009 1117.47 207.299 1118.42 206.626C1119.37 205.946 1120.39 205.539 1121.45 205.405C1122.52 205.271 1123.55 205.373 1124.54 205.711C1125.54 206.05 1126.42 206.564 1127.18 207.254L1121.38 211.383Z" fill="#FFFFF1"/>
<path d="M976.213 373.916L976.184 373.888L977.93 370.878L977.949 370.883C978.375 371.178 978.809 371.603 979.249 372.157C979.689 372.711 979.948 373.475 980.025 374.45C980.108 375.413 979.789 376.518 979.066 377.763C978.29 379.101 977.298 380.13 976.09 380.849C974.868 381.564 973.605 381.992 972.298 382.133C970.986 382.259 969.759 382.161 968.617 381.838C967.462 381.512 966.476 380.985 965.658 380.257C964.848 379.518 964.366 378.596 964.215 377.493C964.05 376.386 964.356 375.163 965.132 373.826C965.861 372.568 966.742 371.616 967.775 370.968C968.802 370.305 969.749 369.881 970.618 369.697C971.486 369.513 972.217 369.424 972.81 369.431L971.065 372.441C970.546 372.536 969.993 372.756 969.406 373.1C968.812 373.429 968.314 373.939 967.913 374.631C967.491 375.358 967.342 376.027 967.465 376.639C967.595 377.24 967.913 377.746 968.421 378.158C968.916 378.566 969.504 378.867 970.184 379.059C970.876 379.255 971.611 379.328 972.386 379.278C973.161 379.229 973.895 379.02 974.586 378.652C975.284 378.272 975.841 377.724 976.256 377.009C976.657 376.317 976.821 375.712 976.748 375.195C976.662 374.674 976.483 374.248 976.213 373.916ZM977.543 362.004C977.543 361.387 977.73 360.755 978.105 360.109L980.895 360.898C980.427 361.705 980.238 362.43 980.328 363.073C980.405 363.713 980.675 364.239 981.138 364.651C981.6 365.064 982.159 365.363 982.813 365.548L985.45 366.293L983.845 369.061L977.628 367.304C977.5 367.268 977.387 367.269 977.289 367.309C977.192 367.348 977.109 367.426 977.042 367.541L976.41 368.631L973.62 367.843L975.285 364.971C975.452 364.682 975.663 364.473 975.918 364.344C976.179 364.203 976.457 364.174 976.752 364.257C977.329 364.421 978.177 364.788 979.294 365.358L979.495 365.012C978.876 364.636 978.402 364.193 978.07 363.684C977.726 363.17 977.55 362.61 977.543 362.004ZM983.732 354.963C983.538 355.297 983.442 355.606 983.442 355.888C983.45 356.158 983.519 356.399 983.65 356.611C983.775 356.807 983.93 356.965 984.115 357.085L986.131 353.647C985.873 353.655 985.601 353.699 985.315 353.779C985.017 353.856 984.73 353.99 984.455 354.18C984.167 354.368 983.926 354.628 983.732 354.963ZM985.816 357.666C986.061 357.682 986.345 357.668 986.669 357.625C986.999 357.571 987.34 357.446 987.693 357.25C988.052 357.043 988.348 356.737 988.583 356.334C988.81 355.941 988.901 355.605 988.855 355.323C988.816 355.03 988.717 354.788 988.56 354.596L990.125 351.897C990.801 352.302 991.33 352.922 991.713 353.755C992.09 354.573 991.881 355.668 991.085 357.041C990.503 358.044 989.784 358.807 988.928 359.331C988.059 359.85 987.162 360.161 986.237 360.262C985.306 360.348 984.43 360.275 983.609 360.043C982.788 359.811 982.092 359.44 981.522 358.929C980.945 358.404 980.61 357.746 980.517 356.954C980.411 356.159 980.648 355.259 981.23 354.256C981.819 353.241 982.567 352.466 983.475 351.93C984.383 351.395 985.354 351.099 986.387 351.042C987.421 350.985 988.421 351.14 989.388 351.507L985.816 357.666ZM993.487 343.435C993.479 343.526 993.424 343.699 993.322 343.952C993.22 344.205 993.094 344.512 992.945 344.872C992.796 345.206 992.654 345.542 992.518 345.879C992.396 346.167 992.36 346.459 992.412 346.756C992.471 347.041 992.635 347.221 992.905 347.297C993.174 347.374 993.446 347.343 993.72 347.205C994 347.057 994.246 346.851 994.458 346.589C994.651 346.308 994.795 346.06 994.89 345.845C994.984 345.63 995.038 345.37 995.051 345.065C995.064 344.733 994.999 344.446 994.856 344.204C994.719 343.951 994.548 343.781 994.343 343.697C994.183 343.638 994.026 343.587 993.872 343.543L993.487 343.435ZM1000.29 340.745L999.145 342.718C998.917 343.11 998.625 343.37 998.267 343.497C997.916 343.612 997.542 343.614 997.144 343.502C996.875 343.426 996.645 343.32 996.454 343.186C996.25 343.048 996.092 342.909 995.979 342.769L995.778 343.116C996.096 343.34 996.377 343.627 996.622 343.978C996.866 344.329 997.013 344.706 997.063 345.11C997.129 345.692 997.059 346.276 996.853 346.863C996.667 347.441 996.375 347.996 995.977 348.528C995.691 348.917 995.329 349.258 994.891 349.55C994.453 349.842 993.971 350.042 993.446 350.149C992.928 350.244 992.419 350.221 991.918 350.079C991.149 349.862 990.659 349.509 990.45 349.02C990.247 348.52 990.246 347.942 990.446 347.287C990.543 346.966 990.663 346.644 990.805 346.321C990.934 345.995 991.063 345.696 991.191 345.424C991.36 345.082 991.508 344.748 991.638 344.422L991.73 344.186C991.893 343.776 991.976 343.478 991.98 343.291C991.971 343.1 991.802 343.005 991.473 343.006C991.28 343.005 991.088 343.065 990.898 343.186C990.709 343.307 990.534 343.466 990.376 343.663C990.204 343.856 990.041 344.085 989.887 344.35C989.666 344.731 989.54 345.065 989.509 345.351C989.464 345.634 989.492 345.856 989.592 346.019C989.692 346.181 989.838 346.29 990.03 346.344L988.475 349.026C987.872 348.855 987.382 348.542 987.004 348.086C986.633 347.619 986.464 347.008 986.499 346.252C986.521 345.493 986.827 344.606 987.415 343.591C987.997 342.588 988.659 341.808 989.399 341.252C990.127 340.693 990.853 340.341 991.579 340.197C992.292 340.05 992.95 340.061 993.553 340.231L996.324 341.015C996.453 341.051 996.592 341.043 996.741 340.991C996.884 340.925 996.989 340.833 997.056 340.718L997.498 339.957L1000.29 340.745ZM994.368 337.668L991.577 336.879L992.54 335.218L988.46 334.065L990.065 331.297L994.146 332.45L997.477 326.706C997.604 326.487 997.794 326.326 998.048 326.223C998.302 326.121 998.551 326.104 998.794 326.172L1007.32 328.582L1005.72 331.35L999.595 329.62C999.454 329.581 999.315 329.588 999.178 329.644C999.041 329.699 998.936 329.79 998.863 329.917L996.936 333.239L1000.27 334.18C1000.39 334.216 1000.53 334.208 1000.68 334.157C1000.83 334.09 1000.93 333.999 1001 333.883L1002.34 331.565L1005.13 332.354L1003.61 334.983C1003.22 335.652 1002.74 336.162 1002.18 336.514C1001.61 336.85 1001.03 337.047 1000.43 337.105C999.814 337.16 999.238 337.111 998.699 336.959L995.331 336.007L994.368 337.668ZM992.905 327.791C992.508 327.678 992.245 327.449 992.116 327.104C991.988 326.759 992.031 326.402 992.245 326.033C992.445 325.687 992.76 325.427 993.19 325.253C993.626 325.068 994.036 325.029 994.421 325.138C994.819 325.25 995.089 325.481 995.23 325.83C995.365 326.163 995.332 326.503 995.132 326.849C994.917 327.218 994.592 327.495 994.156 327.681C993.72 327.866 993.303 327.903 992.905 327.791ZM1006.74 315.561C1007.43 315.528 1008.03 315.584 1008.55 315.73L1013.9 317.242L1012.29 320.01L1007.06 318.53C1006.54 318.385 1006.01 318.403 1005.46 318.582C1004.91 318.762 1004.46 319.14 1004.13 319.717C1003.87 320.166 1003.76 320.545 1003.81 320.853C1003.84 321.158 1003.97 321.402 1004.19 321.586C1004.42 321.758 1004.7 321.893 1005.05 321.99C1005.83 322.212 1006.62 322.435 1007.42 322.659L1010.29 323.47L1008.68 326.238L999.288 323.584L1000.89 320.816L1000.95 320.832C1001.21 320.905 1001.48 321.047 1001.75 321.261C1002.04 321.462 1002.3 321.683 1002.54 321.924L1002.74 321.578C1002.16 321.213 1001.82 320.768 1001.72 320.243C1001.62 319.719 1001.68 319.199 1001.9 318.685C1002.12 318.156 1002.41 317.706 1002.76 317.335C1003.28 316.759 1003.9 316.331 1004.62 316.05C1005.34 315.757 1006.05 315.594 1006.74 315.561ZM1016.62 310.772C1016.14 311.603 1015.53 312.284 1014.81 312.817C1014.08 313.35 1013.29 313.697 1012.43 313.858C1011.56 314.015 1010.7 313.973 1009.84 313.73C1008.97 313.483 1008.3 313.106 1007.83 312.598C1007.36 312.075 1007.11 311.469 1007.09 310.779C1007.06 310.086 1007.27 309.358 1007.71 308.597C1008.04 308.032 1008.47 307.562 1009 307.189C1009.52 306.8 1010.07 306.538 1010.64 306.404C1011.2 306.255 1011.72 306.227 1012.19 306.319C1012.33 306.317 1012.47 306.283 1012.61 306.216C1012.76 306.137 1012.97 306.016 1013.25 305.852C1013.6 305.645 1013.89 305.503 1014.1 305.428C1014.3 305.337 1014.49 305.319 1014.69 305.373C1015.55 305.616 1016.21 306.005 1016.68 306.54C1017.13 307.071 1017.35 307.704 1017.34 308.44C1017.34 309.176 1017.09 309.953 1016.62 310.772ZM1014.12 310.065C1014.33 309.696 1014.44 309.346 1014.46 309.014C1014.46 308.667 1014.38 308.374 1014.2 308.137C1014.02 307.895 1013.74 307.724 1013.38 307.623C1013.02 307.521 1012.66 307.511 1012.28 307.593C1011.9 307.675 1011.55 307.844 1011.22 308.1C1010.89 308.341 1010.62 308.646 1010.4 309.015C1010.18 309.396 1010.07 309.76 1010.06 310.107C1010.05 310.439 1010.13 310.725 1010.32 310.967C1010.51 311.208 1010.79 311.379 1011.15 311.481C1011.5 311.582 1011.87 311.592 1012.25 311.51C1012.61 311.425 1012.96 311.262 1013.29 311.021C1013.62 310.764 1013.9 310.446 1014.12 310.065ZM1020.97 311.801C1021.23 311.363 1021.42 310.962 1021.56 310.598C1021.7 310.222 1021.77 309.92 1021.77 309.691C1021.78 309.451 1021.7 309.309 1021.55 309.265C1021.39 309.222 1021.2 309.288 1020.96 309.462C1020.73 309.626 1020.48 309.877 1020.21 310.217C1019.95 310.545 1019.69 310.928 1019.43 311.366C1019.17 311.816 1018.97 312.229 1018.83 312.604C1018.69 312.968 1018.62 313.265 1018.62 313.494C1018.63 313.722 1018.7 313.858 1018.86 313.902C1019.01 313.945 1019.2 313.886 1019.43 313.722C1019.66 313.559 1019.91 313.313 1020.17 312.985C1020.45 312.646 1020.71 312.251 1020.97 311.801ZM1016.43 314.183C1016.2 314.587 1015.91 314.862 1015.57 315.008C1015.24 315.142 1014.9 315.158 1014.54 315.057C1014.2 314.963 1014 314.79 1013.92 314.54C1013.83 314.274 1013.91 313.94 1014.14 313.536L1014.15 313.519L1013.77 313.41L1016.23 310.663L1016.61 310.789L1015.59 312.554C1015.51 312.681 1015.47 312.785 1015.47 312.865C1015.48 312.933 1015.53 312.98 1015.61 313.006C1015.7 313.031 1015.79 313.02 1015.86 312.973C1015.94 312.915 1016.01 312.822 1016.09 312.696L1017.22 310.741C1017.75 309.829 1018.35 309.047 1019.03 308.393C1019.73 307.731 1020.42 307.255 1021.11 306.967C1021.82 306.671 1022.45 306.601 1023 306.757C1023.55 306.913 1023.93 307.267 1024.13 307.821C1024.35 308.367 1024.38 309.045 1024.21 309.856C1024.05 310.658 1023.72 311.51 1023.2 312.409C1022.65 313.344 1022.06 314.149 1021.41 314.826C1020.77 315.491 1020.14 315.976 1019.52 316.283C1018.89 316.589 1018.34 316.675 1017.87 316.541C1017.42 316.414 1017.11 316.186 1016.94 315.857C1016.79 315.52 1016.75 315.152 1016.82 314.755C1016.89 314.346 1017.02 313.961 1017.22 313.6L1017.24 313.565L1016.85 313.456L1016.43 314.183ZM1012.39 305.973C1011.71 306.036 1011.11 305.993 1010.58 305.845C1010.34 305.776 1010.18 305.643 1010.1 305.446C1010.02 305.249 1010.04 305.041 1010.17 304.821L1011.41 302.676L1014.2 303.465L1013.57 304.555C1013.5 304.67 1013.49 304.787 1013.53 304.904C1013.57 305.01 1013.66 305.083 1013.8 305.123L1014.69 305.373L1013.25 307.041L1012.19 306.319L1012.39 305.973Z" fill="#FFFFF1"/>
</g>
<path d="M518.75 79.25V85.55H530.1V92.55H518.75V107H510.75V72H532.9V79.25H518.75ZM546.593 101.75C548.059 101.75 549.359 101.383 550.493 100.65C551.626 99.9167 552.543 98.9833 553.243 97.85C553.943 96.6833 554.443 95.4667 554.743 94.2C554.976 93.1 555.026 92.0833 554.893 91.15C554.759 90.1833 554.359 89.4 553.693 88.8C553.059 88.1667 552.126 87.85 550.893 87.85C549.426 87.85 548.126 88.2167 546.993 88.95C545.859 89.6833 544.926 90.6333 544.193 91.8C543.493 92.9333 542.993 94.1333 542.693 95.4C542.459 96.4667 542.409 97.4833 542.543 98.45C542.709 99.4167 543.109 100.217 543.743 100.85C544.409 101.45 545.359 101.75 546.593 101.75ZM550.793 82C553.793 82 556.143 82.6667 557.843 84C559.576 85.3 560.693 86.9667 561.193 89C561.693 91.0333 561.709 93.1667 561.243 95.4C560.809 97.4333 559.993 99.3833 558.793 101.25C557.593 103.083 555.959 104.6 553.893 105.8C551.859 107 549.459 107.6 546.693 107.6C543.659 107.6 541.276 106.95 539.543 105.65C537.843 104.317 536.726 102.633 536.193 100.6C535.693 98.5667 535.693 96.4333 536.193 94.2C536.626 92.1667 537.443 90.2333 538.643 88.4C539.843 86.5333 541.459 85 543.493 83.8C545.559 82.6 547.993 82 550.793 82ZM579.801 99.75C580.401 99.3167 580.851 98.8333 581.151 98.3H589.651C589.051 100.9 587.735 103.1 585.701 104.9C583.701 106.7 580.935 107.6 577.401 107.6C574.501 107.6 572.101 106.983 570.201 105.75C568.301 104.483 566.901 102.883 566.001 100.95C565.135 98.9833 564.701 96.9333 564.701 94.8C564.701 92.6667 565.135 90.6333 566.001 88.7C566.901 86.7333 568.301 85.1333 570.201 83.9C572.101 82.6333 574.501 82 577.401 82C579.801 82 581.851 82.45 583.551 83.35C585.285 84.2167 586.635 85.3667 587.601 86.8C588.601 88.2 589.285 89.7167 589.651 91.35H581.201C580.901 90.8167 580.435 90.3333 579.801 89.9C579.201 89.4667 578.401 89.25 577.401 89.25C576.335 89.25 575.451 89.5333 574.751 90.1C574.051 90.6333 573.535 91.3167 573.201 92.15C572.868 92.9833 572.701 93.8667 572.701 94.8C572.701 95.7333 572.868 96.6167 573.201 97.45C573.535 98.2833 574.051 98.9833 574.751 99.55C575.451 100.083 576.335 100.35 577.401 100.35C578.401 100.35 579.201 100.15 579.801 99.75ZM592.787 99.95C592.62 98.35 592.687 96.8167 592.987 95.35L595.687 82.6H603.587L600.887 95.75C600.62 97.1167 600.753 98.35 601.287 99.45C601.853 100.517 602.97 101.183 604.637 101.45C605.77 101.65 606.737 101.567 607.537 101.2C608.37 100.833 609.02 100.317 609.487 99.65C609.987 98.95 610.32 98.1833 610.487 97.35C611.02 94.9167 611.537 92.4833 612.037 90.05L613.587 82.6H621.537L616.337 107H608.387L608.437 106.85C608.637 106.183 608.987 105.417 609.487 104.55C609.987 103.65 610.52 102.767 611.087 101.9H610.087C609.22 103.667 608.137 105 606.837 105.9C605.537 106.767 604.22 107.283 602.887 107.45C601.553 107.617 600.337 107.567 599.237 107.3C597.103 106.767 595.537 105.817 594.537 104.45C593.537 103.05 592.953 101.55 592.787 99.95ZM644.352 94.3C645.485 95.3333 646.052 96.85 646.052 98.85C646.052 100.283 645.652 101.667 644.852 103C644.052 104.333 642.769 105.433 641.002 106.3C639.235 107.167 637.002 107.6 634.302 107.6C631.602 107.6 629.369 107.167 627.602 106.3C625.835 105.433 624.535 104.333 623.702 103C622.902 101.667 622.502 100.283 622.502 98.85H629.752C629.752 99.5833 630.119 100.15 630.852 100.55C631.619 100.917 632.785 101.1 634.352 101.1C635.019 101.1 635.635 101.033 636.202 100.9C636.802 100.767 637.285 100.55 637.652 100.25C638.019 99.95 638.202 99.5667 638.202 99.1C638.202 98.6667 637.985 98.3333 637.552 98.1C637.152 97.8333 636.619 97.65 635.952 97.55C635.319 97.45 634.419 97.35 633.252 97.25C631.152 97.05 629.402 96.8 628.002 96.5C626.602 96.1667 625.385 95.5 624.352 94.5C623.352 93.5 622.852 92.05 622.852 90.15C622.852 88.7833 623.235 87.4833 624.002 86.25C624.802 85.0167 626.052 84 627.752 83.2C629.452 82.4 631.602 82 634.202 82C636.802 82 638.935 82.4 640.602 83.2C642.302 84 643.535 85.0167 644.302 86.25C645.102 87.4833 645.502 88.7833 645.502 90.15V90.55H638.252V90.15C638.252 89.65 637.902 89.25 637.202 88.95C636.502 88.65 635.535 88.5 634.302 88.5C633.269 88.5 632.402 88.65 631.702 88.95C631.035 89.2167 630.702 89.5833 630.702 90.05C630.702 90.35 630.869 90.5833 631.202 90.75C631.569 90.9167 632.085 91.05 632.752 91.15C633.419 91.2167 634.135 91.2833 634.902 91.35C637.102 91.55 638.935 91.8333 640.402 92.2C641.902 92.5333 643.219 93.2333 644.352 94.3ZM660.939 83.6C661.472 84.2333 661.639 85.05 661.439 86.05L656.989 107H649.039L652.389 91.55C652.522 91.05 652.456 90.65 652.189 90.35C651.922 90.0167 651.572 89.85 651.139 89.85H649.039L650.589 82.6H658.539C659.639 82.6 660.439 82.9333 660.939 83.6ZM656.739 76.25C657.472 77.1167 658.456 77.55 659.689 77.55C660.489 77.55 661.272 77.25 662.039 76.65C662.806 76.0167 663.272 75.2667 663.439 74.4C663.672 73.2 663.439 72.1833 662.739 71.35C662.039 70.4833 661.106 70.05 659.939 70.05C659.039 70.05 658.206 70.35 657.439 70.95C656.706 71.55 656.239 72.3 656.039 73.2C655.806 74.3667 656.039 75.3833 656.739 76.25ZM689.533 88.85C690.099 90.35 690.383 91.7667 690.383 93.1V107H682.383V93.4C682.383 92.0667 681.966 90.9 681.133 89.9C680.299 88.9 679.049 88.4 677.383 88.4C676.083 88.4 675.066 88.65 674.333 89.15C673.599 89.6167 673.083 90.2167 672.783 90.95C672.516 91.6833 672.383 92.5 672.383 93.4C672.383 95.4333 672.383 97.4833 672.383 99.55V107H664.383V82.6H672.383V82.75C672.383 83.4167 672.216 84.2 671.883 85.1C671.583 86 671.216 86.8667 670.783 87.7H671.783C672.283 85.9333 673.149 84.6 674.383 83.7C675.616 82.8 676.949 82.2667 678.383 82.1C679.849 81.9 681.166 81.95 682.333 82.25C684.133 82.6833 685.633 83.5167 686.833 84.75C688.066 85.9833 688.966 87.35 689.533 88.85ZM706.356 104.7C703.956 104.7 701.84 104.233 700.006 103.3C698.173 102.367 696.756 101.05 695.756 99.35C694.756 97.6167 694.256 95.6333 694.256 93.4C694.256 91.1333 694.723 89.15 695.656 87.45C696.623 85.7167 697.956 84.3833 699.656 83.45C701.356 82.4833 703.306 82 705.506 82C707.14 82 708.606 82.35 709.906 83.05C711.24 83.7167 712.273 84.6 713.006 85.7C713.773 86.7667 714.206 87.8833 714.306 89.05C714.406 89.35 714.59 89.6167 714.856 89.85C715.156 90.0833 715.606 90.4 716.206 90.8C716.973 91.3333 717.523 91.7833 717.856 92.15C718.223 92.4833 718.406 92.9 718.406 93.4C718.406 95.6333 717.906 97.6167 716.906 99.35C715.906 101.05 714.49 102.367 712.656 103.3C710.823 104.233 708.723 104.7 706.356 104.7ZM706.356 98.2C707.423 98.2 708.373 98 709.206 97.6C710.073 97.1667 710.74 96.6 711.206 95.9C711.673 95.1667 711.906 94.3333 711.906 93.4C711.906 92.4667 711.673 91.6333 711.206 90.9C710.74 90.1667 710.073 89.6 709.206 89.2C708.373 88.7667 707.423 88.55 706.356 88.55C705.256 88.55 704.273 88.7667 703.406 89.2C702.573 89.6 701.923 90.1667 701.456 90.9C700.99 91.6333 700.756 92.4667 700.756 93.4C700.756 94.3333 700.99 95.1667 701.456 95.9C701.923 96.6 702.573 97.1667 703.406 97.6C704.273 98 705.256 98.2 706.356 98.2ZM706.856 115.75C708.123 115.75 709.256 115.667 710.256 115.5C711.29 115.333 712.09 115.1 712.656 114.8C713.256 114.5 713.556 114.15 713.556 113.75C713.556 113.35 713.256 113 712.656 112.7C712.09 112.4 711.29 112.167 710.256 112C709.256 111.833 708.123 111.75 706.856 111.75C705.556 111.75 704.39 111.833 703.356 112C702.356 112.167 701.573 112.4 701.006 112.7C700.44 113 700.156 113.35 700.156 113.75C700.156 114.15 700.44 114.5 701.006 114.8C701.573 115.1 702.356 115.333 703.356 115.5C704.39 115.667 705.556 115.75 706.856 115.75ZM697.756 108.7C696.59 108.7 695.706 108.417 695.106 107.85C694.54 107.283 694.256 106.533 694.256 105.6C694.256 104.733 694.54 104.05 695.106 103.55C695.706 103.017 696.59 102.75 697.756 102.75H697.806V101.75L706.356 103.7L706.306 104.7H701.206C700.84 104.7 700.556 104.75 700.356 104.85C700.19 104.95 700.106 105.117 700.106 105.35C700.106 105.583 700.19 105.75 700.356 105.85C700.556 105.95 700.84 106 701.206 106H706.856C709.49 106 711.856 106.333 713.956 107C716.09 107.7 717.756 108.633 718.956 109.8C720.19 111 720.806 112.317 720.806 113.75C720.806 115.183 720.19 116.483 718.956 117.65C717.756 118.85 716.09 119.783 713.956 120.45C711.856 121.15 709.506 121.5 706.906 121.5C704.206 121.5 701.79 121.217 699.656 120.65C697.556 120.083 695.906 119.3 694.706 118.3C693.506 117.3 692.906 116.183 692.906 114.95C692.906 113.783 693.256 112.8 693.956 112C694.69 111.233 695.573 110.667 696.606 110.3C697.673 109.933 698.723 109.733 699.756 109.7H699.856V108.7H697.756ZM715.306 89.05C714.673 87.6167 714.356 86.2167 714.356 84.85C714.356 84.2167 714.573 83.6833 715.006 83.25C715.44 82.8167 715.973 82.6 716.606 82.6H722.806V89.85H719.656C719.323 89.85 719.023 89.9667 718.756 90.2C718.523 90.4333 718.406 90.7333 718.406 91.1V93.4L713.256 92.35L714.306 89.05H715.306ZM750.929 83.6C751.463 84.2333 751.629 85.05 751.429 86.05L746.979 107H739.029L742.379 91.55C742.513 91.05 742.446 90.65 742.179 90.35C741.913 90.0167 741.563 89.85 741.129 89.85H739.029L740.579 82.6H748.529C749.629 82.6 750.429 82.9333 750.929 83.6ZM746.729 76.25C747.463 77.1167 748.446 77.55 749.679 77.55C750.479 77.55 751.263 77.25 752.029 76.65C752.796 76.0167 753.263 75.2667 753.429 74.4C753.663 73.2 753.429 72.1833 752.729 71.35C752.029 70.4833 751.096 70.05 749.929 70.05C749.029 70.05 748.196 70.35 747.429 70.95C746.696 71.55 746.229 72.3 746.029 73.2C745.796 74.3667 746.029 75.3833 746.729 76.25ZM774.723 94.3C775.856 95.3333 776.423 96.85 776.423 98.85C776.423 100.283 776.023 101.667 775.223 103C774.423 104.333 773.14 105.433 771.373 106.3C769.606 107.167 767.373 107.6 764.673 107.6C761.973 107.6 759.74 107.167 757.973 106.3C756.206 105.433 754.906 104.333 754.073 103C753.273 101.667 752.873 100.283 752.873 98.85H760.123C760.123 99.5833 760.49 100.15 761.223 100.55C761.99 100.917 763.156 101.1 764.723 101.1C765.39 101.1 766.006 101.033 766.573 100.9C767.173 100.767 767.656 100.55 768.023 100.25C768.39 99.95 768.573 99.5667 768.573 99.1C768.573 98.6667 768.356 98.3333 767.923 98.1C767.523 97.8333 766.99 97.65 766.323 97.55C765.69 97.45 764.79 97.35 763.623 97.25C761.523 97.05 759.773 96.8 758.373 96.5C756.973 96.1667 755.756 95.5 754.723 94.5C753.723 93.5 753.223 92.05 753.223 90.15C753.223 88.7833 753.606 87.4833 754.373 86.25C755.173 85.0167 756.423 84 758.123 83.2C759.823 82.4 761.973 82 764.573 82C767.173 82 769.306 82.4 770.973 83.2C772.673 84 773.906 85.0167 774.673 86.25C775.473 87.4833 775.873 88.7833 775.873 90.15V90.55H768.623V90.15C768.623 89.65 768.273 89.25 767.573 88.95C766.873 88.65 765.906 88.5 764.673 88.5C763.64 88.5 762.773 88.65 762.073 88.95C761.406 89.2167 761.073 89.5833 761.073 90.05C761.073 90.35 761.24 90.5833 761.573 90.75C761.94 90.9167 762.456 91.05 763.123 91.15C763.79 91.2167 764.506 91.2833 765.273 91.35C767.473 91.55 769.306 91.8333 770.773 92.2C772.273 92.5333 773.59 93.2333 774.723 94.3ZM809.843 95.35C809.609 95.45 809.109 95.55 808.343 95.65C807.609 95.75 806.726 95.8667 805.693 96C804.759 96.1 803.809 96.2167 802.843 96.35C802.043 96.45 801.243 96.75 800.443 97.25C799.643 97.75 799.176 98.35 799.043 99.05C798.909 99.75 799.059 100.317 799.493 100.75C799.959 101.183 800.576 101.467 801.343 101.6C802.143 101.667 802.859 101.667 803.493 101.6C804.126 101.533 804.859 101.317 805.693 100.95C806.593 100.55 807.376 100.033 808.043 99.4C808.709 98.7667 809.126 98.1667 809.293 97.6C809.393 97.1667 809.493 96.75 809.593 96.35L809.843 95.35ZM818.793 107.05H813.093C811.993 107.05 811.243 106.733 810.843 106.1C810.443 105.467 810.343 104.633 810.543 103.6C810.676 102.9 811.093 101.933 811.793 100.7C812.493 99.4667 813.293 98.2 814.193 96.9H813.193C812.159 98.7333 810.993 100.45 809.693 102.05C808.426 103.65 807.209 104.8 806.043 105.5C804.509 106.433 802.909 107.05 801.243 107.35C799.609 107.65 797.976 107.7 796.343 107.5C795.209 107.367 794.193 107 793.293 106.4C792.393 105.8 791.743 104.983 791.343 103.95C790.943 102.917 790.876 101.75 791.143 100.45C791.543 98.45 792.409 96.9 793.743 95.8C795.076 94.7 796.659 93.95 798.493 93.55C799.426 93.35 800.343 93.2 801.243 93.1C802.176 92.9667 803.026 92.8667 803.793 92.8C804.759 92.7667 805.726 92.6667 806.693 92.5L807.393 92.4C808.526 92.2333 809.359 92.0333 809.893 91.8C810.426 91.5333 810.643 91.0333 810.543 90.3C810.509 89.8667 810.309 89.5167 809.943 89.25C809.576 88.9833 809.093 88.8 808.493 88.7C807.926 88.5667 807.259 88.5 806.493 88.5C805.393 88.5 804.443 88.65 803.643 88.95C802.843 89.2167 802.226 89.5667 801.793 90C801.359 90.4333 801.093 90.9 800.993 91.4H793.243C793.576 89.8333 794.326 88.3333 795.493 86.9C796.693 85.4667 798.343 84.3 800.443 83.4C802.543 82.4667 805.059 82 807.993 82C810.893 82 813.193 82.4667 814.893 83.4C816.593 84.3 817.726 85.4667 818.293 86.9C818.893 88.3 819.026 89.7833 818.693 91.35L817.143 98.55C817.076 98.8833 817.126 99.1833 817.293 99.45C817.493 99.6833 817.776 99.8 818.143 99.8H820.343L818.793 107.05ZM838.479 100.35C840.045 100.35 841.412 99.8667 842.579 98.9C843.745 97.9 844.329 96.5333 844.329 94.8C844.329 93.0667 843.745 91.7167 842.579 90.75C841.412 89.75 840.045 89.25 838.479 89.25C837.512 89.25 836.579 89.4667 835.679 89.9C834.812 90.3333 834.095 90.9667 833.529 91.8C832.995 92.6333 832.729 93.6333 832.729 94.8C832.729 96.5333 833.295 97.9 834.429 98.9C835.595 99.8667 836.945 100.35 838.479 100.35ZM840.829 82C843.362 82 845.479 82.6333 847.179 83.9C848.912 85.1667 850.195 86.7833 851.029 88.75C851.895 90.6833 852.329 92.7 852.329 94.8C852.329 96.9 851.912 98.9333 851.079 100.9C850.245 102.833 848.979 104.433 847.279 105.7C845.579 106.967 843.512 107.6 841.079 107.6C838.779 107.6 837.012 107.2 835.779 106.4C834.545 105.567 833.529 104.567 832.729 103.4H831.729C832.395 104.733 832.729 105.9 832.729 106.9V107H824.729V72H832.729V80.2C832.729 82.3667 832.395 84.3667 831.729 86.2H832.729C832.829 86.0333 832.929 85.8833 833.029 85.75C833.829 84.6833 834.829 83.8 836.029 83.1C837.229 82.3667 838.829 82 840.829 82ZM866.026 101.75C867.493 101.75 868.793 101.383 869.926 100.65C871.06 99.9167 871.976 98.9833 872.676 97.85C873.376 96.6833 873.876 95.4667 874.176 94.2C874.41 93.1 874.46 92.0833 874.326 91.15C874.193 90.1833 873.793 89.4 873.126 88.8C872.493 88.1667 871.56 87.85 870.326 87.85C868.86 87.85 867.56 88.2167 866.426 88.95C865.293 89.6833 864.36 90.6333 863.626 91.8C862.926 92.9333 862.426 94.1333 862.126 95.4C861.893 96.4667 861.843 97.4833 861.976 98.45C862.143 99.4167 862.543 100.217 863.176 100.85C863.843 101.45 864.793 101.75 866.026 101.75ZM870.226 82C873.226 82 875.576 82.6667 877.276 84C879.01 85.3 880.126 86.9667 880.626 89C881.126 91.0333 881.143 93.1667 880.676 95.4C880.243 97.4333 879.426 99.3833 878.226 101.25C877.026 103.083 875.393 104.6 873.326 105.8C871.293 107 868.893 107.6 866.126 107.6C863.093 107.6 860.71 106.95 858.976 105.65C857.276 104.317 856.16 102.633 855.626 100.6C855.126 98.5667 855.126 96.4333 855.626 94.2C856.06 92.1667 856.876 90.2333 858.076 88.4C859.276 86.5333 860.893 85 862.926 83.8C864.993 82.6 867.426 82 870.226 82ZM884.535 99.95C884.368 98.35 884.435 96.8167 884.735 95.35L887.435 82.6H895.335L892.635 95.75C892.368 97.1167 892.501 98.35 893.035 99.45C893.601 100.517 894.718 101.183 896.385 101.45C897.518 101.65 898.485 101.567 899.285 101.2C900.118 100.833 900.768 100.317 901.235 99.65C901.735 98.95 902.068 98.1833 902.235 97.35C902.768 94.9167 903.285 92.4833 903.785 90.05L905.335 82.6H913.285L908.085 107H900.135L900.185 106.85C900.385 106.183 900.735 105.417 901.235 104.55C901.735 103.65 902.268 102.767 902.835 101.9H901.835C900.968 103.667 899.885 105 898.585 105.9C897.285 106.767 895.968 107.283 894.635 107.45C893.301 107.617 892.085 107.567 890.985 107.3C888.851 106.767 887.285 105.817 886.285 104.45C885.285 103.05 884.701 101.55 884.535 99.95ZM919.4 102.65C918.833 101.35 918.55 100 918.55 98.6V89.85H913.75V82.6H918.55V72H926.55V82.6H934.5V89.85H926.55V98.5C926.55 98.8333 926.667 99.1333 926.9 99.4C927.167 99.6333 927.467 99.75 927.8 99.75H934.5V107H926.9C924.967 107 923.367 106.6 922.1 105.8C920.867 104.967 919.967 103.917 919.4 102.65ZM529.85 157.3C530.983 158.333 531.55 159.85 531.55 161.85C531.55 163.283 531.15 164.667 530.35 166C529.55 167.333 528.267 168.433 526.5 169.3C524.733 170.167 522.5 170.6 519.8 170.6C517.1 170.6 514.867 170.167 513.1 169.3C511.333 168.433 510.033 167.333 509.2 166C508.4 164.667 508 163.283 508 161.85H515.25C515.25 162.583 515.617 163.15 516.35 163.55C517.117 163.917 518.283 164.1 519.85 164.1C520.517 164.1 521.133 164.033 521.7 163.9C522.3 163.767 522.783 163.55 523.15 163.25C523.517 162.95 523.7 162.567 523.7 162.1C523.7 161.667 523.483 161.333 523.05 161.1C522.65 160.833 522.117 160.65 521.45 160.55C520.817 160.45 519.917 160.35 518.75 160.25C516.65 160.05 514.9 159.8 513.5 159.5C512.1 159.167 510.883 158.5 509.85 157.5C508.85 156.5 508.35 155.05 508.35 153.15C508.35 151.783 508.733 150.483 509.5 149.25C510.3 148.017 511.55 147 513.25 146.2C514.95 145.4 517.1 145 519.7 145C522.3 145 524.433 145.4 526.1 146.2C527.8 147 529.033 148.017 529.8 149.25C530.6 150.483 531 151.783 531 153.15V153.55H523.75V153.15C523.75 152.65 523.4 152.25 522.7 151.95C522 151.65 521.033 151.5 519.8 151.5C518.767 151.5 517.9 151.65 517.2 151.95C516.533 152.217 516.2 152.583 516.2 153.05C516.2 153.35 516.367 153.583 516.7 153.75C517.067 153.917 517.583 154.05 518.25 154.15C518.917 154.217 519.633 154.283 520.4 154.35C522.6 154.55 524.433 154.833 525.9 155.2C527.4 155.533 528.717 156.233 529.85 157.3ZM551.737 158.35C551.504 158.45 551.004 158.55 550.237 158.65C549.504 158.75 548.62 158.867 547.587 159C546.654 159.1 545.704 159.217 544.737 159.35C543.937 159.45 543.137 159.75 542.337 160.25C541.537 160.75 541.07 161.35 540.937 162.05C540.804 162.75 540.954 163.317 541.387 163.75C541.854 164.183 542.47 164.467 543.237 164.6C544.037 164.667 544.754 164.667 545.387 164.6C546.02 164.533 546.754 164.317 547.587 163.95C548.487 163.55 549.27 163.033 549.937 162.4C550.604 161.767 551.02 161.167 551.187 160.6C551.287 160.167 551.387 159.75 551.487 159.35L551.737 158.35ZM560.687 170.05H554.987C553.887 170.05 553.137 169.733 552.737 169.1C552.337 168.467 552.237 167.633 552.437 166.6C552.57 165.9 552.987 164.933 553.687 163.7C554.387 162.467 555.187 161.2 556.087 159.9H555.087C554.054 161.733 552.887 163.45 551.587 165.05C550.32 166.65 549.104 167.8 547.937 168.5C546.404 169.433 544.804 170.05 543.137 170.35C541.504 170.65 539.87 170.7 538.237 170.5C537.104 170.367 536.087 170 535.187 169.4C534.287 168.8 533.637 167.983 533.237 166.95C532.837 165.917 532.77 164.75 533.037 163.45C533.437 161.45 534.304 159.9 535.637 158.8C536.97 157.7 538.554 156.95 540.387 156.55C541.32 156.35 542.237 156.2 543.137 156.1C544.07 155.967 544.92 155.867 545.687 155.8C546.654 155.767 547.62 155.667 548.587 155.5L549.287 155.4C550.42 155.233 551.254 155.033 551.787 154.8C552.32 154.533 552.537 154.033 552.437 153.3C552.404 152.867 552.204 152.517 551.837 152.25C551.47 151.983 550.987 151.8 550.387 151.7C549.82 151.567 549.154 151.5 548.387 151.5C547.287 151.5 546.337 151.65 545.537 151.95C544.737 152.217 544.12 152.567 543.687 153C543.254 153.433 542.987 153.9 542.887 154.4H535.137C535.47 152.833 536.22 151.333 537.387 149.9C538.587 148.467 540.237 147.3 542.337 146.4C544.437 145.467 546.954 145 549.887 145C552.787 145 555.087 145.467 556.787 146.4C558.487 147.3 559.62 148.467 560.187 149.9C560.787 151.3 560.92 152.783 560.587 154.35L559.037 161.55C558.97 161.883 559.02 162.183 559.187 162.45C559.387 162.683 559.67 162.8 560.037 162.8H562.237L560.687 170.05ZM578.673 162.75C578.64 161.85 578.923 160.65 579.523 159.15L584.023 145.6H591.673L580.823 178.25C580.29 179.85 579.29 181.183 577.823 182.25C576.356 183.35 574.49 183.9 572.223 183.9H565.123V177.15H572.623C572.956 177.15 573.223 177.05 573.423 176.85C573.656 176.683 573.806 176.45 573.873 176.15L575.923 170H572.773L564.623 145.6H572.273L576.823 159.15C577.423 160.65 577.706 161.85 577.673 162.75H578.673ZM605.812 146.6C606.345 147.233 606.512 148.05 606.312 149.05L601.862 170H593.912L597.262 154.55C597.395 154.05 597.329 153.65 597.062 153.35C596.795 153.017 596.445 152.85 596.012 152.85H593.912L595.462 145.6H603.412C604.512 145.6 605.312 145.933 605.812 146.6ZM601.612 139.25C602.345 140.117 603.329 140.55 604.562 140.55C605.362 140.55 606.145 140.25 606.912 139.65C607.679 139.017 608.145 138.267 608.312 137.4C608.545 136.2 608.312 135.183 607.612 134.35C606.912 133.483 605.979 133.05 604.812 133.05C603.912 133.05 603.079 133.35 602.312 133.95C601.579 134.55 601.112 135.3 600.912 136.2C600.679 137.367 600.912 138.383 601.612 139.25ZM634.406 151.85C634.973 153.35 635.256 154.767 635.256 156.1V170H627.256V156.4C627.256 155.067 626.839 153.9 626.006 152.9C625.173 151.9 623.923 151.4 622.256 151.4C620.956 151.4 619.939 151.65 619.206 152.15C618.473 152.617 617.956 153.217 617.656 153.95C617.389 154.683 617.256 155.5 617.256 156.4C617.256 158.433 617.256 160.483 617.256 162.55V170H609.256V145.6H617.256V145.75C617.256 146.417 617.089 147.2 616.756 148.1C616.456 149 616.089 149.867 615.656 150.7H616.656C617.156 148.933 618.023 147.6 619.256 146.7C620.489 145.8 621.823 145.267 623.256 145.1C624.723 144.9 626.039 144.95 627.206 145.25C629.006 145.683 630.506 146.517 631.706 147.75C632.939 148.983 633.839 150.35 634.406 151.85ZM651.229 167.7C648.829 167.7 646.713 167.233 644.879 166.3C643.046 165.367 641.629 164.05 640.629 162.35C639.629 160.617 639.129 158.633 639.129 156.4C639.129 154.133 639.596 152.15 640.529 150.45C641.496 148.717 642.829 147.383 644.529 146.45C646.229 145.483 648.179 145 650.379 145C652.013 145 653.479 145.35 654.779 146.05C656.113 146.717 657.146 147.6 657.879 148.7C658.646 149.767 659.079 150.883 659.179 152.05C659.279 152.35 659.463 152.617 659.729 152.85C660.029 153.083 660.479 153.4 661.079 153.8C661.846 154.333 662.396 154.783 662.729 155.15C663.096 155.483 663.279 155.9 663.279 156.4C663.279 158.633 662.779 160.617 661.779 162.35C660.779 164.05 659.363 165.367 657.529 166.3C655.696 167.233 653.596 167.7 651.229 167.7ZM651.229 161.2C652.296 161.2 653.246 161 654.079 160.6C654.946 160.167 655.613 159.6 656.079 158.9C656.546 158.167 656.779 157.333 656.779 156.4C656.779 155.467 656.546 154.633 656.079 153.9C655.613 153.167 654.946 152.6 654.079 152.2C653.246 151.767 652.296 151.55 651.229 151.55C650.129 151.55 649.146 151.767 648.279 152.2C647.446 152.6 646.796 153.167 646.329 153.9C645.863 154.633 645.629 155.467 645.629 156.4C645.629 157.333 645.863 158.167 646.329 158.9C646.796 159.6 647.446 160.167 648.279 160.6C649.146 161 650.129 161.2 651.229 161.2ZM651.729 178.75C652.996 178.75 654.129 178.667 655.129 178.5C656.163 178.333 656.963 178.1 657.529 177.8C658.129 177.5 658.429 177.15 658.429 176.75C658.429 176.35 658.129 176 657.529 175.7C656.963 175.4 656.163 175.167 655.129 175C654.129 174.833 652.996 174.75 651.729 174.75C650.429 174.75 649.263 174.833 648.229 175C647.229 175.167 646.446 175.4 645.879 175.7C645.313 176 645.029 176.35 645.029 176.75C645.029 177.15 645.313 177.5 645.879 177.8C646.446 178.1 647.229 178.333 648.229 178.5C649.263 178.667 650.429 178.75 651.729 178.75ZM642.629 171.7C641.463 171.7 640.579 171.417 639.979 170.85C639.413 170.283 639.129 169.533 639.129 168.6C639.129 167.733 639.413 167.05 639.979 166.55C640.579 166.017 641.463 165.75 642.629 165.75H642.679V164.75L651.229 166.7L651.179 167.7H646.079C645.713 167.7 645.429 167.75 645.229 167.85C645.063 167.95 644.979 168.117 644.979 168.35C644.979 168.583 645.063 168.75 645.229 168.85C645.429 168.95 645.713 169 646.079 169H651.729C654.363 169 656.729 169.333 658.829 170C660.963 170.7 662.629 171.633 663.829 172.8C665.063 174 665.679 175.317 665.679 176.75C665.679 178.183 665.063 179.483 663.829 180.65C662.629 181.85 660.963 182.783 658.829 183.45C656.729 184.15 654.379 184.5 651.779 184.5C649.079 184.5 646.663 184.217 644.529 183.65C642.429 183.083 640.779 182.3 639.579 181.3C638.379 180.3 637.779 179.183 637.779 177.95C637.779 176.783 638.129 175.8 638.829 175C639.563 174.233 640.446 173.667 641.479 173.3C642.546 172.933 643.596 172.733 644.629 172.7H644.729V171.7H642.629ZM660.179 152.05C659.546 150.617 659.229 149.217 659.229 147.85C659.229 147.217 659.446 146.683 659.879 146.25C660.313 145.817 660.846 145.6 661.479 145.6H667.679V152.85H664.529C664.196 152.85 663.896 152.967 663.629 153.2C663.396 153.433 663.279 153.733 663.279 154.1V156.4L658.129 155.35L659.179 152.05H660.179ZM709.552 151.85C710.119 153.35 710.402 154.767 710.402 156.1V170H702.402V156.4C702.402 155.067 701.986 153.9 701.152 152.9C700.319 151.9 699.069 151.4 697.402 151.4C696.102 151.4 695.086 151.65 694.352 152.15C693.619 152.617 693.102 153.217 692.802 153.95C692.536 154.683 692.402 155.5 692.402 156.4C692.402 158.433 692.402 160.483 692.402 162.55V170H684.402V145.6H692.402V145.75C692.402 146.417 692.236 147.2 691.902 148.1C691.602 149 691.236 149.867 690.802 150.7H691.802C692.302 148.933 693.169 147.6 694.402 146.7C695.636 145.8 696.969 145.267 698.402 145.1C699.869 144.9 701.186 144.95 702.352 145.25C704.152 145.683 705.652 146.517 706.852 147.75C708.086 148.983 708.986 150.35 709.552 151.85ZM724.864 164.75C726.331 164.75 727.631 164.383 728.764 163.65C729.897 162.917 730.814 161.983 731.514 160.85C732.214 159.683 732.714 158.467 733.014 157.2C733.247 156.1 733.297 155.083 733.164 154.15C733.031 153.183 732.631 152.4 731.964 151.8C731.331 151.167 730.397 150.85 729.164 150.85C727.697 150.85 726.397 151.217 725.264 151.95C724.131 152.683 723.197 153.633 722.464 154.8C721.764 155.933 721.264 157.133 720.964 158.4C720.731 159.467 720.681 160.483 720.814 161.45C720.981 162.417 721.381 163.217 722.014 163.85C722.681 164.45 723.631 164.75 724.864 164.75ZM729.064 145C732.064 145 734.414 145.667 736.114 147C737.847 148.3 738.964 149.967 739.464 152C739.964 154.033 739.981 156.167 739.514 158.4C739.081 160.433 738.264 162.383 737.064 164.25C735.864 166.083 734.231 167.6 732.164 168.8C730.131 170 727.731 170.6 724.964 170.6C721.931 170.6 719.547 169.95 717.814 168.65C716.114 167.317 714.997 165.633 714.464 163.6C713.964 161.567 713.964 159.433 714.464 157.2C714.897 155.167 715.714 153.233 716.914 151.4C718.114 149.533 719.731 148 721.764 146.8C723.831 145.6 726.264 145 729.064 145ZM749.073 170.6C747.806 170.6 746.723 170.183 745.823 169.35C744.923 168.483 744.473 167.45 744.473 166.25C744.473 165.017 744.923 163.983 745.823 163.15C746.723 162.283 747.806 161.85 749.073 161.85C749.839 161.85 750.556 162.05 751.223 162.45C751.889 162.85 752.423 163.383 752.823 164.05C753.256 164.717 753.473 165.45 753.473 166.25C753.473 167.45 753.023 168.483 752.123 169.35C751.256 170.183 750.239 170.6 749.073 170.6ZM778.613 124.9C779.513 125.767 779.963 126.8 779.963 128C779.963 129.2 779.513 130.233 778.613 131.1C777.746 131.933 776.73 132.35 775.563 132.35C774.296 132.35 773.213 131.933 772.313 131.1C771.413 130.233 770.963 129.2 770.963 128C770.963 126.767 771.413 125.733 772.313 124.9C773.213 124.033 774.296 123.6 775.563 123.6C776.73 123.6 777.746 124.033 778.613 124.9ZM776.213 134.25C776.58 133.617 776.763 132.933 776.763 132.2L775.563 123.6C778.096 123.7 779.73 125.017 780.463 127.55C781.196 130.083 780.813 132.617 779.313 135.15C777.813 137.683 775.48 139.067 772.313 139.3V136.85C773.246 136.65 774.046 136.317 774.713 135.85C775.38 135.383 775.88 134.85 776.213 134.25ZM767.363 124.9C768.263 125.767 768.713 126.8 768.713 128C768.713 129.2 768.263 130.233 767.363 131.1C766.496 131.933 765.48 132.35 764.313 132.35C763.046 132.35 761.963 131.933 761.063 131.1C760.163 130.233 759.713 129.2 759.713 128C759.713 126.767 760.163 125.733 761.063 124.9C761.963 124.033 763.046 123.6 764.313 123.6C765.48 123.6 766.496 124.033 767.363 124.9ZM764.963 134.25C765.33 133.617 765.513 132.933 765.513 132.2L764.313 123.6C766.846 123.7 768.48 125.017 769.213 127.55C769.946 130.083 769.563 132.617 768.063 135.15C766.563 137.683 764.23 139.067 761.063 139.3V136.85C761.996 136.65 762.796 136.317 763.463 135.85C764.13 135.383 764.63 134.85 764.963 134.25Z" fill="#0F0F0F"/>
<g filter="url(#filter1_d_1085_109)">
<path d="M500.49 30.1531L494.273 35.8967L494.213 35.9526L494.138 35.986C491.493 37.1773 489.368 36.7062 487.541 36.1081C486.612 35.8042 485.824 35.4929 485.024 35.3066C484.247 35.1255 483.527 35.0827 482.799 35.3029L482.788 35.3062L482.777 35.3092C481.228 35.702 479.918 36.5346 478.725 37.5265C477.518 38.5304 476.51 39.6209 475.439 40.6127C473.773 42.4346 473.056 44.2778 473.199 46.1591C474.883 46.3838 476.519 46.7921 478.109 47.3866C481.75 48.7485 484.269 50.7465 485.568 53.4205C486.249 54.6607 486.553 55.9167 486.451 57.1789C486.349 58.444 485.843 59.6767 484.968 60.8721L484.96 60.8826C482.757 63.739 479.232 65.6147 474.471 66.5649L474.467 66.5657C470.271 67.3728 466.119 67.0823 462.019 65.6972L461.199 65.4051L460.38 65.0871C456.355 63.4684 453.45 61.4155 451.733 58.8959C450.003 56.3581 449.515 53.4021 450.226 50.0714L450.385 49.3998C452.235 42.2163 458.056 36.3825 467.673 31.8514C477.408 27.1155 488.284 26.2766 500.273 29.3013L501.167 29.5274L500.49 30.1531ZM539.029 44.5689L532.813 50.3129L532.767 50.3551L532.712 50.3855C531.178 51.2197 529.833 51.5593 528.619 51.6007C527.408 51.642 526.357 51.3852 525.419 51.068C524.954 50.9105 524.508 50.7349 524.091 50.5756C523.67 50.4141 523.277 50.2678 522.894 50.1567C522.132 49.9362 521.443 49.8644 520.73 50.0802L520.708 50.0869C519.157 50.4804 518.001 51.2245 516.969 52.1174C516.45 52.5665 515.965 53.0508 515.472 53.5511C514.989 54.0425 514.494 54.552 513.971 55.0363C512.311 56.8558 511.597 58.6966 511.74 60.5753C513.423 60.8 515.059 61.2081 516.648 61.8025C520.29 63.1645 522.809 65.1631 524.108 67.8376C524.788 69.0775 525.092 70.3329 524.991 71.5948C524.889 72.8599 524.383 74.0925 523.508 75.288L523.501 75.2988C521.297 78.1553 517.772 80.0305 513.01 80.9807L513.007 80.9815C508.811 81.7887 504.659 81.4983 500.558 80.113L499.739 79.8213L498.92 79.5033C494.896 77.8846 491.991 75.8317 490.273 73.3121C488.428 70.605 487.995 67.4217 488.924 63.8157C490.716 56.8567 496.236 51.1648 505.322 46.6964L506.213 46.2673C515.948 41.5313 526.824 40.6925 538.812 43.7171L539.707 43.9432L539.029 44.5689Z" stroke="#0F0F0F" shape-rendering="crispEdges"/>
</g>
<path d="M780.44 201.616H775.944L776.12 200.368H780.616L780.44 201.616ZM790.684 194.784C792.124 194.784 793.132 195.264 793.948 196.112L792.988 196.992C792.284 196.304 791.564 196.048 790.684 196.048C789.452 196.048 788.444 196.672 788.444 197.824C788.444 198.656 788.892 199.088 790.508 199.632C792.044 200.112 793.388 200.768 793.388 202.656C793.388 204.352 792.092 206.192 789.052 206.192C787.436 206.192 786.268 205.616 785.484 204.72L786.444 203.808C787.1 204.528 787.916 204.928 789.084 204.928C790.716 204.928 791.788 204.096 791.788 202.736C791.788 201.776 791.292 201.344 789.772 200.816C787.9 200.16 786.892 199.472 786.892 197.904C786.892 196.448 788.204 194.784 790.684 194.784ZM795.153 194.976H802.961L802.609 196.288H799.585L798.225 206H796.705L798.065 196.288H794.961L795.153 194.976ZM804.669 194.976H810.589L810.253 196.208H806.013L805.517 199.792H809.181L809.021 201.008H805.341L804.829 204.768H809.341L809.165 206H803.117L804.669 194.976ZM818.689 194.976H820.273L815.249 206H813.601L811.649 194.976H813.233L814.625 204.352L818.689 194.976ZM821.934 194.976H827.854L827.518 196.208H823.278L822.782 199.792H826.446L826.286 201.008H822.606L822.094 204.768H826.606L826.43 206H820.382L821.934 194.976ZM834.768 194.976H836.288L834.944 204.512C834.624 206.816 833.424 207.648 831.6 208.208L831.296 207.072C832.816 206.496 833.248 205.824 833.44 204.352L834.768 194.976ZM843.245 194.784C845.645 194.784 847.181 196.352 847.181 199.264C847.181 202.176 845.805 206.192 841.741 206.192C839.341 206.192 837.789 204.64 837.789 201.76C837.789 198.944 839.164 194.784 843.245 194.784ZM843.181 196.048C840.189 196.048 839.373 199.568 839.373 201.808C839.373 204.08 840.317 204.928 841.789 204.928C844.797 204.928 845.597 201.376 845.597 199.152C845.597 196.944 844.701 196.048 843.181 196.048ZM850.309 194.976H853.365C855.365 194.976 856.821 195.744 856.821 197.44C856.821 198.992 855.669 199.904 854.357 200.176C855.493 200.384 856.581 200.928 856.581 202.48C856.581 204.416 855.429 206 851.813 206H848.757L850.309 194.976ZM853.413 196.192H851.653L851.173 199.648H852.789C854.117 199.648 855.269 199.008 855.269 197.488C855.269 196.432 854.405 196.192 853.413 196.192ZM850.469 204.768H851.877C854.357 204.768 854.997 203.776 854.997 202.448C854.997 201.184 854.037 200.816 852.837 200.816H851.013L850.469 204.768ZM862.278 194.784C863.718 194.784 864.726 195.264 865.542 196.112L864.582 196.992C863.878 196.304 863.158 196.048 862.278 196.048C861.046 196.048 860.038 196.672 860.038 197.824C860.038 198.656 860.486 199.088 862.102 199.632C863.638 200.112 864.982 200.768 864.982 202.656C864.982 204.352 863.686 206.192 860.646 206.192C859.03 206.192 857.862 205.616 857.078 204.72L858.038 203.808C858.694 204.528 859.51 204.928 860.678 204.928C862.31 204.928 863.382 204.096 863.382 202.736C863.382 201.776 862.886 201.344 861.366 200.816C859.494 200.16 858.486 199.472 858.486 197.904C858.486 196.448 859.798 194.784 862.278 194.784Z" fill="black"/>
</g>
<defs>
<filter id="filter0_d_1085_109" x="906.311" y="-48.7049" width="461.889" height="519.56" filterUnits="userSpaceOnUse" color-interpolation-filters="sRGB">
<feFlood flood-opacity="0" result="BackgroundImageFix"/>
<feColorMatrix in="SourceAlpha" type="matrix" values="0 0 0 0 0 0 0 0 0 0 0 0 0 0 0 0 0 0 127 0" result="hardAlpha"/>
<feOffset dy="4"/>
<feGaussianBlur stdDeviation="7.85"/>
<feComposite in2="hardAlpha" operator="out"/>
<feColorMatrix type="matrix" values="0 0 0 0 0 0 0 0 0 0 0 0 0 0 0 0 0 0 0.25 0"/>
<feBlend mode="normal" in2="BackgroundImageFix" result="effect1_dropShadow_1085_109"/>
<feBlend mode="normal" in="SourceGraphic" in2="effect1_dropShadow_1085_109" result="shape"/>
</filter>
<filter id="filter1_d_1085_109" x="449.411" y="27.0273" width="118.213" height="87.7999" filterUnits="userSpaceOnUse" color-interpolation-filters="sRGB">
<feFlood flood-opacity="0" result="BackgroundImageFix"/>
<feColorMatrix in="SourceAlpha" type="matrix" values="0 0 0 0 0 0 0 0 0 0 0 0 0 0 0 0 0 0 127 0" result="hardAlpha"/>
<feOffset dx="14" dy="20"/>
<feGaussianBlur stdDeviation="6.45"/>
<feComposite in2="hardAlpha" operator="out"/>
<feColorMatrix type="matrix" values="0 0 0 0 0 0 0 0 0 0 0 0 0 0 0 0 0 0 0.25 0"/>
<feBlend mode="normal" in2="BackgroundImageFix" result="effect1_dropShadow_1085_109"/>
<feBlend mode="normal" in="SourceGraphic" in2="effect1_dropShadow_1085_109" result="shape"/>
</filter>
<clipPath id="clip0_1085_109">
<rect width="1584" height="396" fill="white"/>
</clipPath>
</defs>
</svg>
