<svg width="208" height="254" viewBox="0 0 208 254" fill="none" xmlns="http://www.w3.org/2000/svg">
<path d="M189.768 41.5851C189.768 31.5542 197.894 23.4276 207.925 23.4276V18.1574C197.894 18.1574 189.768 10.0309 189.768 0H184.498C184.498 10.0309 176.371 18.1574 166.34 18.1574C156.309 18.1574 148.183 10.0309 148.183 0H142.913C142.913 10.0309 134.786 18.1574 124.755 18.1574C114.724 18.1574 106.598 10.0309 106.598 0H101.328C101.328 10.0309 93.201 18.1574 83.1701 18.1574C73.1392 18.1574 65.0126 10.0309 65.0126 0H59.7425C59.7425 10.0309 51.616 18.1574 41.5851 18.1574C31.5542 18.1574 23.4276 10.0309 23.4276 0H18.1575C18.1575 10.0309 10.0309 18.1574 0 18.1574V23.4276C10.0309 23.4276 18.1575 31.5542 18.1575 41.5851C18.1575 51.616 10.0309 59.7426 0 59.7426V65.0126C10.0309 65.0126 18.1575 73.1392 18.1575 83.1701C18.1575 93.201 10.0309 101.328 0 101.328V106.598C10.0309 106.598 18.1575 114.724 18.1575 124.755C18.1575 134.786 10.0309 142.913 0 142.913V148.183C10.0309 148.183 18.1575 156.309 18.1575 166.34C18.1575 176.371 10.0309 184.498 0 184.498V189.768C10.0309 189.768 18.1575 197.894 18.1575 207.925H23.4276C23.4276 197.894 31.5542 189.768 41.5851 189.768C51.616 189.768 59.7425 197.894 59.7425 207.925H65.0126C65.0126 197.894 73.1392 189.768 83.1701 189.768C93.201 189.768 101.328 197.894 101.328 207.925H106.598C106.598 197.894 114.724 189.768 124.755 189.768C134.786 189.768 142.913 197.894 142.913 207.925H148.183C148.183 197.894 156.309 189.768 166.34 189.768C176.371 189.768 184.498 197.894 184.498 207.925H189.768C189.768 197.894 197.894 189.768 207.925 189.768V184.498C197.894 184.498 189.768 176.371 189.768 166.34C189.768 156.309 197.894 148.183 207.925 148.183V142.913C197.894 142.913 189.768 134.786 189.768 124.755C189.768 114.724 197.894 106.598 207.925 106.598V101.328C197.894 101.328 189.768 93.201 189.768 83.1701C189.768 73.1392 197.894 65.0126 207.925 65.0126V59.7426C197.894 59.7426 189.768 51.616 189.768 41.5851ZM41.5629 184.476C31.532 184.476 23.4054 176.349 23.4054 166.318C23.4054 156.287 31.532 148.161 41.5629 148.161C51.5938 148.161 59.7204 156.287 59.7204 166.318C59.7204 176.349 51.5938 184.476 41.5629 184.476ZM41.5629 142.891C31.532 142.891 23.4054 134.764 23.4054 124.733C23.4054 114.702 31.532 106.576 41.5629 106.576C51.5938 106.576 59.7204 114.702 59.7204 124.733C59.7204 134.764 51.5938 142.891 41.5629 142.891ZM41.5629 101.305C31.532 101.305 23.4054 93.1789 23.4054 83.148C23.4054 73.1171 31.532 64.9905 41.5629 64.9905C51.5938 64.9905 59.7204 73.1171 59.7204 83.148C59.7204 93.1789 51.5938 101.305 41.5629 101.305ZM41.5629 59.7204C31.532 59.7204 23.4054 51.5938 23.4054 41.5629C23.4054 31.532 31.532 23.4055 41.5629 23.4055C51.5938 23.4055 59.7204 31.532 59.7204 41.5629C59.7204 51.5938 51.5938 59.7204 41.5629 59.7204ZM83.148 184.476C73.1171 184.476 64.9905 176.349 64.9905 166.318C64.9905 156.287 73.1171 148.161 83.148 148.161C93.1789 148.161 101.305 156.287 101.305 166.318C101.305 176.349 93.1789 184.476 83.148 184.476ZM83.148 142.891C73.1171 142.891 64.9905 134.764 64.9905 124.733C64.9905 114.702 73.1171 106.576 83.148 106.576C93.1789 106.576 101.305 114.702 101.305 124.733C101.305 134.764 93.1789 142.891 83.148 142.891ZM83.148 101.305C73.1171 101.305 64.9905 93.1789 64.9905 83.148C64.9905 73.1171 73.1171 64.9905 83.148 64.9905C93.1789 64.9905 101.305 73.1171 101.305 83.148C101.305 93.1789 93.1789 101.305 83.148 101.305ZM83.148 59.7204C73.1171 59.7204 64.9905 51.5938 64.9905 41.5629C64.9905 31.532 73.1171 23.4055 83.148 23.4055C93.1789 23.4055 101.305 31.532 101.305 41.5629C101.305 51.5938 93.1789 59.7204 83.148 59.7204ZM124.733 184.476C114.702 184.476 106.576 176.349 106.576 166.318C106.576 156.287 114.702 148.161 124.733 148.161C134.764 148.161 142.891 156.287 142.891 166.318C142.891 176.349 134.764 184.476 124.733 184.476ZM124.733 142.891C114.702 142.891 106.576 134.764 106.576 124.733C106.576 114.702 114.702 106.576 124.733 106.576C134.764 106.576 142.891 114.702 142.891 124.733C142.891 134.764 134.764 142.891 124.733 142.891ZM124.733 101.305C114.702 101.305 106.576 93.1789 106.576 83.148C106.576 73.1171 114.702 64.9905 124.733 64.9905C134.764 64.9905 142.891 73.1171 142.891 83.148C142.891 93.1789 134.764 101.305 124.733 101.305ZM124.733 59.7204C114.702 59.7204 106.576 51.5938 106.576 41.5629C106.576 31.532 114.702 23.4055 124.733 23.4055C134.764 23.4055 142.891 31.532 142.891 41.5629C142.891 51.5938 134.764 59.7204 124.733 59.7204ZM166.318 184.476C156.287 184.476 148.161 176.349 148.161 166.318C148.161 156.287 156.287 148.161 166.318 148.161C176.349 148.161 184.476 156.287 184.476 166.318C184.476 176.349 176.349 184.476 166.318 184.476ZM166.318 142.891C156.287 142.891 148.161 134.764 148.161 124.733C148.161 114.702 156.287 106.576 166.318 106.576C176.349 106.576 184.476 114.702 184.476 124.733C184.476 134.764 176.349 142.891 166.318 142.891ZM166.318 101.305C156.287 101.305 148.161 93.1789 148.161 83.148C148.161 73.1171 156.287 64.9905 166.318 64.9905C176.349 64.9905 184.476 73.1171 184.476 83.148C184.476 93.1789 176.349 101.305 166.318 101.305ZM166.318 59.7204C156.287 59.7204 148.161 51.5938 148.161 41.5629C148.161 31.532 156.287 23.4055 166.318 23.4055C176.349 23.4055 184.476 31.532 184.476 41.5629C184.476 51.5938 176.349 59.7204 166.318 59.7204Z" fill="#0F0F0F"/>
<path d="M42.409 217.857C43.0756 217.857 43.6356 218.043 44.089 218.417C44.5556 218.79 44.869 219.33 45.029 220.037L45.149 221.057V228.917H41.349V221.737C41.349 221.283 41.289 220.99 41.169 220.857C41.049 220.71 40.9023 220.637 40.729 220.637C40.5156 220.637 40.3023 220.73 40.089 220.917C39.889 221.103 39.7023 221.383 39.529 221.757L39.069 219.677C39.5223 219.05 40.0156 218.59 40.549 218.297C41.0956 218.003 41.7156 217.857 42.409 217.857ZM35.729 218.257H39.049L39.529 220.277V228.917H35.729V218.257ZM48.029 217.857C48.829 217.857 49.4823 218.137 49.989 218.697C50.509 219.243 50.769 220.03 50.769 221.057V228.917H46.969V221.737C46.969 221.283 46.9023 220.99 46.769 220.857C46.649 220.71 46.509 220.637 46.349 220.637C46.1356 220.637 45.9223 220.73 45.709 220.917C45.509 221.103 45.3223 221.383 45.149 221.757L44.669 219.657C45.1356 219.03 45.6356 218.577 46.169 218.297C46.7156 218.003 47.3356 217.857 48.029 217.857ZM62.2263 228.917H58.4263V221.737C58.4263 221.283 58.3663 220.99 58.2463 220.857C58.1263 220.71 57.9596 220.637 57.7463 220.637C57.5063 220.637 57.2663 220.73 57.0263 220.917C56.7863 221.103 56.5463 221.383 56.3063 221.757L55.8463 219.777C56.3796 219.11 56.9196 218.623 57.4663 218.317C58.013 218.01 58.633 217.857 59.3263 217.857C60.233 217.857 60.9396 218.137 61.4463 218.697C61.9663 219.243 62.2263 220.03 62.2263 221.057V228.917ZM56.3063 228.917H52.5063V214.037L56.3063 213.657V228.917ZM67.9911 217.857C68.3378 217.857 68.6711 217.903 68.9911 217.997C69.3111 218.077 69.5978 218.203 69.8511 218.377C70.1178 218.537 70.3578 218.73 70.5711 218.957L70.5911 221.537C70.4311 221.337 70.2778 221.17 70.1311 221.037C69.9845 220.89 69.8245 220.777 69.6511 220.697C69.4778 220.617 69.2845 220.577 69.0711 220.577C68.7778 220.577 68.5045 220.67 68.2511 220.857C68.0111 221.043 67.8178 221.357 67.6711 221.797C67.5245 222.237 67.4511 222.823 67.4511 223.557C67.4511 224.423 67.5178 225.07 67.6511 225.497C67.7845 225.923 67.9578 226.21 68.1711 226.357C68.3845 226.503 68.6178 226.577 68.8711 226.577C69.2045 226.577 69.5111 226.463 69.7911 226.237C70.0711 226.01 70.3245 225.67 70.5511 225.217L70.7711 227.557C70.5045 227.983 70.1178 228.383 69.6111 228.757C69.1045 229.117 68.4378 229.297 67.6111 229.297C66.6911 229.297 65.9311 229.063 65.3311 228.597C64.7311 228.117 64.2845 227.443 63.9911 226.577C63.6978 225.71 63.5511 224.697 63.5511 223.537C63.5511 222.43 63.7378 221.45 64.1111 220.597C64.4845 219.743 65.0045 219.077 65.6711 218.597C66.3378 218.103 67.1111 217.857 67.9911 217.857ZM70.3511 225.837V213.657L74.1511 214.037V228.917H70.7711L70.5911 227.517L70.3511 225.837ZM78.7029 215.017H83.4229L87.5029 228.917H83.3029L81.0029 217.797L78.7229 228.917H74.6029L78.7029 215.017ZM79.5429 223.377H82.4829L83.0429 226.157H78.9629L79.5429 223.377ZM92.1355 217.857C92.9089 217.857 93.6555 217.983 94.3755 218.237C95.0955 218.477 95.7022 218.803 96.1955 219.217L94.8355 221.297C94.4489 221.043 94.0355 220.85 93.5955 220.717C93.1555 220.57 92.7155 220.497 92.2755 220.497C92.0489 220.497 91.8622 220.523 91.7155 220.577C91.5689 220.617 91.4622 220.683 91.3955 220.777C91.3289 220.857 91.2955 220.95 91.2955 221.057C91.2955 221.19 91.3355 221.31 91.4155 221.417C91.4955 221.51 91.6889 221.617 91.9955 221.737C92.3022 221.857 92.7889 222.023 93.4555 222.237C94.1355 222.437 94.7089 222.683 95.1755 222.977C95.6555 223.257 96.0155 223.61 96.2555 224.037C96.4955 224.463 96.6155 225.003 96.6155 225.657C96.6155 226.39 96.4022 227.03 95.9755 227.577C95.5489 228.123 94.9555 228.55 94.1955 228.857C93.4489 229.15 92.5955 229.297 91.6355 229.297C90.7022 229.297 89.8289 229.15 89.0155 228.857C88.2022 228.55 87.5222 228.143 86.9755 227.637L88.7955 225.617C89.1822 225.91 89.6089 226.163 90.0755 226.377C90.5422 226.577 91.0289 226.677 91.5355 226.677C91.9089 226.677 92.2022 226.617 92.4155 226.497C92.6289 226.363 92.7355 226.183 92.7355 225.957C92.7355 225.77 92.6889 225.617 92.5955 225.497C92.5022 225.377 92.3089 225.263 92.0155 225.157C91.7222 225.037 91.2622 224.89 90.6355 224.717C89.6222 224.41 88.8489 223.97 88.3155 223.397C87.7955 222.823 87.5355 222.117 87.5355 221.277C87.5355 220.637 87.7155 220.057 88.0755 219.537C88.4355 219.017 88.9555 218.61 89.6355 218.317C90.3155 218.01 91.1489 217.857 92.1355 217.857ZM107.5 228.917H103.7V221.737C103.7 221.283 103.64 220.99 103.52 220.857C103.4 220.71 103.233 220.637 103.02 220.637C102.78 220.637 102.54 220.73 102.3 220.917C102.06 221.103 101.82 221.383 101.58 221.757L101.12 219.777C101.653 219.11 102.193 218.623 102.74 218.317C103.286 218.01 103.906 217.857 104.6 217.857C105.506 217.857 106.213 218.137 106.72 218.697C107.24 219.243 107.5 220.03 107.5 221.057V228.917ZM101.58 228.917H97.7797V214.037L101.58 213.657V228.917ZM115.585 217.917C115.798 217.917 115.985 217.93 116.145 217.957C116.305 217.983 116.478 218.03 116.665 218.097L116.065 221.757C115.891 221.703 115.725 221.663 115.565 221.637C115.418 221.61 115.258 221.597 115.085 221.597C114.618 221.597 114.245 221.717 113.965 221.957C113.698 222.183 113.491 222.51 113.345 222.937C113.198 223.35 113.071 223.83 112.965 224.377L112.785 220.597C112.971 219.797 113.325 219.15 113.845 218.657C114.365 218.163 114.945 217.917 115.585 217.917ZM109.245 218.257H112.565L112.925 220.557L113.045 223.657V228.917H109.245V218.257ZM121.378 217.857C123.058 217.857 124.265 218.183 124.998 218.837C125.731 219.49 126.098 220.463 126.098 221.757V225.537C126.098 225.91 126.145 226.19 126.238 226.377C126.345 226.55 126.518 226.683 126.758 226.777L125.978 229.237C125.258 229.183 124.658 229.03 124.178 228.777C123.711 228.523 123.331 228.09 123.038 227.477L122.398 226.177V221.977C122.398 221.417 122.278 221.043 122.038 220.857C121.811 220.657 121.398 220.557 120.798 220.557C120.491 220.557 120.085 220.603 119.578 220.697C119.085 220.79 118.571 220.93 118.038 221.117L117.198 218.697C117.865 218.43 118.571 218.223 119.318 218.077C120.078 217.93 120.765 217.857 121.378 217.857ZM121.558 222.277H122.898V224.277H121.898C121.311 224.277 120.871 224.383 120.578 224.597C120.298 224.797 120.158 225.117 120.158 225.557C120.158 225.877 120.245 226.137 120.418 226.337C120.591 226.537 120.825 226.637 121.118 226.637C121.438 226.637 121.725 226.543 121.978 226.357C122.231 226.17 122.418 225.937 122.538 225.657L123.358 227.397C122.985 228.117 122.491 228.617 121.878 228.897C121.265 229.163 120.625 229.297 119.958 229.297C118.891 229.297 118.038 228.983 117.398 228.357C116.758 227.717 116.438 226.903 116.438 225.917C116.438 224.743 116.878 223.843 117.758 223.217C118.638 222.59 119.905 222.277 121.558 222.277ZM132.974 213.657C133.561 213.657 134.127 213.73 134.674 213.877C135.221 214.01 135.687 214.177 136.074 214.377L135.054 216.797C134.774 216.65 134.501 216.55 134.234 216.497C133.967 216.43 133.714 216.397 133.474 216.397C133.087 216.397 132.801 216.497 132.614 216.697C132.441 216.897 132.354 217.25 132.354 217.757V228.917H128.554V217.557C128.554 216.837 128.714 216.183 129.034 215.597C129.354 215.01 129.841 214.543 130.494 214.197C131.161 213.837 131.987 213.657 132.974 213.657ZM127.074 218.257H134.834L134.414 220.837H127.074V218.257ZM141.038 218.257H144.838V228.917H141.518L141.378 227.717C141.005 228.25 140.552 228.65 140.018 228.917C139.485 229.17 138.885 229.297 138.218 229.297C137.192 229.297 136.438 228.99 135.958 228.377C135.478 227.75 135.238 226.93 135.238 225.917V218.257H139.038V225.417C139.038 225.857 139.105 226.157 139.238 226.317C139.372 226.463 139.552 226.537 139.778 226.537C139.992 226.537 140.205 226.463 140.418 226.317C140.645 226.157 140.852 225.91 141.038 225.577V218.257ZM149.866 229.297C148.813 229.297 147.999 229.003 147.426 228.417C146.866 227.83 146.586 226.997 146.586 225.917V214.037L150.386 213.657V225.757C150.386 225.943 150.426 226.083 150.506 226.177C150.586 226.27 150.713 226.317 150.886 226.317C150.979 226.317 151.059 226.31 151.126 226.297C151.193 226.27 151.259 226.25 151.326 226.237L152.006 228.937C151.753 229.03 151.439 229.11 151.066 229.177C150.706 229.257 150.306 229.297 149.866 229.297ZM154.143 225.277C154.703 225.277 155.176 225.477 155.563 225.877C155.949 226.277 156.143 226.75 156.143 227.297C156.143 227.843 155.949 228.317 155.563 228.717C155.176 229.103 154.703 229.297 154.143 229.297C153.583 229.297 153.103 229.103 152.703 228.717C152.316 228.317 152.123 227.843 152.123 227.297C152.123 226.75 152.316 226.277 152.703 225.877C153.103 225.477 153.583 225.277 154.143 225.277ZM40.689 241.857C41.5023 241.857 42.2156 241.977 42.829 242.217C43.4556 242.457 44.0223 242.803 44.529 243.257L42.949 245.477C42.629 245.21 42.309 245.023 41.989 244.917C41.6823 244.797 41.3623 244.737 41.029 244.737C40.4423 244.737 39.9823 244.95 39.649 245.377C39.329 245.79 39.169 246.55 39.169 247.657C39.169 248.377 39.249 248.937 39.409 249.337C39.569 249.737 39.7823 250.01 40.049 250.157C40.329 250.29 40.6423 250.357 40.989 250.357C41.3356 250.357 41.6423 250.303 41.909 250.197C42.189 250.077 42.5156 249.903 42.889 249.677L44.529 251.997C44.0356 252.397 43.4823 252.71 42.869 252.937C42.269 253.177 41.5756 253.297 40.789 253.297C39.629 253.297 38.629 253.063 37.789 252.597C36.9623 252.117 36.3223 251.45 35.869 250.597C35.429 249.743 35.209 248.763 35.209 247.657C35.209 246.523 35.4356 245.523 35.889 244.657C36.3423 243.79 36.9756 243.11 37.789 242.617C38.6156 242.11 39.5823 241.857 40.689 241.857ZM50.024 241.857C51.6906 241.857 53.0106 242.35 53.984 243.337C54.9706 244.323 55.464 245.743 55.464 247.597C55.464 248.757 55.244 249.763 54.804 250.617C54.364 251.457 53.7373 252.117 52.924 252.597C52.1106 253.063 51.144 253.297 50.024 253.297C48.3573 253.297 47.0306 252.803 46.044 251.817C45.0706 250.817 44.584 249.397 44.584 247.557C44.584 246.41 44.804 245.41 45.244 244.557C45.684 243.69 46.3106 243.023 47.124 242.557C47.9373 242.09 48.904 241.857 50.024 241.857ZM50.024 244.597C49.504 244.597 49.1173 244.83 48.864 245.297C48.6106 245.763 48.484 246.517 48.484 247.557C48.484 248.637 48.6106 249.41 48.864 249.877C49.1173 250.343 49.504 250.577 50.024 250.577C50.5573 250.577 50.944 250.343 51.184 249.877C51.4373 249.397 51.564 248.637 51.564 247.597C51.564 246.503 51.4373 245.73 51.184 245.277C50.944 244.823 50.5573 244.597 50.024 244.597ZM63.4636 241.857C64.1303 241.857 64.6903 242.043 65.1436 242.417C65.6103 242.79 65.9236 243.33 66.0836 244.037L66.2036 245.057V252.917H62.4036V245.737C62.4036 245.283 62.3436 244.99 62.2236 244.857C62.1036 244.71 61.957 244.637 61.7836 244.637C61.5703 244.637 61.357 244.73 61.1436 244.917C60.9436 245.103 60.757 245.383 60.5836 245.757L60.1236 243.677C60.577 243.05 61.0703 242.59 61.6036 242.297C62.1503 242.003 62.7703 241.857 63.4636 241.857ZM56.7836 242.257H60.1036L60.5836 244.277V252.917H56.7836V242.257ZM69.0836 241.857C69.8836 241.857 70.537 242.137 71.0436 242.697C71.5636 243.243 71.8236 244.03 71.8236 245.057V252.917H68.0236V245.737C68.0236 245.283 67.957 244.99 67.8236 244.857C67.7036 244.71 67.5636 244.637 67.4036 244.637C67.1903 244.637 66.977 244.73 66.7636 244.917C66.5636 245.103 66.377 245.383 66.2036 245.757L65.7236 243.657C66.1903 243.03 66.6903 242.577 67.2236 242.297C67.7703 242.003 68.3903 241.857 69.0836 241.857Z" fill="black"/>
<path d="M158.789 212.952H154.56V210.716H165.322V212.952H161.114V219.13H158.789V212.952ZM168.842 219.13H166.517V210.738H170.26L173.802 216.96L177.39 210.738H181.132V219.13H178.807V212.908L175.197 219.13H172.452L168.864 212.908V219.13H168.842Z" fill="#0F0F0F"/>
</svg>
