<svg width="34" height="35" viewBox="0 0 34 35" fill="none" xmlns="http://www.w3.org/2000/svg">
<g id="Frame 14">
<g id="Group 6">
<path id="Vector" d="M13.6861 21.8832C13.6861 21.9493 13.6073 22.0023 13.5079 22.0023C13.3948 22.0122 13.3159 21.9593 13.3159 21.8832C13.3159 21.817 13.3948 21.7641 13.4942 21.7641C13.597 21.7541 13.6861 21.8071 13.6861 21.8832ZM12.6202 21.7343C12.5962 21.8005 12.6647 21.8766 12.7675 21.8964C12.8567 21.9295 12.9595 21.8964 12.98 21.8302C13.0006 21.7641 12.9355 21.688 12.8327 21.6582C12.7435 21.635 12.6442 21.6681 12.6202 21.7343ZM14.1351 21.6781C14.0357 21.7012 13.9671 21.7641 13.9774 21.8402C13.9877 21.9063 14.0768 21.9493 14.1796 21.9262C14.279 21.903 14.3476 21.8402 14.3373 21.774C14.327 21.7111 14.2345 21.6681 14.1351 21.6781ZM16.3903 9C11.6365 9 8 12.4838 8 17.0727C8 20.7418 10.3923 23.8815 13.8095 24.9865C14.2482 25.0626 14.4024 24.8012 14.4024 24.5862C14.4024 24.3811 14.3921 23.2496 14.3921 22.5548C14.3921 22.5548 11.9929 23.0511 11.4891 21.5689C11.4891 21.5689 11.0984 20.6061 10.5363 20.358C10.5363 20.358 9.75141 19.8385 10.5911 19.8485C10.5911 19.8485 11.4446 19.9146 11.9141 20.7021C12.6647 21.9791 13.9226 21.6119 14.4127 21.3935C14.4915 20.8642 14.7143 20.4969 14.9611 20.2786C13.0452 20.0734 11.1121 19.8055 11.1121 16.6227C11.1121 15.7129 11.3726 15.2563 11.921 14.674C11.8319 14.459 11.5405 13.5723 12.0101 12.4276C12.7264 12.2125 14.375 13.3209 14.375 13.3209C15.0605 13.1356 15.7974 13.0396 16.5274 13.0396C17.2575 13.0396 17.9944 13.1356 18.6798 13.3209C18.6798 13.3209 20.3284 12.2092 21.0448 12.4276C21.5143 13.5756 21.223 14.459 21.1339 14.674C21.6823 15.2596 22.0181 15.7162 22.0181 16.6227C22.0181 19.8154 19.9994 20.0701 18.0835 20.2786C18.3988 20.5399 18.6661 21.0362 18.6661 21.8137C18.6661 22.9287 18.6558 24.3083 18.6558 24.5796C18.6558 24.7946 18.8135 25.056 19.2488 24.9799C22.6762 23.8815 25 20.7418 25 17.0727C25 12.4838 21.1442 9 16.3903 9ZM11.3315 20.4109C11.2869 20.444 11.2972 20.5201 11.3554 20.5829C11.4103 20.6359 11.4891 20.659 11.5337 20.616C11.5782 20.5829 11.5679 20.5069 11.5097 20.444C11.4548 20.3911 11.376 20.3679 11.3315 20.4109ZM10.9613 20.1429C10.9373 20.1859 10.9716 20.2389 11.0401 20.272C11.095 20.305 11.1635 20.2951 11.1875 20.2488C11.2115 20.2058 11.1772 20.1528 11.1087 20.1198C11.0401 20.0999 10.9853 20.1098 10.9613 20.1429ZM12.0718 21.3207C12.0169 21.3637 12.0375 21.463 12.1163 21.5259C12.1952 21.602 12.2946 21.6119 12.3391 21.5589C12.3837 21.5159 12.3631 21.4167 12.2946 21.3538C12.2192 21.2777 12.1163 21.2678 12.0718 21.3207ZM11.681 20.8344C11.6262 20.8675 11.6262 20.9535 11.681 21.0296C11.7359 21.1057 11.8284 21.1388 11.873 21.1057C11.9278 21.0627 11.9278 20.9767 11.873 20.9006C11.825 20.8245 11.7359 20.7914 11.681 20.8344Z" fill="black"/>
<path id="github" d="M5.336 4.056C5.12 4.056 4.92533 4.00667 4.752 3.908C4.58133 3.80667 4.44533 3.65733 4.344 3.46C4.24533 3.26 4.196 3.00933 4.196 2.708C4.196 2.48667 4.224 2.29067 4.28 2.12C4.33867 1.94667 4.42267 1.8 4.532 1.68C4.644 1.55733 4.78133 1.464 4.944 1.4C5.10667 1.336 5.29467 1.304 5.508 1.304C5.668 1.304 5.81333 1.32267 5.944 1.36C6.07467 1.39733 6.188 1.45067 6.284 1.52C6.38 1.58933 6.45467 1.67333 6.508 1.772C6.564 1.868 6.59467 1.97733 6.6 2.1L6.056 2.268C6.05067 2.156 6.02133 2.064 5.968 1.992C5.91733 1.92 5.84933 1.86667 5.764 1.832C5.68133 1.79467 5.588 1.776 5.484 1.776C5.34 1.776 5.216 1.80933 5.112 1.876C5.01067 1.94 4.93333 2.04 4.88 2.176C4.82667 2.30933 4.8 2.47867 4.8 2.684C4.8 2.84133 4.81467 2.97733 4.844 3.092C4.876 3.204 4.92267 3.29733 4.984 3.372C5.04533 3.44667 5.11867 3.50267 5.204 3.54C5.28933 3.57467 5.388 3.592 5.5 3.592C5.61733 3.592 5.71867 3.57333 5.804 3.536C5.892 3.496 5.96133 3.436 6.012 3.356C6.06533 3.27333 6.09467 3.16933 6.1 3.044H5.6V2.628H6.668V3.112V4H6.268L6.276 3.324H6.204C6.16133 3.484 6.104 3.61867 6.032 3.728C5.96 3.83467 5.86667 3.916 5.752 3.972C5.64 4.028 5.50133 4.056 5.336 4.056ZM9.17481 4V1.36H9.76281V4H9.17481ZM12.9067 4V1.36H13.4827V4H12.9067ZM12.1267 1.844V1.36H14.2627V1.844H12.1267ZM18.3638 4V1.36H18.9358V4H18.3638ZM16.6318 4V1.36H17.2078V4H16.6318ZM16.9718 2.9V2.428H18.5918V2.9H16.9718ZM22.6905 4.056C22.5278 4.056 22.3825 4.03867 22.2545 4.004C22.1291 3.972 22.0198 3.92533 21.9265 3.864C21.8331 3.8 21.7545 3.724 21.6905 3.636C21.6291 3.54533 21.5825 3.444 21.5505 3.332C21.5211 3.22 21.5065 3.09733 21.5065 2.964V1.36H22.0865V2.944C22.0865 3.08 22.1078 3.19333 22.1505 3.284C22.1958 3.372 22.2625 3.43733 22.3505 3.48C22.4385 3.52267 22.5505 3.544 22.6865 3.544C22.8251 3.544 22.9385 3.52267 23.0265 3.48C23.1171 3.43733 23.1838 3.372 23.2265 3.284C23.2718 3.19333 23.2945 3.08 23.2945 2.944V1.36H23.8665V2.964C23.8665 3.31067 23.7678 3.58 23.5705 3.772C23.3758 3.96133 23.0825 4.056 22.6905 4.056ZM26.4326 4V1.36H27.5286C27.6913 1.36 27.8366 1.37467 27.9646 1.404C28.0926 1.43067 28.202 1.472 28.2926 1.528C28.386 1.584 28.4566 1.65733 28.5046 1.748C28.5553 1.836 28.5806 1.94133 28.5806 2.064C28.5806 2.168 28.558 2.25867 28.5126 2.336C28.47 2.41333 28.402 2.476 28.3086 2.524C28.218 2.572 28.098 2.60533 27.9486 2.624V2.684C28.202 2.70267 28.3873 2.76667 28.5046 2.876C28.6246 2.98267 28.6846 3.12667 28.6846 3.308C28.6846 3.46 28.6446 3.588 28.5646 3.692C28.4873 3.79333 28.37 3.87067 28.2126 3.924C28.0553 3.97467 27.8606 4 27.6286 4H26.4326ZM26.9806 3.536H27.6206C27.7913 3.536 27.918 3.51067 28.0006 3.46C28.0833 3.40667 28.1246 3.32533 28.1246 3.216C28.1246 3.09067 28.0726 2.99733 27.9686 2.936C27.8646 2.872 27.7073 2.84 27.4966 2.84H26.9806V3.536ZM26.9806 2.48H27.4126C27.6206 2.48 27.7726 2.452 27.8686 2.396C27.9673 2.33733 28.0166 2.252 28.0166 2.14C28.0166 2.028 27.9726 1.94667 27.8846 1.896C27.7966 1.84267 27.662 1.816 27.4806 1.816H26.9806V2.48Z" fill="black"/>
<path id="github_2" d="M3.056 28.664C3.056 28.88 3.00667 29.0747 2.908 29.248C2.80667 29.4187 2.65733 29.5547 2.46 29.656C2.26 29.7547 2.00933 29.804 1.708 29.804C1.48667 29.804 1.29067 29.776 1.12 29.72C0.946667 29.6613 0.8 29.5773 0.68 29.468C0.557333 29.356 0.464 29.2187 0.4 29.056C0.336 28.8933 0.304 28.7053 0.304 28.492C0.304 28.332 0.322667 28.1867 0.36 28.056C0.397333 27.9253 0.450667 27.812 0.52 27.716C0.589333 27.62 0.673333 27.5453 0.772 27.492C0.868 27.436 0.977333 27.4053 1.1 27.4L1.268 27.944C1.156 27.9493 1.064 27.9787 0.992 28.032C0.92 28.0827 0.866666 28.1507 0.832 28.236C0.794666 28.3187 0.776 28.412 0.776 28.516C0.776 28.66 0.809333 28.784 0.876 28.888C0.94 28.9893 1.04 29.0667 1.176 29.12C1.30933 29.1733 1.47867 29.2 1.684 29.2C1.84133 29.2 1.97733 29.1853 2.092 29.156C2.204 29.124 2.29733 29.0773 2.372 29.016C2.44667 28.9547 2.50267 28.8813 2.54 28.796C2.57467 28.7107 2.592 28.612 2.592 28.5C2.592 28.3827 2.57333 28.2813 2.536 28.196C2.496 28.108 2.436 28.0387 2.356 27.988C2.27333 27.9347 2.16933 27.9053 2.044 27.9V28.4H1.628V27.332H2.112H3V27.732L2.324 27.724V27.796C2.484 27.8387 2.61867 27.896 2.728 27.968C2.83467 28.04 2.916 28.1333 2.972 28.248C3.028 28.36 3.056 28.4987 3.056 28.664ZM3 24.8252H0.36L0.36 24.2372H3V24.8252ZM3 21.0933H0.36V20.5173H3V21.0933ZM0.844 21.8733H0.36L0.36 19.7373H0.844L0.844 21.8733ZM3 15.6362H0.36V15.0642H3V15.6362ZM3 17.3682H0.36V16.7922H3V17.3682ZM1.9 17.0282H1.428V15.4082H1.9V17.0282ZM3.056 11.3095C3.056 11.4722 3.03867 11.6175 3.004 11.7455C2.972 11.8709 2.92533 11.9802 2.864 12.0735C2.8 12.1669 2.724 12.2455 2.636 12.3095C2.54533 12.3709 2.444 12.4175 2.332 12.4495C2.22 12.4789 2.09733 12.4935 1.964 12.4935H0.36V11.9135H1.944C2.08 11.9135 2.19333 11.8922 2.284 11.8495C2.372 11.8042 2.43733 11.7375 2.48 11.6495C2.52267 11.5615 2.544 11.4495 2.544 11.3135C2.544 11.1749 2.52267 11.0615 2.48 10.9735C2.43733 10.8829 2.372 10.8162 2.284 10.7735C2.19333 10.7282 2.08 10.7055 1.944 10.7055H0.36L0.36 10.1335H1.964C2.31067 10.1335 2.58 10.2322 2.772 10.4295C2.96133 10.6242 3.056 10.9175 3.056 11.3095ZM3 7.56737H0.36L0.36 6.47137C0.36 6.30871 0.374667 6.16337 0.404 6.03537C0.430666 5.90737 0.472 5.79804 0.528 5.70737C0.584 5.61404 0.657333 5.54337 0.748 5.49537C0.836 5.44471 0.941333 5.41937 1.064 5.41937C1.168 5.41937 1.25867 5.44204 1.336 5.48737C1.41333 5.53004 1.476 5.59804 1.524 5.69137C1.572 5.78204 1.60533 5.90204 1.624 6.05137H1.684C1.70267 5.79804 1.76667 5.61271 1.876 5.49537C1.98267 5.37537 2.12667 5.31537 2.308 5.31537C2.46 5.31537 2.588 5.35537 2.692 5.43537C2.79333 5.51271 2.87067 5.63004 2.924 5.78737C2.97467 5.94471 3 6.13937 3 6.37137V7.56737ZM2.536 7.01937V6.37937C2.536 6.20871 2.51067 6.08204 2.46 5.99937C2.40667 5.91671 2.32533 5.87537 2.216 5.87537C2.09067 5.87537 1.99733 5.92737 1.936 6.03137C1.872 6.13537 1.84 6.29271 1.84 6.50337V7.01937H2.536ZM1.48 7.01937V6.58737C1.48 6.37937 1.452 6.22737 1.396 6.13137C1.33733 6.03271 1.252 5.98337 1.14 5.98337C1.028 5.98337 0.946667 6.02737 0.896 6.11537C0.842667 6.20337 0.816 6.33804 0.816 6.51937V7.01937H1.48Z" fill="black"/>
<path id="github_3" d="M4.336 34.056C4.12 34.056 3.92533 34.0067 3.752 33.908C3.58133 33.8067 3.44533 33.6573 3.344 33.46C3.24533 33.26 3.196 33.0093 3.196 32.708C3.196 32.4867 3.224 32.2907 3.28 32.12C3.33867 31.9467 3.42267 31.8 3.532 31.68C3.644 31.5573 3.78133 31.464 3.944 31.4C4.10667 31.336 4.29467 31.304 4.508 31.304C4.668 31.304 4.81333 31.3227 4.944 31.36C5.07467 31.3973 5.188 31.4507 5.284 31.52C5.38 31.5893 5.45467 31.6733 5.508 31.772C5.564 31.868 5.59467 31.9773 5.6 32.1L5.056 32.268C5.05067 32.156 5.02133 32.064 4.968 31.992C4.91733 31.92 4.84933 31.8667 4.764 31.832C4.68133 31.7947 4.588 31.776 4.484 31.776C4.34 31.776 4.216 31.8093 4.112 31.876C4.01067 31.94 3.93333 32.04 3.88 32.176C3.82667 32.3093 3.8 32.4787 3.8 32.684C3.8 32.8413 3.81467 32.9773 3.844 33.092C3.876 33.204 3.92267 33.2973 3.984 33.372C4.04533 33.4467 4.11867 33.5027 4.204 33.54C4.28933 33.5747 4.388 33.592 4.5 33.592C4.61733 33.592 4.71867 33.5733 4.804 33.536C4.892 33.496 4.96133 33.436 5.012 33.356C5.06533 33.2733 5.09467 33.1693 5.1 33.044H4.6V32.628H5.668V33.112V34H5.268L5.276 33.324H5.204C5.16133 33.484 5.104 33.6187 5.032 33.728C4.96 33.8347 4.86667 33.916 4.752 33.972C4.64 34.028 4.50133 34.056 4.336 34.056ZM8.17481 34V31.36H8.76281V34H8.17481ZM11.9067 34V31.36H12.4827V34H11.9067ZM11.1267 31.844V31.36H13.2627V31.844H11.1267ZM17.3638 34V31.36H17.9358V34H17.3638ZM15.6318 34V31.36H16.2078V34H15.6318ZM15.9718 32.9V32.428H17.5918V32.9H15.9718ZM21.6905 34.056C21.5278 34.056 21.3825 34.0387 21.2545 34.004C21.1291 33.972 21.0198 33.9253 20.9265 33.864C20.8331 33.8 20.7545 33.724 20.6905 33.636C20.6291 33.5453 20.5825 33.444 20.5505 33.332C20.5211 33.22 20.5065 33.0973 20.5065 32.964V31.36H21.0865V32.944C21.0865 33.08 21.1078 33.1933 21.1505 33.284C21.1958 33.372 21.2625 33.4373 21.3505 33.48C21.4385 33.5227 21.5505 33.544 21.6865 33.544C21.8251 33.544 21.9385 33.5227 22.0265 33.48C22.1171 33.4373 22.1838 33.372 22.2265 33.284C22.2718 33.1933 22.2945 33.08 22.2945 32.944V31.36H22.8665V32.964C22.8665 33.3107 22.7678 33.58 22.5705 33.772C22.3758 33.9613 22.0825 34.056 21.6905 34.056ZM25.4326 34V31.36H26.5286C26.6913 31.36 26.8366 31.3747 26.9646 31.404C27.0926 31.4307 27.202 31.472 27.2926 31.528C27.386 31.584 27.4566 31.6573 27.5046 31.748C27.5553 31.836 27.5806 31.9413 27.5806 32.064C27.5806 32.168 27.558 32.2587 27.5126 32.336C27.47 32.4133 27.402 32.476 27.3086 32.524C27.218 32.572 27.098 32.6053 26.9486 32.624V32.684C27.202 32.7027 27.3873 32.7667 27.5046 32.876C27.6246 32.9827 27.6846 33.1267 27.6846 33.308C27.6846 33.46 27.6446 33.588 27.5646 33.692C27.4873 33.7933 27.37 33.8707 27.2126 33.924C27.0553 33.9747 26.8606 34 26.6286 34H25.4326ZM25.9806 33.536H26.6206C26.7913 33.536 26.918 33.5107 27.0006 33.46C27.0833 33.4067 27.1246 33.3253 27.1246 33.216C27.1246 33.0907 27.0726 32.9973 26.9686 32.936C26.8646 32.872 26.7073 32.84 26.4966 32.84H25.9806V33.536ZM25.9806 32.48H26.4126C26.6206 32.48 26.7726 32.452 26.8686 32.396C26.9673 32.3373 27.0166 32.252 27.0166 32.14C27.0166 32.028 26.9726 31.9467 26.8846 31.896C26.7966 31.8427 26.662 31.816 26.4806 31.816H25.9806V32.48Z" fill="black"/>
<path id="github_4" d="M33.056 28.664C33.056 28.88 33.0067 29.0747 32.908 29.248C32.8067 29.4187 32.6573 29.5547 32.46 29.656C32.26 29.7547 32.0093 29.804 31.708 29.804C31.4867 29.804 31.2907 29.776 31.12 29.72C30.9467 29.6613 30.8 29.5773 30.68 29.468C30.5573 29.356 30.464 29.2187 30.4 29.056C30.336 28.8933 30.304 28.7053 30.304 28.492C30.304 28.332 30.3227 28.1867 30.36 28.056C30.3973 27.9253 30.4507 27.812 30.52 27.716C30.5893 27.62 30.6733 27.5453 30.772 27.492C30.868 27.436 30.9773 27.4053 31.1 27.4L31.268 27.944C31.156 27.9493 31.064 27.9787 30.992 28.032C30.92 28.0827 30.8667 28.1507 30.832 28.236C30.7947 28.3187 30.776 28.412 30.776 28.516C30.776 28.66 30.8093 28.784 30.876 28.888C30.94 28.9893 31.04 29.0667 31.176 29.12C31.3093 29.1733 31.4787 29.2 31.684 29.2C31.8413 29.2 31.9773 29.1853 32.092 29.156C32.204 29.124 32.2973 29.0773 32.372 29.016C32.4467 28.9547 32.5027 28.8813 32.54 28.796C32.5747 28.7107 32.592 28.612 32.592 28.5C32.592 28.3827 32.5733 28.2813 32.536 28.196C32.496 28.108 32.436 28.0387 32.356 27.988C32.2733 27.9347 32.1693 27.9053 32.044 27.9V28.4H31.628V27.332H32.112H33V27.732L32.324 27.724V27.796C32.484 27.8387 32.6187 27.896 32.728 27.968C32.8347 28.04 32.916 28.1333 32.972 28.248C33.028 28.36 33.056 28.4987 33.056 28.664ZM33 24.8252H30.36V24.2372H33V24.8252ZM33 21.0933H30.36V20.5173H33V21.0933ZM30.844 21.8733H30.36V19.7373H30.844V21.8733ZM33 15.6362H30.36V15.0642H33V15.6362ZM33 17.3682H30.36V16.7922H33V17.3682ZM31.9 17.0282H31.428V15.4082H31.9V17.0282ZM33.056 11.3095C33.056 11.4722 33.0387 11.6175 33.004 11.7455C32.972 11.8709 32.9253 11.9802 32.864 12.0735C32.8 12.1669 32.724 12.2455 32.636 12.3095C32.5453 12.3709 32.444 12.4175 32.332 12.4495C32.22 12.4789 32.0973 12.4935 31.964 12.4935H30.36V11.9135H31.944C32.08 11.9135 32.1933 11.8922 32.284 11.8495C32.372 11.8042 32.4373 11.7375 32.48 11.6495C32.5227 11.5615 32.544 11.4495 32.544 11.3135C32.544 11.1749 32.5227 11.0615 32.48 10.9735C32.4373 10.8829 32.372 10.8162 32.284 10.7735C32.1933 10.7282 32.08 10.7055 31.944 10.7055H30.36V10.1335H31.964C32.3107 10.1335 32.58 10.2322 32.772 10.4295C32.9613 10.6242 33.056 10.9175 33.056 11.3095ZM33 7.56737H30.36V6.47137C30.36 6.30871 30.3747 6.16337 30.404 6.03537C30.4307 5.90737 30.472 5.79804 30.528 5.70737C30.584 5.61404 30.6573 5.54337 30.748 5.49537C30.836 5.44471 30.9413 5.41937 31.064 5.41937C31.168 5.41937 31.2587 5.44204 31.336 5.48737C31.4133 5.53004 31.476 5.59804 31.524 5.69137C31.572 5.78204 31.6053 5.90204 31.624 6.05137H31.684C31.7027 5.79804 31.7667 5.61271 31.876 5.49537C31.9827 5.37537 32.1267 5.31537 32.308 5.31537C32.46 5.31537 32.588 5.35537 32.692 5.43537C32.7933 5.51271 32.8707 5.63004 32.924 5.78737C32.9747 5.94471 33 6.13937 33 6.37137V7.56737ZM32.536 7.01937V6.37937C32.536 6.20871 32.5107 6.08204 32.46 5.99937C32.4067 5.91671 32.3253 5.87537 32.216 5.87537C32.0907 5.87537 31.9973 5.92737 31.936 6.03137C31.872 6.13537 31.84 6.29271 31.84 6.50337V7.01937H32.536ZM31.48 7.01937V6.58737C31.48 6.37937 31.452 6.22737 31.396 6.13137C31.3373 6.03271 31.252 5.98337 31.14 5.98337C31.028 5.98337 30.9467 6.02737 30.896 6.11537C30.8427 6.20337 30.816 6.33804 30.816 6.51937V7.01937H31.48Z" fill="black"/>
</g>
</g>
</svg>
