<svg width="34" height="35" viewBox="0 0 34 35" fill="none" xmlns="http://www.w3.org/2000/svg">
<g id="Frame 16">
<g id="Group 8">
<path id="Vector" d="M12.5814 25H9.26429V14.3176H12.5814V25ZM10.9211 12.8604C9.86036 12.8604 9 11.9819 9 10.9211C9 10.4116 9.2024 9.92296 9.56267 9.56268C9.92294 9.2024 10.4116 9 10.9211 9C11.4306 9 11.9192 9.2024 12.2795 9.56268C12.6397 9.92296 12.8421 10.4116 12.8421 10.9211C12.8421 11.9819 11.9814 12.8604 10.9211 12.8604ZM24.9964 25H21.6864V19.7999C21.6864 18.5606 21.6614 16.9712 19.9618 16.9712C18.2371 16.9712 17.9729 18.3177 17.9729 19.7106V25H14.6593V14.3176H17.8407V15.7748H17.8871C18.33 14.9355 19.4118 14.0498 21.0257 14.0498C24.3829 14.0498 25 16.2605 25 19.132V25H24.9964Z" fill="black"/>
<path id="linkedin" d="M5.292 4V1.36H5.868V4H5.292ZM5.412 4V3.516H6.984V4H5.412ZM8.12325 4V1.36H8.71125V4H8.12325ZM10.0951 4V1.36H10.8471L12.0431 3.228H12.0871L12.0511 1.36H12.6111V4H11.9311L10.6671 2.044H10.6231L10.6591 4H10.0951ZM13.9967 4V1.36H14.5727V2.54C14.7087 2.484 14.8354 2.41333 14.9527 2.328C15.0727 2.24 15.1794 2.14267 15.2727 2.036C15.366 1.92933 15.446 1.81867 15.5127 1.704C15.5794 1.58933 15.6274 1.47467 15.6567 1.36H16.3167C16.2794 1.49067 16.222 1.62133 16.1447 1.752C16.07 1.88 15.9807 2.00133 15.8767 2.116C15.7727 2.23067 15.662 2.33333 15.5447 2.424C15.43 2.512 15.314 2.58133 15.1967 2.632V2.692C15.3194 2.692 15.4287 2.70667 15.5247 2.736C15.6234 2.76267 15.71 2.80667 15.7847 2.868C15.862 2.92667 15.93 3 15.9887 3.088C16.0474 3.176 16.0994 3.28133 16.1447 3.404L16.3567 4H15.7047L15.5647 3.52C15.5274 3.38933 15.478 3.28533 15.4167 3.208C15.3554 3.128 15.2767 3.07067 15.1807 3.036C15.0847 2.99867 14.9594 2.98 14.8047 2.98H14.5727V4H13.9967ZM17.5428 4V1.36H18.1228V4H17.5428ZM17.9428 4V3.532H19.5788V4H17.9428ZM17.9428 2.88V2.452H19.3788V2.88H17.9428ZM17.9428 1.824V1.36H19.5708V1.824H17.9428ZM21.1032 4V3.532H21.8712C22.0205 3.532 22.1445 3.5 22.2432 3.436C22.3418 3.36933 22.4165 3.27333 22.4672 3.148C22.5178 3.02267 22.5432 2.86933 22.5432 2.688C22.5432 2.53867 22.5272 2.41067 22.4952 2.304C22.4632 2.19467 22.4152 2.10533 22.3512 2.036C22.2898 1.96667 22.2112 1.91467 22.1152 1.88C22.0218 1.84533 21.9112 1.828 21.7832 1.828H21.1032V1.36H21.7632C22.0832 1.36 22.3445 1.412 22.5472 1.516C22.7498 1.62 22.8992 1.76933 22.9952 1.964C23.0912 2.156 23.1392 2.38667 23.1392 2.656C23.1392 2.85867 23.1152 3.03467 23.0672 3.184C23.0192 3.33333 22.9538 3.46 22.8712 3.564C22.7912 3.668 22.6978 3.752 22.5912 3.816C22.4845 3.88 22.3712 3.92667 22.2512 3.956C22.1312 3.98533 22.0098 4 21.8872 4H21.1032ZM20.8272 4V1.36H21.4032V4H20.8272ZM24.4201 4V1.36H25.0081V4H24.4201ZM26.392 4V1.36H27.144L28.34 3.228H28.384L28.348 1.36H28.908V4H28.228L26.964 2.044H26.92L26.956 4H26.392Z" fill="black"/>
<path id="Linkedin" d="M4 29.708H1.36V29.132H4V29.708ZM4 29.588H3.516V28.016H4V29.588ZM4 26.8768H1.36V26.2887H4V26.8768ZM4 24.9049H1.36L1.36 24.1529L3.228 22.9569V22.9129L1.36 22.9489V22.3889H4L4 23.0689L2.044 24.3329V24.3769L4 24.3409V24.9049ZM4 21.0033H1.36L1.36 20.4273H2.54C2.484 20.2913 2.41333 20.1646 2.328 20.0473C2.24 19.9273 2.14267 19.8206 2.036 19.7273C1.92933 19.634 1.81867 19.554 1.704 19.4873C1.58933 19.4206 1.47467 19.3726 1.36 19.3433V18.6833C1.49067 18.7206 1.62133 18.778 1.752 18.8553C1.88 18.93 2.00133 19.0193 2.116 19.1233C2.23067 19.2273 2.33333 19.338 2.424 19.4553C2.512 19.57 2.58133 19.686 2.632 19.8033H2.692C2.692 19.6806 2.70667 19.5713 2.736 19.4753C2.76267 19.3766 2.80667 19.29 2.868 19.2153C2.92667 19.138 3 19.07 3.088 19.0113C3.176 18.9526 3.28133 18.9006 3.404 18.8553L4 18.6433V19.2953L3.52 19.4353C3.38933 19.4726 3.28533 19.522 3.208 19.5833C3.128 19.6446 3.07067 19.7233 3.036 19.8193C2.99867 19.9153 2.98 20.0406 2.98 20.1953V20.4273H4V21.0033ZM4 17.4572H1.36L1.36 16.8772H4V17.4572ZM4 17.0572H3.532V15.4212H4V17.0572ZM2.88 17.0572H2.452V15.6212H2.88V17.0572ZM1.824 17.0572H1.36V15.4292H1.824V17.0572ZM4 13.8968H3.532V13.1288C3.532 12.9795 3.5 12.8555 3.436 12.7568C3.36933 12.6582 3.27333 12.5835 3.148 12.5328C3.02267 12.4822 2.86933 12.4568 2.688 12.4568C2.53867 12.4568 2.41067 12.4728 2.304 12.5048C2.19467 12.5368 2.10533 12.5848 2.036 12.6488C1.96667 12.7102 1.91467 12.7888 1.88 12.8848C1.84533 12.9782 1.828 13.0888 1.828 13.2168L1.828 13.8968H1.36L1.36 13.2368C1.36 12.9168 1.412 12.6555 1.516 12.4528C1.62 12.2502 1.76933 12.1008 1.964 12.0048C2.156 11.9088 2.38667 11.8608 2.656 11.8608C2.85867 11.8608 3.03467 11.8848 3.184 11.9328C3.33333 11.9808 3.46 12.0462 3.564 12.1288C3.668 12.2088 3.752 12.3022 3.816 12.4088C3.88 12.5155 3.92667 12.6288 3.956 12.7488C3.98533 12.8688 4 12.9902 4 13.1128V13.8968ZM4 14.1728H1.36L1.36 13.5968H4V14.1728ZM4 10.5799H1.36L1.36 9.99188H4V10.5799ZM4 8.608H1.36V7.856L3.228 6.66V6.616L1.36 6.652L1.36 6.092H4V6.772L2.044 8.036V8.08L4 8.044L4 8.608Z" fill="black"/>
<path id="linkedin_2" d="M5.292 34V31.36H5.868V34H5.292ZM5.412 34V33.516H6.984V34H5.412ZM8.12325 34V31.36H8.71125V34H8.12325ZM10.0951 34V31.36H10.8471L12.0431 33.228H12.0871L12.0511 31.36H12.6111V34H11.9311L10.6671 32.044H10.6231L10.6591 34H10.0951ZM13.9967 34V31.36H14.5727V32.54C14.7087 32.484 14.8354 32.4133 14.9527 32.328C15.0727 32.24 15.1794 32.1427 15.2727 32.036C15.366 31.9293 15.446 31.8187 15.5127 31.704C15.5794 31.5893 15.6274 31.4747 15.6567 31.36H16.3167C16.2794 31.4907 16.222 31.6213 16.1447 31.752C16.07 31.88 15.9807 32.0013 15.8767 32.116C15.7727 32.2307 15.662 32.3333 15.5447 32.424C15.43 32.512 15.314 32.5813 15.1967 32.632V32.692C15.3194 32.692 15.4287 32.7067 15.5247 32.736C15.6234 32.7627 15.71 32.8067 15.7847 32.868C15.862 32.9267 15.93 33 15.9887 33.088C16.0474 33.176 16.0994 33.2813 16.1447 33.404L16.3567 34H15.7047L15.5647 33.52C15.5274 33.3893 15.478 33.2853 15.4167 33.208C15.3554 33.128 15.2767 33.0707 15.1807 33.036C15.0847 32.9987 14.9594 32.98 14.8047 32.98H14.5727V34H13.9967ZM17.5428 34V31.36H18.1228V34H17.5428ZM17.9428 34V33.532H19.5788V34H17.9428ZM17.9428 32.88V32.452H19.3788V32.88H17.9428ZM17.9428 31.824V31.36H19.5708V31.824H17.9428ZM21.1032 34V33.532H21.8712C22.0205 33.532 22.1445 33.5 22.2432 33.436C22.3418 33.3693 22.4165 33.2733 22.4672 33.148C22.5178 33.0227 22.5432 32.8693 22.5432 32.688C22.5432 32.5387 22.5272 32.4107 22.4952 32.304C22.4632 32.1947 22.4152 32.1053 22.3512 32.036C22.2898 31.9667 22.2112 31.9147 22.1152 31.88C22.0218 31.8453 21.9112 31.828 21.7832 31.828H21.1032V31.36H21.7632C22.0832 31.36 22.3445 31.412 22.5472 31.516C22.7498 31.62 22.8992 31.7693 22.9952 31.964C23.0912 32.156 23.1392 32.3867 23.1392 32.656C23.1392 32.8587 23.1152 33.0347 23.0672 33.184C23.0192 33.3333 22.9538 33.46 22.8712 33.564C22.7912 33.668 22.6978 33.752 22.5912 33.816C22.4845 33.88 22.3712 33.9267 22.2512 33.956C22.1312 33.9853 22.0098 34 21.8872 34H21.1032ZM20.8272 34V31.36H21.4032V34H20.8272ZM24.4201 34V31.36H25.0081V34H24.4201ZM26.392 34V31.36H27.144L28.34 33.228H28.384L28.348 31.36H28.908V34H28.228L26.964 32.044H26.92L26.956 34H26.392Z" fill="black"/>
<path id="linkedin_3" d="M33 29.708H30.36V29.132H33V29.708ZM33 29.588H32.516V28.016H33V29.588ZM33 26.8768H30.36V26.2887H33V26.8768ZM33 24.9049H30.36V24.1529L32.228 22.9569V22.9129L30.36 22.9489V22.3889H33V23.0689L31.044 24.3329V24.3769L33 24.3409V24.9049ZM33 21.0033H30.36V20.4273H31.54C31.484 20.2913 31.4133 20.1646 31.328 20.0473C31.24 19.9273 31.1427 19.8206 31.036 19.7273C30.9293 19.634 30.8187 19.554 30.704 19.4873C30.5893 19.4206 30.4747 19.3726 30.36 19.3433V18.6833C30.4907 18.7206 30.6213 18.778 30.752 18.8553C30.88 18.93 31.0013 19.0193 31.116 19.1233C31.2307 19.2273 31.3333 19.338 31.424 19.4553C31.512 19.57 31.5813 19.686 31.632 19.8033H31.692C31.692 19.6806 31.7067 19.5713 31.736 19.4753C31.7627 19.3766 31.8067 19.29 31.868 19.2153C31.9267 19.138 32 19.07 32.088 19.0113C32.176 18.9526 32.2813 18.9006 32.404 18.8553L33 18.6433V19.2953L32.52 19.4353C32.3893 19.4726 32.2853 19.522 32.208 19.5833C32.128 19.6446 32.0707 19.7233 32.036 19.8193C31.9987 19.9153 31.98 20.0406 31.98 20.1953V20.4273H33V21.0033ZM33 17.4572H30.36V16.8772H33V17.4572ZM33 17.0572H32.532V15.4212H33V17.0572ZM31.88 17.0572H31.452V15.6212H31.88V17.0572ZM30.824 17.0572H30.36V15.4292H30.824V17.0572ZM33 13.8968H32.532V13.1288C32.532 12.9795 32.5 12.8555 32.436 12.7568C32.3693 12.6582 32.2733 12.5835 32.148 12.5328C32.0227 12.4822 31.8693 12.4568 31.688 12.4568C31.5387 12.4568 31.4107 12.4728 31.304 12.5048C31.1947 12.5368 31.1053 12.5848 31.036 12.6488C30.9667 12.7102 30.9147 12.7888 30.88 12.8848C30.8453 12.9782 30.828 13.0888 30.828 13.2168V13.8968H30.36V13.2368C30.36 12.9168 30.412 12.6555 30.516 12.4528C30.62 12.2502 30.7693 12.1008 30.964 12.0048C31.156 11.9088 31.3867 11.8608 31.656 11.8608C31.8587 11.8608 32.0347 11.8848 32.184 11.9328C32.3333 11.9808 32.46 12.0462 32.564 12.1288C32.668 12.2088 32.752 12.3022 32.816 12.4088C32.88 12.5155 32.9267 12.6288 32.956 12.7488C32.9853 12.8688 33 12.9902 33 13.1128V13.8968ZM33 14.1728H30.36V13.5968H33V14.1728ZM33 10.5799H30.36V9.99188H33V10.5799ZM33 8.608H30.36V7.856L32.228 6.66V6.616L30.36 6.652V6.092H33V6.772L31.044 8.036V8.08L33 8.044V8.608Z" fill="black"/>
</g>
</g>
</svg>
