<svg width="35" height="35" viewBox="0 0 35 35" fill="none" xmlns="http://www.w3.org/2000/svg">
<g id="Frame 15">
<g id="Group 7">
<path id="Vector" d="M21.5997 9H24.0543L18.6932 15.7769L25 25H20.063L16.1934 19.4077L11.771 25H9.31291L15.0461 17.75L9 9H14.0621L17.5563 14.1115L21.5997 9ZM20.7375 23.3769H22.0969L13.3216 10.5385H11.8614L20.7375 23.3769Z" fill="black"/>
<path id="TWITTER" d="M5.852 4V1.36H6.428V4H5.852ZM5.072 1.844V1.36H7.208V1.844H5.072ZM9.27863 4L8.68263 1.36H9.31063L9.70263 3.508H9.74663L10.2106 1.36H10.9426L11.4066 3.508H11.4546L11.8466 1.36H12.4426L11.8386 4H11.0346L10.5866 1.852H10.5506L10.1026 4H9.27863ZM14.0279 4V1.36H14.6159V4H14.0279ZM16.9598 4V1.36H17.5358V4H16.9598ZM16.1798 1.844V1.36H18.3158V1.844H16.1798ZM20.5973 4V1.36H21.1733V4H20.5973ZM19.8173 1.844V1.36H21.9533V1.844H19.8173ZM23.5225 4V1.36H24.1025V4H23.5225ZM23.9225 4V3.532H25.5585V4H23.9225ZM23.9225 2.88V2.452H25.3585V2.88H23.9225ZM23.9225 1.824V1.36H25.5505V1.824H23.9225ZM27.2068 4V1.36H28.2788C28.4228 1.36 28.5535 1.372 28.6708 1.396C28.7882 1.41733 28.8922 1.44933 28.9828 1.492C29.0735 1.53467 29.1495 1.588 29.2108 1.652C29.2748 1.71333 29.3228 1.78533 29.3548 1.868C29.3868 1.948 29.4028 2.03733 29.4028 2.136C29.4028 2.22933 29.3882 2.31467 29.3588 2.392C29.3295 2.46667 29.2855 2.532 29.2268 2.588C29.1682 2.644 29.0948 2.69067 29.0068 2.728C28.9188 2.76267 28.8162 2.78667 28.6988 2.8V2.86C28.8348 2.87333 28.9428 2.90533 29.0228 2.956C29.1055 3.004 29.1695 3.06933 29.2148 3.152C29.2628 3.23467 29.3042 3.33733 29.3388 3.46L29.4988 4H28.8628L28.7388 3.5C28.7148 3.39333 28.6802 3.31067 28.6348 3.252C28.5895 3.19067 28.5322 3.148 28.4628 3.124C28.3935 3.09733 28.3095 3.084 28.2108 3.084H27.7828V4H27.2068ZM27.7828 2.652H28.2388C28.4202 2.652 28.5602 2.61733 28.6588 2.548C28.7575 2.47867 28.8068 2.37067 28.8068 2.224C28.8068 2.08 28.7602 1.97467 28.6668 1.908C28.5762 1.83867 28.4388 1.804 28.2548 1.804H27.7828V2.652Z" fill="black"/>
<path id="TWITTER_2" d="M4 29.148H1.36V28.572H4V29.148ZM1.844 29.928H1.36L1.36 27.792H1.844L1.844 29.928ZM4 25.7214L1.36 26.3174V25.6894L3.508 25.2974V25.2534L1.36 24.7894L1.36 24.0574L3.508 23.5934V23.5454L1.36 23.1534V22.5574L4 23.1614V23.9654L1.852 24.4134V24.4494L4 24.8974V25.7214ZM4 20.9721H1.36L1.36 20.3841H4V20.9721ZM4 18.0402H1.36V17.4642H4V18.0402ZM1.844 18.8202H1.36L1.36 16.6842H1.844L1.844 18.8202ZM4 14.4027H1.36V13.8267H4V14.4027ZM1.844 15.1827H1.36L1.36 13.0467H1.844L1.844 15.1827ZM4 11.4775H1.36V10.8975H4V11.4775ZM4 11.0775H3.532V9.44153H4V11.0775ZM2.88 11.0775H2.452V9.64153H2.88V11.0775ZM1.824 11.0775H1.36L1.36 9.44953H1.824L1.824 11.0775ZM4 7.79316H1.36V6.72116C1.36 6.57716 1.372 6.44649 1.396 6.32916C1.41733 6.21182 1.44933 6.10782 1.492 6.01716C1.53467 5.92649 1.588 5.85049 1.652 5.78916C1.71333 5.72516 1.78533 5.67716 1.868 5.64516C1.948 5.61316 2.03733 5.59716 2.136 5.59716C2.22933 5.59716 2.31467 5.61182 2.392 5.64116C2.46667 5.67049 2.532 5.71449 2.588 5.77316C2.644 5.83182 2.69067 5.90516 2.728 5.99316C2.76267 6.08116 2.78667 6.18382 2.8 6.30116H2.86C2.87333 6.16516 2.90533 6.05716 2.956 5.97716C3.004 5.89449 3.06933 5.83049 3.152 5.78516C3.23467 5.73716 3.33733 5.69582 3.46 5.66116L4 5.50116V6.13716L3.5 6.26116C3.39333 6.28516 3.31067 6.31982 3.252 6.36516C3.19067 6.41049 3.148 6.46782 3.124 6.53716C3.09733 6.60649 3.084 6.69049 3.084 6.78916V7.21716H4V7.79316ZM2.652 7.21716V6.76116C2.652 6.57982 2.61733 6.43982 2.548 6.34116C2.47867 6.24249 2.37067 6.19316 2.224 6.19316C2.08 6.19316 1.97467 6.23982 1.908 6.33316C1.83867 6.42382 1.804 6.56116 1.804 6.74516V7.21716H2.652Z" fill="black"/>
<path id="TWITTER_3" d="M5.852 34V31.36H6.428V34H5.852ZM5.072 31.844V31.36H7.208V31.844H5.072ZM9.27863 34L8.68263 31.36H9.31063L9.70263 33.508H9.74663L10.2106 31.36H10.9426L11.4066 33.508H11.4546L11.8466 31.36H12.4426L11.8386 34H11.0346L10.5866 31.852H10.5506L10.1026 34H9.27863ZM14.0279 34V31.36H14.6159V34H14.0279ZM16.9598 34V31.36H17.5358V34H16.9598ZM16.1798 31.844V31.36H18.3158V31.844H16.1798ZM20.5973 34V31.36H21.1733V34H20.5973ZM19.8173 31.844V31.36H21.9533V31.844H19.8173ZM23.5225 34V31.36H24.1025V34H23.5225ZM23.9225 34V33.532H25.5585V34H23.9225ZM23.9225 32.88V32.452H25.3585V32.88H23.9225ZM23.9225 31.824V31.36H25.5505V31.824H23.9225ZM27.2068 34V31.36H28.2788C28.4228 31.36 28.5535 31.372 28.6708 31.396C28.7882 31.4173 28.8922 31.4493 28.9828 31.492C29.0735 31.5347 29.1495 31.588 29.2108 31.652C29.2748 31.7133 29.3228 31.7853 29.3548 31.868C29.3868 31.948 29.4028 32.0373 29.4028 32.136C29.4028 32.2293 29.3882 32.3147 29.3588 32.392C29.3295 32.4667 29.2855 32.532 29.2268 32.588C29.1682 32.644 29.0948 32.6907 29.0068 32.728C28.9188 32.7627 28.8162 32.7867 28.6988 32.8V32.86C28.8348 32.8733 28.9428 32.9053 29.0228 32.956C29.1055 33.004 29.1695 33.0693 29.2148 33.152C29.2628 33.2347 29.3042 33.3373 29.3388 33.46L29.4988 34H28.8628L28.7388 33.5C28.7148 33.3933 28.6802 33.3107 28.6348 33.252C28.5895 33.1907 28.5322 33.148 28.4628 33.124C28.3935 33.0973 28.3095 33.084 28.2108 33.084H27.7828V34H27.2068ZM27.7828 32.652H28.2388C28.4202 32.652 28.5602 32.6173 28.6588 32.548C28.7575 32.4787 28.8068 32.3707 28.8068 32.224C28.8068 32.08 28.7602 31.9747 28.6668 31.908C28.5762 31.8387 28.4388 31.804 28.2548 31.804H27.7828V32.652Z" fill="black"/>
<path id="TWITTER_4" d="M33 29.148H30.36V28.572H33V29.148ZM30.844 29.928H30.36V27.792H30.844V29.928ZM33 25.7214L30.36 26.3174V25.6894L32.508 25.2974V25.2534L30.36 24.7894V24.0574L32.508 23.5934V23.5454L30.36 23.1534V22.5574L33 23.1614V23.9654L30.852 24.4134V24.4494L33 24.8974V25.7214ZM33 20.9721H30.36V20.3841H33V20.9721ZM33 18.0402H30.36V17.4642H33V18.0402ZM30.844 18.8202H30.36V16.6842H30.844V18.8202ZM33 14.4027H30.36V13.8267H33V14.4027ZM30.844 15.1827H30.36V13.0467H30.844V15.1827ZM33 11.4775H30.36V10.8975H33V11.4775ZM33 11.0775H32.532V9.44153H33V11.0775ZM31.88 11.0775H31.452V9.64153H31.88V11.0775ZM30.824 11.0775H30.36V9.44953H30.824V11.0775ZM33 7.79316H30.36V6.72116C30.36 6.57716 30.372 6.44649 30.396 6.32916C30.4173 6.21182 30.4493 6.10782 30.492 6.01716C30.5347 5.92649 30.588 5.85049 30.652 5.78916C30.7133 5.72516 30.7853 5.67716 30.868 5.64516C30.948 5.61316 31.0373 5.59716 31.136 5.59716C31.2293 5.59716 31.3147 5.61182 31.392 5.64116C31.4667 5.67049 31.532 5.71449 31.588 5.77316C31.644 5.83182 31.6907 5.90516 31.728 5.99316C31.7627 6.08116 31.7867 6.18382 31.8 6.30116H31.86C31.8733 6.16516 31.9053 6.05716 31.956 5.97716C32.004 5.89449 32.0693 5.83049 32.152 5.78516C32.2347 5.73716 32.3373 5.69582 32.46 5.66116L33 5.50116V6.13716L32.5 6.26116C32.3933 6.28516 32.3107 6.31982 32.252 6.36516C32.1907 6.41049 32.148 6.46782 32.124 6.53716C32.0973 6.60649 32.084 6.69049 32.084 6.78916V7.21716H33V7.79316ZM31.652 7.21716V6.76116C31.652 6.57982 31.6173 6.43982 31.548 6.34116C31.4787 6.24249 31.3707 6.19316 31.224 6.19316C31.08 6.19316 30.9747 6.23982 30.908 6.33316C30.8387 6.42382 30.804 6.56116 30.804 6.74516V7.21716H31.652Z" fill="black"/>
</g>
</g>
</svg>
