<svg width="152" height="130" viewBox="0 0 152 130" fill="none" xmlns="http://www.w3.org/2000/svg">
<g id="budgetcard1">
<rect id="outer" x="0.5" y="0.5" width="151" height="129" rx="10.5" fill="#FFFFF1" stroke="#C6C6C6"/>
<g id="inner">
<circle id="fillable" cx="23" cy="23" r="12.75" stroke="#C6C6C6" stroke-width="0.5"/>
<path id="Vector" d="M23.7829 30.9593C19.3767 31.4013 15.443 28.1953 15 23.7988H20.5757V25.0011C20.5757 25.2191 20.7529 25.4018 20.9773 25.4018H24.9878C25.2063 25.4018 25.3894 25.225 25.3894 25.0011V20.9995C25.3894 20.7814 25.2122 20.5987 24.9878 20.5987H20.9773C20.7588 20.5987 20.5757 20.7755 20.5757 20.9995V22.2017H15C15.4135 18.1117 18.8628 15 22.9796 15C27.0964 15 30.5457 18.1117 30.9592 22.2017C31.4022 26.5923 28.1891 30.5173 23.7829 30.9593Z" fill="black"/>
<path id="Uber Inc." d="M16.132 78.84C16.292 78.424 16.372 77.992 16.372 77.544V72.6H17.356V77.556C17.356 78.116 17.244 78.672 17.02 79.224C16.804 79.768 16.452 80.224 15.964 80.592C15.476 80.96 14.856 81.144 14.104 81.144C13.344 81.144 12.72 80.96 12.232 80.592C11.752 80.216 11.4 79.756 11.176 79.212C10.96 78.66 10.852 78.108 10.852 77.556V72.6H11.836V77.544C11.836 77.992 11.916 78.424 12.076 78.84C12.236 79.256 12.484 79.596 12.82 79.86C13.164 80.124 13.592 80.256 14.104 80.256C14.616 80.256 15.04 80.124 15.376 79.86C15.72 79.596 15.972 79.256 16.132 78.84ZM22.2591 80.256C22.8431 80.256 23.2991 80.052 23.6271 79.644C23.9551 79.236 24.1191 78.712 24.1191 78.072C24.1191 77.44 23.9551 76.92 23.6271 76.512C23.2991 76.096 22.8431 75.888 22.2591 75.888C21.8751 75.888 21.5391 75.984 21.2511 76.176C20.9711 76.368 20.7551 76.632 20.6031 76.968C20.4591 77.296 20.3871 77.664 20.3871 78.072C20.3871 78.704 20.5511 79.228 20.8791 79.644C21.2151 80.052 21.6751 80.256 22.2591 80.256ZM22.5231 75C23.0911 75 23.5671 75.148 23.9511 75.444C24.3431 75.732 24.6311 76.108 24.8151 76.572C25.0071 77.036 25.1031 77.536 25.1031 78.072C25.1031 78.608 25.0111 79.108 24.8271 79.572C24.6431 80.036 24.3551 80.416 23.9631 80.712C23.5791 81 23.1071 81.144 22.5471 81.144C21.9791 81.144 21.5191 81.016 21.1671 80.76C20.8231 80.496 20.5591 80.152 20.3751 79.728H20.2191C20.3311 80.12 20.3871 80.504 20.3871 80.88V81H19.4031V72.6H20.3871V75.024C20.3871 75.52 20.3311 75.988 20.2191 76.428H20.3751C20.3991 76.38 20.4311 76.316 20.4711 76.236C20.6631 75.86 20.9271 75.56 21.2631 75.336C21.5991 75.112 22.0191 75 22.5231 75ZM29.2466 75.816C28.8626 75.816 28.5386 75.904 28.2746 76.08C28.0106 76.256 27.8066 76.484 27.6626 76.764C27.5186 77.044 27.4306 77.34 27.3986 77.652H31.1066C31.0826 77.364 30.9986 77.08 30.8546 76.8C30.7106 76.52 30.5026 76.288 30.2306 76.104C29.9586 75.912 29.6306 75.816 29.2466 75.816ZM27.3746 78.276C27.3906 78.612 27.4586 78.936 27.5786 79.248C27.7066 79.552 27.9066 79.808 28.1786 80.016C28.4586 80.224 28.8146 80.328 29.2466 80.328C29.7026 80.328 30.0706 80.216 30.3506 79.992C30.6386 79.768 30.8506 79.448 30.9866 79.032H31.9466C31.8026 79.616 31.5146 80.116 31.0826 80.532C30.6506 80.94 30.0426 81.144 29.2586 81.144C28.6186 81.144 28.0866 80.996 27.6626 80.7C27.2466 80.396 26.9386 80.008 26.7386 79.536C26.5466 79.064 26.4506 78.572 26.4506 78.06C26.4506 77.548 26.5466 77.06 26.7386 76.596C26.9386 76.132 27.2466 75.752 27.6626 75.456C28.0866 75.152 28.6186 75 29.2586 75C29.8906 75 30.4186 75.148 30.8426 75.444C31.2746 75.74 31.5906 76.136 31.7906 76.632C31.9906 77.128 32.0786 77.676 32.0546 78.276H27.3746ZM36.0296 75.396C36.3496 75.236 36.7176 75.152 37.1336 75.144V76.032C36.6136 76.032 36.1816 76.152 35.8376 76.392C35.4936 76.624 35.2416 76.924 35.0816 77.292C34.9296 77.66 34.8536 78.052 34.8536 78.468V81H33.8696V76.2C33.8696 76.144 33.8536 76.104 33.8216 76.08C33.7976 76.048 33.7576 76.032 33.7016 76.032H33.1136V75.144H34.3016C34.4296 75.144 34.5376 75.184 34.6256 75.264C34.7136 75.336 34.7576 75.432 34.7576 75.552C34.7576 75.856 34.7016 76.332 34.5896 76.98H34.7576C34.8616 76.612 35.0176 76.296 35.2256 76.032C35.4416 75.76 35.7096 75.548 36.0296 75.396ZM43.5466 72.6V81H42.5626V72.6H43.5466ZM50.9179 76.536C51.0459 76.888 51.1099 77.256 51.1099 77.64V81H50.1259V77.748C50.1259 77.212 50.0219 76.776 49.8139 76.44C49.6059 76.104 49.2699 75.9 48.8059 75.828C48.4299 75.764 48.0979 75.804 47.8099 75.948C47.5219 76.084 47.2899 76.3 47.1139 76.596C46.9459 76.892 46.8339 77.24 46.7779 77.64C46.7219 78.112 46.6939 78.596 46.6939 79.092V81H45.7099V75.144H46.6939V75.576C46.6939 75.768 46.6699 75.984 46.6219 76.224C46.5819 76.456 46.5299 76.672 46.4659 76.872H46.6339C46.7379 76.416 46.9259 76.036 47.1979 75.732C47.4699 75.42 47.7979 75.204 48.1819 75.084C48.5659 74.964 48.9699 74.956 49.3939 75.06C49.7779 75.156 50.0979 75.336 50.3539 75.6C50.6099 75.864 50.7979 76.176 50.9179 76.536ZM56.5023 79.956C56.7663 79.756 56.9623 79.5 57.0903 79.188H58.1343C57.9663 79.756 57.6623 80.224 57.2223 80.592C56.7903 80.96 56.2183 81.144 55.5063 81.144C54.8583 81.144 54.3223 80.996 53.8983 80.7C53.4823 80.396 53.1783 80.008 52.9863 79.536C52.7943 79.064 52.6983 78.572 52.6983 78.06C52.6983 77.556 52.7943 77.072 52.9863 76.608C53.1783 76.136 53.4823 75.752 53.8983 75.456C54.3223 75.152 54.8583 75 55.5063 75C55.9863 75 56.4063 75.092 56.7663 75.276C57.1343 75.452 57.4263 75.688 57.6423 75.984C57.8663 76.28 58.0303 76.608 58.1343 76.968H57.1023C56.9663 76.656 56.7663 76.4 56.5023 76.2C56.2383 75.992 55.9063 75.888 55.5063 75.888C55.0903 75.888 54.7423 75.996 54.4623 76.212C54.1903 76.428 53.9903 76.704 53.8623 77.04C53.7423 77.368 53.6823 77.708 53.6823 78.06C53.6823 78.428 53.7423 78.78 53.8623 79.116C53.9903 79.444 54.1903 79.716 54.4623 79.932C54.7343 80.148 55.0823 80.256 55.5063 80.256C55.9063 80.256 56.2383 80.156 56.5023 79.956ZM60.0551 81.144C59.8871 81.144 59.7391 81.088 59.6111 80.976C59.4911 80.856 59.4311 80.712 59.4311 80.544C59.4311 80.376 59.4911 80.236 59.6111 80.124C59.7391 80.004 59.8871 79.944 60.0551 79.944C60.1591 79.944 60.2551 79.972 60.3431 80.028C60.4391 80.084 60.5151 80.156 60.5711 80.244C60.6351 80.332 60.6671 80.432 60.6671 80.544C60.6671 80.712 60.6031 80.856 60.4751 80.976C60.3551 81.088 60.2151 81.144 60.0551 81.144Z" fill="#A3A3A3"/>
<path id="-$34.89" d="M18.24 103V104.36H11.32V103H18.24ZM25.5708 110.96V93.02H26.9708V110.96H25.5708ZM30.5508 102.92C31.0574 103.453 31.3108 104.167 31.3108 105.06C31.3108 105.767 31.1308 106.44 30.7708 107.08C30.4108 107.707 29.8441 108.227 29.0708 108.64C28.2974 109.04 27.3241 109.24 26.1508 109.24C24.9774 109.24 24.0041 109.033 23.2308 108.62C22.4574 108.193 21.8908 107.653 21.5308 107C21.1708 106.333 20.9908 105.647 20.9908 104.94H22.6308C22.6308 105.407 22.7508 105.853 22.9908 106.28C23.2441 106.707 23.6374 107.06 24.1708 107.34C24.7041 107.62 25.3641 107.76 26.1508 107.76C26.9508 107.76 27.6108 107.633 28.1308 107.38C28.6641 107.113 29.0508 106.773 29.2908 106.36C29.5441 105.947 29.6708 105.513 29.6708 105.06C29.6708 104.567 29.5108 104.167 29.1908 103.86C28.8841 103.54 28.4974 103.293 28.0308 103.12C27.5774 102.947 27.0308 102.8 26.3908 102.68C26.2041 102.64 26.0041 102.6 25.7908 102.56L25.4908 102.5C24.6774 102.34 23.9708 102.14 23.3708 101.9C22.7708 101.66 22.2574 101.287 21.8308 100.78C21.4174 100.273 21.2108 99.5933 21.2108 98.74C21.2108 98.0733 21.3841 97.44 21.7308 96.84C22.0774 96.24 22.6241 95.7467 23.3708 95.36C24.1174 94.96 25.0574 94.76 26.1908 94.76C27.3374 94.76 28.2841 94.96 29.0308 95.36C29.7908 95.7467 30.3441 96.24 30.6908 96.84C31.0374 97.44 31.2108 98.0733 31.2108 98.74V98.9H29.5708V98.74C29.5708 98.3267 29.4508 97.9333 29.2108 97.56C28.9841 97.1733 28.6174 96.86 28.1108 96.62C27.6041 96.3667 26.9641 96.24 26.1908 96.24C25.4441 96.24 24.8174 96.3667 24.3108 96.62C23.8041 96.86 23.4308 97.1733 23.1908 97.56C22.9641 97.9333 22.8508 98.3267 22.8508 98.74C22.8508 99.2333 22.9774 99.6333 23.2308 99.94C23.4841 100.247 23.8041 100.48 24.1908 100.64C24.5908 100.787 25.0908 100.913 25.6908 101.02L26.0308 101.08H26.0708C27.1108 101.267 27.9908 101.487 28.7108 101.74C29.4308 101.98 30.0441 102.373 30.5508 102.92ZM43.0077 102.72C43.381 103.293 43.5677 104 43.5677 104.84C43.5677 105.733 43.3477 106.513 42.9077 107.18C42.481 107.847 41.8943 108.36 41.1477 108.72C40.401 109.067 39.5543 109.24 38.6077 109.24C37.661 109.24 36.8143 109.067 36.0677 108.72C35.321 108.373 34.7277 107.88 34.2877 107.24C33.861 106.587 33.6477 105.833 33.6477 104.98C33.6477 104.913 33.6477 104.853 33.6477 104.8H35.2877C35.2877 104.853 35.2877 104.913 35.2877 104.98C35.2877 105.567 35.4343 106.073 35.7277 106.5C36.0343 106.913 36.441 107.227 36.9477 107.44C37.4543 107.653 38.0077 107.76 38.6077 107.76C39.2077 107.76 39.761 107.653 40.2677 107.44C40.7743 107.213 41.1743 106.873 41.4677 106.42C41.7743 105.953 41.9277 105.373 41.9277 104.68C41.9277 104.027 41.7743 103.48 41.4677 103.04C41.161 102.587 40.7543 102.253 40.2477 102.04C39.7543 101.827 39.221 101.72 38.6477 101.72H36.4477V100.42L40.7277 96.48H34.3877V95H43.1677V96.32L38.4077 100.66V100.96C38.4877 100.907 38.6943 100.86 39.0277 100.82C39.3743 100.78 39.6943 100.773 39.9877 100.8C40.561 100.88 41.1143 101.073 41.6477 101.38C42.1943 101.687 42.6477 102.133 43.0077 102.72ZM53.8125 96.48L47.4125 104.84H51.7725C52.5325 104.84 53.2925 104.933 54.0525 105.12V96.48H53.8125ZM57.3725 106.2H55.6925V109H54.0525V106.2H45.8925V104.28L53.0725 95H55.6925V104.84H57.3725V106.2ZM61.1431 109.24C60.8631 109.24 60.6165 109.147 60.4031 108.96C60.2031 108.76 60.1031 108.52 60.1031 108.24C60.1031 107.96 60.2031 107.727 60.4031 107.54C60.6165 107.34 60.8631 107.24 61.1431 107.24C61.3165 107.24 61.4765 107.287 61.6231 107.38C61.7831 107.473 61.9098 107.593 62.0031 107.74C62.1098 107.887 62.1631 108.053 62.1631 108.24C62.1631 108.52 62.0565 108.76 61.8431 108.96C61.6431 109.147 61.4098 109.24 61.1431 109.24ZM70.3563 107.76C70.9696 107.76 71.5563 107.66 72.1163 107.46C72.6896 107.247 73.1563 106.92 73.5163 106.48C73.8896 106.04 74.0763 105.487 74.0763 104.82C74.0763 104.14 73.8896 103.58 73.5163 103.14C73.1563 102.7 72.6896 102.38 72.1163 102.18C71.5563 101.98 70.9696 101.88 70.3563 101.88C69.7429 101.88 69.1496 101.98 68.5763 102.18C68.0163 102.38 67.5496 102.7 67.1763 103.14C66.8029 103.58 66.6163 104.14 66.6163 104.82C66.6163 105.487 66.8029 106.04 67.1763 106.48C67.5496 106.92 68.0163 107.247 68.5763 107.46C69.1496 107.66 69.7429 107.76 70.3563 107.76ZM67.1963 98.38C67.1963 99.0867 67.5096 99.62 68.1363 99.98C68.7763 100.327 69.5096 100.5 70.3363 100.5C71.1763 100.5 71.9096 100.327 72.5363 99.98C73.1763 99.62 73.4963 99.0867 73.4963 98.38C73.4963 97.66 73.1763 97.1267 72.5363 96.78C71.9096 96.42 71.1763 96.24 70.3363 96.24C69.5096 96.24 68.7763 96.42 68.1363 96.78C67.5096 97.1267 67.1963 97.66 67.1963 98.38ZM72.3363 101.34C72.9496 101.487 73.5096 101.733 74.0163 102.08C74.5363 102.413 74.9496 102.847 75.2563 103.38C75.5629 103.9 75.7163 104.493 75.7163 105.16C75.7163 106 75.4829 106.727 75.0163 107.34C74.5496 107.953 73.9096 108.427 73.0963 108.76C72.2963 109.08 71.3763 109.24 70.3363 109.24C69.3096 109.24 68.3896 109.08 67.5763 108.76C66.7763 108.427 66.1429 107.953 65.6763 107.34C65.2096 106.727 64.9763 106 64.9763 105.16C64.9763 104.493 65.1296 103.9 65.4363 103.38C65.7429 102.847 66.1496 102.413 66.6562 102.08C67.1763 101.733 67.7363 101.487 68.3363 101.34V101.06C67.5496 100.847 66.8896 100.487 66.3563 99.98C65.8363 99.46 65.5763 98.8133 65.5763 98.04C65.5763 97.3867 65.7829 96.8133 66.1963 96.32C66.6096 95.8133 67.1763 95.4267 67.8963 95.16C68.6163 94.8933 69.4296 94.76 70.3363 94.76C71.2563 94.76 72.0763 94.8933 72.7963 95.16C73.5163 95.4267 74.0763 95.8133 74.4763 96.32C74.8896 96.8133 75.0963 97.3867 75.0963 98.04C75.0963 98.8133 74.8296 99.46 74.2963 99.98C73.7763 100.487 73.1229 100.847 72.3363 101.06V101.34ZM83.6991 96.24C82.8191 96.24 82.0924 96.42 81.5191 96.78C80.9457 97.14 80.5191 97.5933 80.2391 98.14C79.9724 98.6867 79.8391 99.26 79.8391 99.86C79.8391 100.46 79.9724 101.04 80.2391 101.6C80.5191 102.147 80.9457 102.6 81.5191 102.96C82.0924 103.307 82.8191 103.48 83.6991 103.48C84.5791 103.48 85.3057 103.307 85.8791 102.96C86.4524 102.6 86.8724 102.147 87.1391 101.6C87.4191 101.04 87.5591 100.46 87.5591 99.86C87.5591 99.26 87.4191 98.6867 87.1391 98.14C86.8724 97.5933 86.4457 97.14 85.8591 96.78C85.2857 96.42 84.5657 96.24 83.6991 96.24ZM83.3991 104.98C82.3457 104.98 81.4257 104.76 80.6391 104.32C79.8524 103.88 79.2457 103.273 78.8191 102.5C78.4057 101.727 78.1991 100.847 78.1991 99.86C78.1991 98.8867 78.4124 98.0133 78.8391 97.24C79.2791 96.4667 79.8991 95.86 80.6991 95.42C81.4991 94.98 82.4191 94.76 83.4591 94.76C84.5924 94.76 85.6057 95 86.4991 95.48C87.4057 95.96 88.1324 96.74 88.6791 97.82C89.2257 98.8867 89.4991 100.28 89.4991 102C89.4991 103.2 89.3057 104.353 88.9191 105.46C88.5324 106.567 87.9124 107.473 87.0591 108.18C86.2191 108.887 85.1591 109.24 83.8791 109.24C82.9724 109.24 82.1657 109.06 81.4591 108.7C80.7657 108.34 80.1857 107.867 79.7191 107.28C79.2657 106.68 78.9391 106.027 78.7391 105.32H80.3391C80.6057 106.053 81.0457 106.647 81.6591 107.1C82.2724 107.54 83.0457 107.76 83.9791 107.76C84.8724 107.76 85.6524 107.487 86.3191 106.94C86.9857 106.393 87.4857 105.613 87.8191 104.6C88.1657 103.573 88.2924 102.367 88.1991 100.98H87.9191C87.9057 101.673 87.6991 102.327 87.2991 102.94C86.9124 103.553 86.3724 104.047 85.6791 104.42C84.9991 104.793 84.2391 104.98 83.3991 104.98Z" fill="black"/>
</g>
</g>
</svg>
