<svg width="152" height="130" viewBox="0 0 152 130" fill="none" xmlns="http://www.w3.org/2000/svg">
<g id="budgetcard2">
<rect id="outer" x="0.5" y="0.5" width="151" height="129" rx="10.5" fill="#FFFFF1" stroke="#C6C6C6"/>
<g id="inner">
<g id="NetflixLogo">
<circle id="fillable" cx="23" cy="23" r="12.75" stroke="#C6C6C6" stroke-width="0.5"/>
<path id="Vector" d="M22.6454 18.5507L23.6546 21.6953L23.8524 22.3104L23.8561 19.6594L23.8606 17.005H25.996L25.9997 22.9905C26.001 26.286 25.9978 28.9915 25.9919 28.9965C25.986 29.0014 25.8876 28.9965 25.7741 28.9814C25.2795 28.9165 24.6293 28.8515 24.1043 28.8264C23.9309 28.8175 23.7875 28.8074 23.7857 28.8054C23.7844 28.8035 23.6496 28.3854 23.3978 27.6018L23.3979 27.5997C23.1521 26.8347 22.7921 25.713 22.326 24.2597L22.1558 23.7344L22.1522 26.261C22.149 28.6664 22.1472 28.8014 22.1236 28.8014C22.042 28.8014 21.3386 28.8515 21.1036 28.8765C20.9493 28.8915 20.6407 28.9265 20.4184 28.9565C20.1956 28.9845 20.0104 29.0035 20.0068 28.9995C20.0032 28.9954 20 26.2945 20 22.997V17.001H20.0026L20.0023 17H22.1463L22.1604 17.0445C22.1639 17.0527 22.1928 17.1413 22.239 17.2848L22.5597 18.2647L22.6459 18.5378L22.6454 18.5507Z" fill="black"/>
</g>
<path id="-$7.99" d="M18.24 103V104.36H11.32V103H18.24ZM25.5708 110.96V93.02H26.9708V110.96H25.5708ZM30.5508 102.92C31.0574 103.453 31.3108 104.167 31.3108 105.06C31.3108 105.767 31.1308 106.44 30.7708 107.08C30.4108 107.707 29.8441 108.227 29.0708 108.64C28.2974 109.04 27.3241 109.24 26.1508 109.24C24.9774 109.24 24.0041 109.033 23.2308 108.62C22.4574 108.193 21.8908 107.653 21.5308 107C21.1708 106.333 20.9908 105.647 20.9908 104.94H22.6308C22.6308 105.407 22.7508 105.853 22.9908 106.28C23.2441 106.707 23.6374 107.06 24.1708 107.34C24.7041 107.62 25.3641 107.76 26.1508 107.76C26.9508 107.76 27.6108 107.633 28.1308 107.38C28.6641 107.113 29.0508 106.773 29.2908 106.36C29.5441 105.947 29.6708 105.513 29.6708 105.06C29.6708 104.567 29.5108 104.167 29.1908 103.86C28.8841 103.54 28.4974 103.293 28.0308 103.12C27.5774 102.947 27.0308 102.8 26.3908 102.68C26.2041 102.64 26.0041 102.6 25.7908 102.56L25.4908 102.5C24.6774 102.34 23.9708 102.14 23.3708 101.9C22.7708 101.66 22.2574 101.287 21.8308 100.78C21.4174 100.273 21.2108 99.5933 21.2108 98.74C21.2108 98.0733 21.3841 97.44 21.7308 96.84C22.0774 96.24 22.6241 95.7467 23.3708 95.36C24.1174 94.96 25.0574 94.76 26.1908 94.76C27.3374 94.76 28.2841 94.96 29.0308 95.36C29.7908 95.7467 30.3441 96.24 30.6908 96.84C31.0374 97.44 31.2108 98.0733 31.2108 98.74V98.9H29.5708V98.74C29.5708 98.3267 29.4508 97.9333 29.2108 97.56C28.9841 97.1733 28.6174 96.86 28.1108 96.62C27.6041 96.3667 26.9641 96.24 26.1908 96.24C25.4441 96.24 24.8174 96.3667 24.3108 96.62C23.8041 96.86 23.4308 97.1733 23.1908 97.56C22.9641 97.9333 22.8508 98.3267 22.8508 98.74C22.8508 99.2333 22.9774 99.6333 23.2308 99.94C23.4841 100.247 23.8041 100.48 24.1908 100.64C24.5908 100.787 25.0908 100.913 25.6908 101.02L26.0308 101.08H26.0708C27.1108 101.267 27.9908 101.487 28.7108 101.74C29.4308 101.98 30.0441 102.373 30.5508 102.92ZM33.2677 96.48V95H43.1477V96.32C41.841 97.1467 40.7943 98.2733 40.0077 99.7C39.2343 101.113 38.6943 102.607 38.3877 104.18C38.081 105.753 37.9277 107.36 37.9277 109H36.2877C36.2877 107.44 36.4543 105.86 36.7877 104.26C37.121 102.647 37.6343 101.147 38.3277 99.76C39.021 98.3733 39.8877 97.28 40.9277 96.48V96.2C40.061 96.3867 39.2477 96.48 38.4877 96.48H33.2677ZM45.0892 109.24C44.8092 109.24 44.5626 109.147 44.3492 108.96C44.1492 108.76 44.0492 108.52 44.0492 108.24C44.0492 107.96 44.1492 107.727 44.3492 107.54C44.5626 107.34 44.8092 107.24 45.0892 107.24C45.2626 107.24 45.4226 107.287 45.5692 107.38C45.7292 107.473 45.8559 107.593 45.9492 107.74C46.0559 107.887 46.1092 108.053 46.1092 108.24C46.1092 108.52 46.0026 108.76 45.7892 108.96C45.5892 109.147 45.3559 109.24 45.0892 109.24ZM54.4623 96.24C53.5823 96.24 52.8557 96.42 52.2823 96.78C51.709 97.14 51.2823 97.5933 51.0023 98.14C50.7357 98.6867 50.6023 99.26 50.6023 99.86C50.6023 100.46 50.7357 101.04 51.0023 101.6C51.2823 102.147 51.709 102.6 52.2823 102.96C52.8557 103.307 53.5823 103.48 54.4623 103.48C55.3423 103.48 56.069 103.307 56.6423 102.96C57.2157 102.6 57.6357 102.147 57.9023 101.6C58.1823 101.04 58.3223 100.46 58.3223 99.86C58.3223 99.26 58.1823 98.6867 57.9023 98.14C57.6357 97.5933 57.209 97.14 56.6223 96.78C56.049 96.42 55.329 96.24 54.4623 96.24ZM54.1623 104.98C53.109 104.98 52.189 104.76 51.4023 104.32C50.6157 103.88 50.009 103.273 49.5823 102.5C49.169 101.727 48.9623 100.847 48.9623 99.86C48.9623 98.8867 49.1757 98.0133 49.6023 97.24C50.0423 96.4667 50.6623 95.86 51.4623 95.42C52.2623 94.98 53.1823 94.76 54.2223 94.76C55.3557 94.76 56.369 95 57.2623 95.48C58.169 95.96 58.8957 96.74 59.4423 97.82C59.989 98.8867 60.2623 100.28 60.2623 102C60.2623 103.2 60.069 104.353 59.6823 105.46C59.2957 106.567 58.6757 107.473 57.8223 108.18C56.9823 108.887 55.9223 109.24 54.6423 109.24C53.7357 109.24 52.929 109.06 52.2223 108.7C51.529 108.34 50.949 107.867 50.4823 107.28C50.029 106.68 49.7023 106.027 49.5023 105.32H51.1023C51.369 106.053 51.809 106.647 52.4223 107.1C53.0357 107.54 53.809 107.76 54.7423 107.76C55.6357 107.76 56.4157 107.487 57.0823 106.94C57.749 106.393 58.249 105.613 58.5823 104.6C58.929 103.573 59.0557 102.367 58.9623 100.98H58.6823C58.669 101.673 58.4623 102.327 58.0623 102.94C57.6757 103.553 57.1357 104.047 56.4423 104.42C55.7623 104.793 55.0023 104.98 54.1623 104.98ZM68.2311 96.24C67.3511 96.24 66.6244 96.42 66.0511 96.78C65.4778 97.14 65.0511 97.5933 64.7711 98.14C64.5044 98.6867 64.3711 99.26 64.3711 99.86C64.3711 100.46 64.5044 101.04 64.7711 101.6C65.0511 102.147 65.4778 102.6 66.0511 102.96C66.6244 103.307 67.3511 103.48 68.2311 103.48C69.1111 103.48 69.8378 103.307 70.4111 102.96C70.9844 102.6 71.4044 102.147 71.6711 101.6C71.9511 101.04 72.0911 100.46 72.0911 99.86C72.0911 99.26 71.9511 98.6867 71.6711 98.14C71.4044 97.5933 70.9778 97.14 70.3911 96.78C69.8178 96.42 69.0978 96.24 68.2311 96.24ZM67.9311 104.98C66.8778 104.98 65.9578 104.76 65.1711 104.32C64.3844 103.88 63.7778 103.273 63.3511 102.5C62.9378 101.727 62.7311 100.847 62.7311 99.86C62.7311 98.8867 62.9444 98.0133 63.3711 97.24C63.8111 96.4667 64.4311 95.86 65.2311 95.42C66.0311 94.98 66.9511 94.76 67.9911 94.76C69.1244 94.76 70.1378 95 71.0311 95.48C71.9378 95.96 72.6644 96.74 73.2111 97.82C73.7578 98.8867 74.0311 100.28 74.0311 102C74.0311 103.2 73.8378 104.353 73.4511 105.46C73.0644 106.567 72.4444 107.473 71.5911 108.18C70.7511 108.887 69.6911 109.24 68.4111 109.24C67.5044 109.24 66.6978 109.06 65.9911 108.7C65.2978 108.34 64.7178 107.867 64.2511 107.28C63.7978 106.68 63.4711 106.027 63.2711 105.32H64.8711C65.1378 106.053 65.5778 106.647 66.1911 107.1C66.8044 107.54 67.5778 107.76 68.5111 107.76C69.4044 107.76 70.1844 107.487 70.8511 106.94C71.5178 106.393 72.0178 105.613 72.3511 104.6C72.6978 103.573 72.8244 102.367 72.7311 100.98H72.4511C72.4378 101.673 72.2311 102.327 71.8311 102.94C71.4444 103.553 70.9044 104.047 70.2111 104.42C69.5311 104.793 68.7711 104.98 67.9311 104.98Z" fill="black"/>
<path id="Netflix" d="M17.044 80.112C16.98 79.616 16.948 79.12 16.948 78.624V72.6H17.932V81H16.408L11.98 73.488H11.824C11.888 73.976 11.92 74.464 11.92 74.952V81H10.936V72.6H12.472L16.888 80.112H17.044ZM22.5791 75.816C22.1951 75.816 21.8711 75.904 21.6071 76.08C21.3431 76.256 21.1391 76.484 20.9951 76.764C20.8511 77.044 20.7631 77.34 20.7311 77.652H24.4391C24.4151 77.364 24.3311 77.08 24.1871 76.8C24.0431 76.52 23.8351 76.288 23.5631 76.104C23.2911 75.912 22.9631 75.816 22.5791 75.816ZM20.7071 78.276C20.7231 78.612 20.7911 78.936 20.9111 79.248C21.0391 79.552 21.2391 79.808 21.5111 80.016C21.7911 80.224 22.1471 80.328 22.5791 80.328C23.0351 80.328 23.4031 80.216 23.6831 79.992C23.9711 79.768 24.1831 79.448 24.3191 79.032H25.2791C25.1351 79.616 24.8471 80.116 24.4151 80.532C23.9831 80.94 23.3751 81.144 22.5911 81.144C21.9511 81.144 21.4191 80.996 20.9951 80.7C20.5791 80.396 20.2711 80.008 20.0711 79.536C19.8791 79.064 19.7831 78.572 19.7831 78.06C19.7831 77.548 19.8791 77.06 20.0711 76.596C20.2711 76.132 20.5791 75.752 20.9951 75.456C21.4191 75.152 21.9511 75 22.5911 75C23.2231 75 23.7511 75.148 24.1751 75.444C24.6071 75.74 24.9231 76.136 25.1231 76.632C25.3231 77.128 25.4111 77.676 25.3871 78.276H20.7071ZM27.4184 80.1C27.2744 79.82 27.2024 79.52 27.2024 79.2V76.032H26.3504V75.144H27.2024V72.6H28.1864V75.144H29.8424V76.032H28.1864V79.188C28.1864 79.444 28.2704 79.664 28.4384 79.848C28.6144 80.024 28.8304 80.112 29.0864 80.112H29.8424V81H28.9904C28.6224 81 28.3024 80.92 28.0304 80.76C27.7664 80.592 27.5624 80.372 27.4184 80.1ZM31.6902 74.7C31.6902 74.356 31.7542 74.024 31.8822 73.704C32.0182 73.376 32.2262 73.112 32.5062 72.912C32.7942 72.704 33.1582 72.6 33.5982 72.6H34.3302V73.488H33.5742C33.2782 73.488 33.0542 73.596 32.9022 73.812C32.7502 74.02 32.6742 74.264 32.6742 74.544V75.144H34.3182V76.032H32.6742V81H31.6902V76.032H30.8382V75.144H31.6902V74.7ZM36.7222 72.6V81H35.7382V72.6H36.7222ZM39.8875 75.264C39.9675 75.336 40.0075 75.424 40.0075 75.528V81H39.0235V76.248C39.0235 76.192 39.0035 76.144 38.9635 76.104C38.9235 76.056 38.8715 76.032 38.8075 76.032H38.3155V75.144H39.6115C39.7235 75.144 39.8155 75.184 39.8875 75.264ZM39.0955 73.332C39.2075 73.436 39.3395 73.488 39.4915 73.488C39.6355 73.488 39.7595 73.436 39.8635 73.332C39.9755 73.22 40.0315 73.092 40.0315 72.948C40.0315 72.804 39.9755 72.68 39.8635 72.576C39.7595 72.464 39.6355 72.408 39.4915 72.408C39.3395 72.408 39.2075 72.464 39.0955 72.576C38.9835 72.68 38.9275 72.804 38.9275 72.948C38.9275 73.1 38.9835 73.228 39.0955 73.332ZM44.9605 78L46.9525 81H45.8845L44.2045 78.504H44.0485L42.3565 81H41.2885L43.2925 78L41.3245 75.144H42.4045L44.1205 77.616L45.8485 75.144H46.9165L44.9605 78Z" fill="#A3A3A3"/>
</g>
</g>
</svg>
