<svg width="152" height="130" viewBox="0 0 152 130" fill="none" xmlns="http://www.w3.org/2000/svg">
<g id="budgetcard3">
<rect id="Rectangle 14" x="0.5" y="0.5" width="151" height="129" rx="10.5" fill="#FFFFF1" stroke="#C6C6C6"/>
<path id="-$12.10" d="M18.24 103V104.36H11.32V103H18.24ZM25.5708 110.96V93.02H26.9708V110.96H25.5708ZM30.5508 102.92C31.0574 103.453 31.3108 104.167 31.3108 105.06C31.3108 105.767 31.1308 106.44 30.7708 107.08C30.4108 107.707 29.8441 108.227 29.0708 108.64C28.2974 109.04 27.3241 109.24 26.1508 109.24C24.9774 109.24 24.0041 109.033 23.2308 108.62C22.4574 108.193 21.8908 107.653 21.5308 107C21.1708 106.333 20.9908 105.647 20.9908 104.94H22.6308C22.6308 105.407 22.7508 105.853 22.9908 106.28C23.2441 106.707 23.6374 107.06 24.1708 107.34C24.7041 107.62 25.3641 107.76 26.1508 107.76C26.9508 107.76 27.6108 107.633 28.1308 107.38C28.6641 107.113 29.0508 106.773 29.2908 106.36C29.5441 105.947 29.6708 105.513 29.6708 105.06C29.6708 104.567 29.5108 104.167 29.1908 103.86C28.8841 103.54 28.4974 103.293 28.0308 103.12C27.5774 102.947 27.0308 102.8 26.3908 102.68C26.2041 102.64 26.0041 102.6 25.7908 102.56L25.4908 102.5C24.6774 102.34 23.9708 102.14 23.3708 101.9C22.7708 101.66 22.2574 101.287 21.8308 100.78C21.4174 100.273 21.2108 99.5933 21.2108 98.74C21.2108 98.0733 21.3841 97.44 21.7308 96.84C22.0774 96.24 22.6241 95.7467 23.3708 95.36C24.1174 94.96 25.0574 94.76 26.1908 94.76C27.3374 94.76 28.2841 94.96 29.0308 95.36C29.7908 95.7467 30.3441 96.24 30.6908 96.84C31.0374 97.44 31.2108 98.0733 31.2108 98.74V98.9H29.5708V98.74C29.5708 98.3267 29.4508 97.9333 29.2108 97.56C28.9841 97.1733 28.6174 96.86 28.1108 96.62C27.6041 96.3667 26.9641 96.24 26.1908 96.24C25.4441 96.24 24.8174 96.3667 24.3108 96.62C23.8041 96.86 23.4308 97.1733 23.1908 97.56C22.9641 97.9333 22.8508 98.3267 22.8508 98.74C22.8508 99.2333 22.9774 99.6333 23.2308 99.94C23.4841 100.247 23.8041 100.48 24.1908 100.64C24.5908 100.787 25.0908 100.913 25.6908 101.02L26.0308 101.08H26.0708C27.1108 101.267 27.9908 101.487 28.7108 101.74C29.4308 101.98 30.0441 102.373 30.5508 102.92ZM35.9677 97.78C36.5143 96.9933 36.7877 96.0667 36.7877 95H38.4277V109H36.7877V100.3C36.7877 99.5267 36.8743 98.7467 37.0477 97.96H36.7877C36.6277 98.4133 36.3943 98.8333 36.0877 99.22C35.7943 99.6067 35.4277 99.9267 34.9877 100.18C34.5477 100.42 34.0477 100.56 33.4877 100.6V99.06C34.6077 98.98 35.4343 98.5533 35.9677 97.78ZM43.9641 107.8C44.7507 107.613 45.5374 107.52 46.3241 107.52H51.3641V109H41.5241V107.62C43.5774 105.807 45.6174 103.993 47.6441 102.18C47.7641 102.087 47.9041 101.96 48.0641 101.8C48.5574 101.307 48.9374 100.833 49.2041 100.38C49.4841 99.9267 49.6241 99.4933 49.6241 99.08C49.6241 98.6 49.5041 98.1467 49.2641 97.72C49.0374 97.28 48.6774 96.9267 48.1841 96.66C47.7041 96.38 47.0974 96.24 46.3641 96.24C45.6307 96.24 45.0174 96.38 44.5241 96.66C44.0441 96.94 43.6907 97.2933 43.4641 97.72C43.2374 98.1467 43.1241 98.6 43.1241 99.08C43.1241 99.2533 43.1241 99.4067 43.1241 99.54H41.4841C41.4841 99.4067 41.4841 99.2533 41.4841 99.08C41.4841 98.36 41.6507 97.6733 41.9841 97.02C42.3307 96.3533 42.8707 95.8133 43.6041 95.4C44.3507 94.9733 45.2774 94.76 46.3841 94.76C47.4774 94.76 48.3907 94.9733 49.1241 95.4C49.8574 95.8133 50.3974 96.3533 50.7441 97.02C51.0907 97.6733 51.2641 98.36 51.2641 99.08C51.2641 99.7467 51.0974 100.387 50.7641 101C50.4307 101.6 50.0041 102.14 49.4841 102.62C47.8707 104.06 46.0307 105.693 43.9641 107.52V107.8ZM55.3033 109.24C55.0233 109.24 54.7766 109.147 54.5633 108.96C54.3633 108.76 54.2633 108.52 54.2633 108.24C54.2633 107.96 54.3633 107.727 54.5633 107.54C54.7766 107.34 55.0233 107.24 55.3033 107.24C55.4766 107.24 55.6366 107.287 55.7833 107.38C55.9433 107.473 56.0699 107.593 56.1633 107.74C56.2699 107.887 56.3233 108.053 56.3233 108.24C56.3233 108.52 56.2166 108.76 56.0033 108.96C55.8033 109.147 55.5699 109.24 55.3033 109.24ZM61.3364 97.78C61.8831 96.9933 62.1564 96.0667 62.1564 95H63.7964V109H62.1564V100.3C62.1564 99.5267 62.2431 98.7467 62.4164 97.96H62.1564C61.9964 98.4133 61.7631 98.8333 61.4564 99.22C61.1631 99.6067 60.7964 99.9267 60.3564 100.18C59.9164 100.42 59.4164 100.56 58.8564 100.6V99.06C59.9764 98.98 60.8031 98.5533 61.3364 97.78ZM72.7323 107.76C73.6923 107.76 74.4857 107.48 75.1123 106.92C75.7523 106.36 76.219 105.64 76.5123 104.76C76.8057 103.88 76.9523 102.96 76.9523 102C76.9523 101.04 76.8057 100.12 76.5123 99.24C76.219 98.36 75.7523 97.64 75.1123 97.08C74.4857 96.52 73.6923 96.24 72.7323 96.24C71.7723 96.24 70.979 96.52 70.3523 97.08C69.7257 97.64 69.2657 98.36 68.9723 99.24C68.679 100.12 68.5323 101.04 68.5323 102C68.5323 102.96 68.679 103.88 68.9723 104.76C69.2657 105.64 69.7257 106.36 70.3523 106.92C70.979 107.48 71.7723 107.76 72.7323 107.76ZM72.7323 94.76C74.079 94.76 75.1857 95.1133 76.0523 95.82C76.9323 96.5267 77.5723 97.4333 77.9723 98.54C78.3857 99.6467 78.5923 100.8 78.5923 102C78.5923 103.2 78.3857 104.353 77.9723 105.46C77.5723 106.567 76.9323 107.473 76.0523 108.18C75.1857 108.887 74.079 109.24 72.7323 109.24C71.399 109.24 70.2923 108.887 69.4123 108.18C68.5457 107.473 67.9057 106.567 67.4923 105.46C67.0923 104.353 66.8923 103.2 66.8923 102C66.8923 100.8 67.0923 99.6467 67.4923 98.54C67.9057 97.4333 68.5457 96.5267 69.4123 95.82C70.2923 95.1133 71.399 94.76 72.7323 94.76Z" fill="black"/>
<path id="Github" d="M17.992 76.488C18.104 76.6 18.16 76.744 18.16 76.92V81H17.248V80.28C17.248 79.864 17.368 79.232 17.608 78.384H17.44C17.384 78.72 17.24 79.1 17.008 79.524C16.784 79.94 16.428 80.316 15.94 80.652C15.46 80.98 14.852 81.144 14.116 81.144C13.412 81.144 12.784 80.964 12.232 80.604C11.688 80.244 11.26 79.74 10.948 79.092C10.644 78.436 10.492 77.672 10.492 76.8C10.492 76.064 10.628 75.368 10.9 74.712C11.18 74.048 11.616 73.508 12.208 73.092C12.808 72.668 13.564 72.456 14.476 72.456C15.204 72.456 15.82 72.596 16.324 72.876C16.836 73.148 17.232 73.48 17.512 73.872C17.8 74.256 18.012 74.652 18.148 75.06H17.104C16.904 74.58 16.584 74.176 16.144 73.848C15.712 73.512 15.152 73.344 14.464 73.344C13.784 73.344 13.22 73.516 12.772 73.86C12.324 74.196 11.996 74.628 11.788 75.156C11.58 75.676 11.476 76.224 11.476 76.8C11.476 77.368 11.576 77.916 11.776 78.444C11.984 78.964 12.308 79.396 12.748 79.74C13.196 80.076 13.752 80.248 14.416 80.256C14.984 80.248 15.472 80.104 15.88 79.824C16.288 79.544 16.596 79.188 16.804 78.756C17.02 78.316 17.128 77.868 17.128 77.412C17.128 77.356 17.108 77.308 17.068 77.268C17.028 77.228 16.976 77.208 16.912 77.208H14.32V76.308H17.548C17.732 76.308 17.88 76.368 17.992 76.488ZM21.0339 75.264C21.1139 75.336 21.1539 75.424 21.1539 75.528V81H20.1699V76.248C20.1699 76.192 20.1499 76.144 20.1099 76.104C20.0699 76.056 20.0179 76.032 19.9539 76.032H19.4619V75.144H20.7579C20.8699 75.144 20.9619 75.184 21.0339 75.264ZM20.2419 73.332C20.3539 73.436 20.4859 73.488 20.6379 73.488C20.7819 73.488 20.9059 73.436 21.0099 73.332C21.1219 73.22 21.1779 73.092 21.1779 72.948C21.1779 72.804 21.1219 72.68 21.0099 72.576C20.9059 72.464 20.7819 72.408 20.6379 72.408C20.4859 72.408 20.3539 72.464 20.2419 72.576C20.1299 72.68 20.0739 72.804 20.0739 72.948C20.0739 73.1 20.1299 73.228 20.2419 73.332ZM23.5629 80.1C23.4189 79.82 23.3469 79.52 23.3469 79.2V76.032H22.4949V75.144H23.3469V72.6H24.3309V75.144H25.9869V76.032H24.3309V79.188C24.3309 79.444 24.4149 79.664 24.5829 79.848C24.7589 80.024 24.9749 80.112 25.2309 80.112H25.9869V81H25.1349C24.7669 81 24.4469 80.92 24.1749 80.76C23.9109 80.592 23.7069 80.372 23.5629 80.1ZM32.6615 76.536C32.7895 76.888 32.8535 77.256 32.8535 77.64V81H31.8695V77.748C31.8695 77.212 31.7655 76.776 31.5575 76.44C31.3495 76.104 31.0135 75.9 30.5495 75.828C30.1735 75.764 29.8415 75.804 29.5535 75.948C29.2655 76.084 29.0335 76.3 28.8575 76.596C28.6895 76.892 28.5775 77.24 28.5215 77.64C28.4895 77.864 28.4695 78.088 28.4615 78.312C28.4455 78.544 28.4375 78.804 28.4375 79.092V81H27.4535V72.6H28.4375V75.504C28.4375 75.88 28.3615 76.336 28.2095 76.872H28.3775C28.4815 76.416 28.6695 76.036 28.9415 75.732C29.2135 75.42 29.5415 75.204 29.9255 75.084C30.3095 74.964 30.7135 74.956 31.1375 75.06C31.5215 75.156 31.8415 75.336 32.0975 75.6C32.3535 75.864 32.5415 76.176 32.6615 76.536ZM34.8738 79.62C34.7538 79.26 34.6938 78.888 34.6938 78.504V75.144H35.6778V78.396C35.6778 78.932 35.7818 79.368 35.9898 79.704C36.1978 80.04 36.5338 80.244 36.9978 80.316C37.3658 80.38 37.6938 80.344 37.9818 80.208C38.2778 80.064 38.5098 79.844 38.6778 79.548C38.8538 79.252 38.9698 78.904 39.0258 78.504C39.0818 78.032 39.1098 77.548 39.1098 77.052V75.144H40.0938V81H39.1098V80.568C39.1098 80.376 39.1298 80.164 39.1698 79.932C39.2178 79.692 39.2738 79.472 39.3378 79.272H39.1698C39.0578 79.728 38.8658 80.112 38.5938 80.424C38.3218 80.728 37.9938 80.94 37.6098 81.06C37.2258 81.18 36.8258 81.188 36.4098 81.084C36.0258 80.988 35.7018 80.808 35.4378 80.544C35.1818 80.28 34.9938 79.972 34.8738 79.62ZM44.8862 80.256C45.4702 80.256 45.9262 80.052 46.2542 79.644C46.5822 79.236 46.7462 78.712 46.7462 78.072C46.7462 77.44 46.5822 76.92 46.2542 76.512C45.9262 76.096 45.4702 75.888 44.8862 75.888C44.5022 75.888 44.1662 75.984 43.8782 76.176C43.5982 76.368 43.3822 76.632 43.2302 76.968C43.0862 77.296 43.0142 77.664 43.0142 78.072C43.0142 78.704 43.1782 79.228 43.5062 79.644C43.8422 80.052 44.3022 80.256 44.8862 80.256ZM45.1502 75C45.7182 75 46.1942 75.148 46.5782 75.444C46.9702 75.732 47.2582 76.108 47.4422 76.572C47.6342 77.036 47.7302 77.536 47.7302 78.072C47.7302 78.608 47.6382 79.108 47.4542 79.572C47.2702 80.036 46.9822 80.416 46.5902 80.712C46.2062 81 45.7342 81.144 45.1742 81.144C44.6062 81.144 44.1462 81.016 43.7942 80.76C43.4502 80.496 43.1862 80.152 43.0022 79.728H42.8462C42.9582 80.12 43.0142 80.504 43.0142 80.88V81H42.0302V72.6H43.0142V75.024C43.0142 75.52 42.9582 75.988 42.8462 76.428H43.0022C43.0262 76.38 43.0582 76.316 43.0982 76.236C43.2902 75.86 43.5542 75.56 43.8902 75.336C44.2262 75.112 44.6462 75 45.1502 75Z" fill="#A3A3A3"/>
<circle id="fillable" cx="23" cy="23" r="12.75" stroke="#C6C6C6" stroke-width="0.5"/>
<g id="GithubLogo">
<path id="Vector" d="M23 16C19.1344 16 16 19.2156 16 23.1781C16 26.35 18.0062 29.0375 20.7875 29.9875C20.8265 29.996 20.8663 30.0002 20.9062 30C21.1656 30 21.2656 29.8094 21.2656 29.6438C21.2656 29.4719 21.2594 29.0219 21.2562 28.4219C21.0247 28.4762 20.7878 28.5045 20.55 28.5063C19.2031 28.5063 18.8969 27.4594 18.8969 27.4594C18.5781 26.6313 18.1188 26.4094 18.1188 26.4094C17.5094 25.9813 18.1156 25.9688 18.1625 25.9688H18.1656C18.8688 26.0312 19.2375 26.7125 19.2375 26.7125C19.5875 27.325 20.0562 27.4969 20.475 27.4969C20.7519 27.4913 21.0245 27.4274 21.275 27.3094C21.3375 26.8469 21.5187 26.5313 21.7188 26.35C20.1656 26.1688 18.5312 25.5531 18.5312 22.8031C18.5312 22.0187 18.8031 21.3781 19.25 20.8781C19.1781 20.6969 18.9375 19.9656 19.3187 18.9781C19.3699 18.9659 19.4225 18.9606 19.475 18.9625C19.7281 18.9625 20.3 19.0594 21.2438 19.7156C22.3905 19.3948 23.6033 19.3948 24.75 19.7156C25.6938 19.0594 26.2656 18.9625 26.5188 18.9625C26.5713 18.9606 26.6239 18.9659 26.675 18.9781C27.0563 19.9656 26.8156 20.6969 26.7437 20.8781C27.1906 21.3813 27.4625 22.0219 27.4625 22.8031C27.4625 25.5594 25.825 26.1656 24.2656 26.3438C24.5156 26.5656 24.7406 27.0031 24.7406 27.6719C24.7406 28.6313 24.7312 29.4062 24.7312 29.6406C24.7312 29.8094 24.8281 30 25.0875 30C25.1295 30.0002 25.1714 29.996 25.2125 29.9875C27.9969 29.0375 30 26.3469 30 23.1781C30 19.2156 26.8656 16 23 16Z" fill="black"/>
</g>
</g>
</svg>
