<svg width="380" height="200" viewBox="0 0 380 200" fill="none" xmlns="http://www.w3.org/2000/svg">
<g id="budgetcircle">
<path id="left" d="M0 200C25.1956 200 49.3592 189.464 67.1751 170.711C84.9911 151.957 95 126.522 95 100C95 73.4784 84.9911 48.043 67.1752 29.2893C49.3592 10.5357 25.1956 5.16396e-06 2.52102e-05 0L6.30254e-06 100L0 200Z" fill="#ED3203"/>
<path id="right" d="M380 200C354.804 200 330.641 189.464 312.825 170.711C295.009 151.957 285 126.522 285 100C285 73.4784 295.009 48.043 312.825 29.2893C330.641 10.5357 354.804 5.16396e-06 380 0L380 100L380 200Z" fill="#ED3203"/>
<ellipse id="middle" cx="190" cy="100" rx="95" ry="100" fill="#ED3203"/>
</g>
</svg>
