<svg width="170" height="170" viewBox="0 0 170 170" fill="none" xmlns="http://www.w3.org/2000/svg">
<g id="FullStar">
<path id="Line 9" d="M35.3554 120.208L28.2844 127.279L42.4265 141.421L49.4976 134.35L35.3554 120.208ZM49.4976 134.35L94.9545 88.893L80.8123 74.7509L35.3554 120.208L49.4976 134.35Z" fill="#A3A3A3"/>
<path id="Line 10" d="M49.4982 35.3558L42.4272 28.2848L28.285 42.4269L35.3561 49.498L49.4982 35.3558ZM94.9551 80.8127L49.4982 35.3558L35.3561 49.498L80.813 94.9549L94.9551 80.8127Z" fill="#A3A3A3"/>
<path id="Line 11" d="M20.9556 75.1549L10.9557 75.1104L10.8668 95.1102L20.8667 95.1547L20.9556 75.1549ZM20.8667 95.1547L85.1518 95.4404L85.2407 75.4406L20.9556 75.1549L20.8667 95.1547Z" fill="#A3A3A3"/>
<path id="Line 9_2" d="M120.208 134.35L127.279 141.421L141.421 127.279L134.35 120.208L120.208 134.35ZM134.35 120.208L88.8935 74.7509L74.7514 88.893L120.208 134.35L134.35 120.208Z" fill="#A3A3A3"/>
<path id="Line 10_2" d="M35.3561 120.207L28.285 127.278L42.4272 141.42L49.4982 134.349L35.3561 120.207ZM80.813 74.7502L35.3561 120.207L49.4982 134.349L94.9551 88.8924L80.813 74.7502Z" fill="#A3A3A3"/>
<path id="Line 11_2" d="M75.1576 148.752L75.1131 158.752L95.1129 158.841L95.1574 148.841L75.1576 148.752ZM95.1574 148.841L95.4431 84.5562L75.4433 84.4673L75.1576 148.752L95.1574 148.841Z" fill="#A3A3A3"/>
<path id="Line 9_3" d="M134.35 49.4973L141.421 42.4263L127.279 28.2841L120.208 35.3552L134.35 49.4973ZM120.208 35.3552L74.7514 80.8121L88.8935 94.9542L134.35 49.4973L120.208 35.3552Z" fill="#A3A3A3"/>
<path id="Line 10_3" d="M120.207 134.349L127.278 141.42L141.421 127.278L134.349 120.207L120.207 134.349ZM74.7505 88.8924L120.207 134.349L134.349 120.207L88.8926 74.7502L74.7505 88.8924Z" fill="#A3A3A3"/>
<path id="Line 11_3" d="M148.75 94.5502L158.75 94.5946L158.839 74.5948L148.839 74.5504L148.75 94.5502ZM148.839 74.5504L84.5538 74.2647L84.4649 94.2645L148.75 94.5502L148.839 74.5504Z" fill="#A3A3A3"/>
<path id="Line 9_4" d="M49.4976 35.3552L42.4265 28.2841L28.2844 42.4263L35.3554 49.4973L49.4976 35.3552ZM35.3554 49.4973L80.8123 94.9542L94.9545 80.8121L49.4976 35.3552L35.3554 49.4973Z" fill="#A3A3A3"/>
<path id="Line 10_4" d="M134.349 49.498L141.421 42.4269L127.278 28.2848L120.207 35.3558L134.349 49.498ZM88.8926 94.9549L134.349 49.498L120.207 35.3558L74.7505 80.8127L88.8926 94.9549Z" fill="#A3A3A3"/>
<path id="Line 11_4" d="M94.548 20.9526L94.5924 10.9527L74.5926 10.8639L74.5482 20.8638L94.548 20.9526ZM74.5482 20.8638L74.2625 85.1488L94.2623 85.2377L94.548 20.9526L74.5482 20.8638Z" fill="#A3A3A3"/>
</g>
</svg>
