<svg width="160" height="300" viewBox="0 0 160 300" fill="none" xmlns="http://www.w3.org/2000/svg">
<g id="HalfStar">
<path id="Line 9" d="M10 140H0V160H10L10 140ZM10 160H160V140H10L10 160Z" fill="#A3A3A3"/>
<path id="Line 10" d="M160 10V0H140V10H160ZM160 160V10H140V160L160 160Z" fill="#A3A3A3"/>
<path id="Line 11" d="M51.1024 37.9604L44.0629 30.858L29.858 44.9371L36.8976 52.0396L51.1024 37.9604ZM36.8976 52.0396L142.491 158.576L156.696 144.497L51.1024 37.9604L36.8976 52.0396Z" fill="#A3A3A3"/>
<path id="Line 9_2" d="M140 290V300H160V290L140 290ZM160 290L160 140H140L140 290L160 290Z" fill="#A3A3A3"/>
<path id="Line 10_2" d="M10 140H0V160H10V140ZM160 140L10 140V160L160 160L160 140Z" fill="#A3A3A3"/>
<path id="Line 11_2" d="M37.9604 248.898L30.858 255.937L44.9371 270.142L52.0396 263.102L37.9604 248.898ZM52.0396 263.102L158.576 157.509L144.497 143.304L37.9604 248.898L52.0396 263.102Z" fill="#A3A3A3"/>
</g>
</svg>
