<svg width="505" height="525" viewBox="0 0 505 525" fill="none" xmlns="http://www.w3.org/2000/svg">
<path d="M91.8368 115.838L107.784 100.557L113.632 106.663L90.923 128.424L57.0891 93.0965L63.8514 86.6167L91.8368 115.838Z" fill="#A3A3A3"/>
<path d="M126.422 64.4778C125.015 65.3019 123.985 66.3097 123.333 67.5012C122.681 68.6928 122.345 69.9156 122.324 71.1697C122.279 72.3837 122.439 73.5318 122.803 74.6142L137.072 66.3398C136.329 65.533 135.406 64.8322 134.301 64.2373C133.196 63.6424 131.965 63.3378 130.606 63.3235C129.224 63.269 127.83 63.6538 126.422 64.4778ZM125.317 79.4584C126.05 80.4328 126.964 81.3014 128.059 82.0639C129.194 82.8029 130.52 83.2683 132.036 83.46C133.569 83.5881 135.16 83.1694 136.809 82.2041C138.498 81.2152 139.621 80.0446 140.179 78.6923C140.776 77.3164 140.995 75.8926 140.835 74.4208L148.676 69.8297C149.563 72.8191 149.581 76.075 148.728 79.5973C147.853 83.0795 145.163 86.1391 140.66 88.776C137.282 90.7538 134.032 91.6583 130.909 91.4895C127.802 91.2571 125.043 90.2812 122.632 88.562C120.197 86.8027 118.226 84.6367 116.718 82.0642C115.211 79.4917 114.297 76.7337 113.976 73.7902C113.632 70.8065 114.13 67.9235 115.47 65.1413C116.827 62.2954 119.194 59.8836 122.571 57.9059C125.989 55.9046 129.303 55.0167 132.514 55.2423C135.764 55.4444 138.669 56.5775 141.229 58.6418C143.805 60.6424 145.88 63.2608 147.452 66.4971L125.317 79.4584Z" fill="#A3A3A3"/>
<path d="M173.115 65.4149C171.771 64.0158 170.777 62.4173 170.131 60.6194L165.293 47.1352L159.503 49.2102L156.647 41.2512L162.437 39.1762L157.433 25.2316L166.249 22.0719L171.253 36.0166L181.254 32.4325L184.109 40.3914L174.109 43.9755L178.9 57.3282C179.184 58.1175 179.691 58.7029 180.422 59.0844C181.137 59.4219 181.867 59.4571 182.613 59.1898L189.916 56.5725L192.772 64.5315L184.548 67.4789C182.179 68.3278 180.002 68.5388 178.018 68.1118C176.077 67.6692 174.442 66.7702 173.115 65.4149Z" fill="#A3A3A3"/>
<path d="M192.654 1.44004C193.939 2.18006 194.749 3.2287 195.082 4.586C195.427 5.98854 195.201 7.31518 194.405 8.56587C193.654 9.80545 192.6 10.5918 191.242 10.9248C189.749 11.2911 188.36 11.1043 187.074 10.3643C185.789 9.62426 184.974 8.55299 184.629 7.15045C184.285 5.74791 184.51 4.42127 185.306 3.17059C186.102 1.91991 187.247 1.11142 188.74 0.745073C190.098 0.412031 191.402 0.643678 192.654 1.44004ZM192.76 12.999C192.967 12.0847 192.92 11.2089 192.618 10.3715L188.74 0.745073C191.749 0.102866 194.079 1.18637 195.729 3.99564C197.368 6.75967 197.677 9.87383 196.657 13.3381C195.638 16.8023 193.312 19.148 189.679 20.375L188.962 17.4568C189.981 16.9189 190.825 16.2559 191.495 15.468C192.165 14.68 192.587 13.857 192.76 12.999Z" fill="#A3A3A3"/>
<path d="M239.636 39.3988C241.26 40.6922 242.206 42.7069 242.472 45.4428C242.671 47.4832 242.303 49.4616 241.366 51.3781C240.425 53.2482 238.826 54.8545 236.57 56.197C234.359 57.5349 231.562 58.3682 228.176 58.6968C224.745 59.0299 221.815 58.7525 219.388 57.8647C216.961 56.9769 215.082 55.7082 213.751 54.0586C212.415 52.3626 211.648 50.4945 211.449 48.4542L219.935 47.6304C220.066 48.9752 220.771 49.96 222.049 50.5849C223.369 51.159 225.165 51.3357 227.437 51.1151C228.55 51.0071 229.557 50.769 230.457 50.4007C231.404 50.028 232.151 49.5341 232.7 48.9191C233.244 48.2578 233.473 47.4866 233.387 46.6056C233.301 45.7245 232.909 45.0604 232.21 44.6134C231.511 44.1663 230.642 43.8996 229.604 43.8131C228.566 43.7266 227.156 43.6762 225.376 43.6617C222.567 43.6536 220.214 43.5309 218.318 43.2936C216.418 43.0099 214.73 42.261 213.254 41.0468C211.825 39.828 210.988 37.9667 210.744 35.4626C210.554 33.515 210.913 31.678 211.821 29.9515C212.771 28.1741 214.31 26.6672 216.436 25.431C218.609 24.1903 221.342 23.4101 224.634 23.0905C227.88 22.7755 230.666 23.02 232.991 23.8241C235.317 24.6282 237.117 25.8109 238.393 27.3722C239.664 28.8872 240.395 30.6185 240.585 32.5661L240.639 33.1225L232.153 33.9462L232.099 33.3898C231.994 32.3232 231.336 31.568 230.122 31.1241C228.904 30.6338 227.344 30.4809 225.443 30.6655C223.82 30.823 222.458 31.2595 221.358 31.9748C220.299 32.6393 219.817 33.4584 219.912 34.4322C219.975 35.0814 220.28 35.5667 220.826 35.8882C221.415 36.1588 222.205 36.3395 223.196 36.4305C224.23 36.4706 225.403 36.4972 226.715 36.5103C229.668 36.5513 232.144 36.7323 234.141 37.0533C236.18 37.3235 238.012 38.1053 239.636 39.3988Z" fill="#A3A3A3"/>
<path d="M350.502 49.6625C350.649 51.8557 350.438 53.8643 349.871 55.6883L344.012 74.5068L335.072 71.7204L340.806 53.3023C341.429 51.3004 341.391 49.3851 340.692 47.5566C340.051 45.6974 338.595 44.3407 336.323 43.4863C334.452 42.7568 332.821 42.5899 331.429 42.9858C330.051 43.3372 328.886 44.0234 327.934 45.0443C326.982 46.0653 326.233 47.296 325.686 48.7364C324.808 51.2445 323.96 53.8109 323.143 56.4357L319.86 66.9795L311.721 64.4426L317.455 46.0245C318.078 44.0225 318.04 42.1072 317.341 40.2787C316.686 38.464 315.201 37.1226 312.885 36.2545C311.059 35.5388 309.427 35.3719 307.991 35.7539C306.613 36.1053 305.448 36.7915 304.496 37.8124C303.588 38.8473 302.846 40.0557 302.269 41.4377L302.165 41.7714C301.636 43.3147 301.211 44.5242 300.889 45.4001C300.626 46.2454 300.238 47.491 299.726 49.1371L296.443 59.6808L287.503 56.8944L297.642 24.3291L306.582 27.1154L306.291 28.0497C305.986 29.0285 305.462 30.0852 304.718 31.2199C303.989 32.3102 303.184 33.3283 302.304 34.2742L303.504 34.6484C304.964 32.4679 306.709 30.9376 308.74 30.0575C310.77 29.1774 312.819 28.8644 314.887 29.1184C317.013 29.3418 318.897 29.9532 320.537 30.9526C322.267 31.9797 323.492 33.2157 324.213 34.6607C324.949 36.0611 325.336 37.402 325.376 38.6835C325.43 39.9204 325.367 40.8281 325.187 41.4065L326.388 41.7807C327.937 39.6279 329.793 38.1322 331.957 37.2937C334.121 36.4552 336.237 36.163 338.305 36.4171C340.431 36.6405 342.314 37.2519 343.955 38.2512C346.043 39.5366 347.616 41.2227 348.674 43.3094C349.791 45.3656 350.4 47.4833 350.502 49.6625Z" fill="#A3A3A3"/>
<path d="M387.82 81.7518C387.381 81.7359 386.652 81.5244 385.634 81.117C384.642 80.6711 383.374 80.0941 381.828 79.3861C380.566 78.7574 379.233 78.1089 377.829 77.4406C376.644 76.8641 375.373 76.6232 374.015 76.7176C372.697 76.8382 371.685 77.4195 370.98 78.4617C370.328 79.4266 370.127 80.4721 370.378 81.5981C370.693 82.7115 371.307 83.7171 372.218 84.6149C373.259 85.4876 374.204 86.1271 375.054 86.5333C375.904 86.9395 377.02 87.2441 378.401 87.447C379.808 87.6114 381.127 87.4909 382.357 87.0854C383.614 86.6414 384.6 86.0146 385.316 85.2052C385.811 84.6398 386.28 84.0291 386.724 83.3729L387.82 81.7518ZM389.55 104.017L383.994 100.259C382.759 99.4234 382.068 98.4496 381.92 97.3372C381.772 96.2248 382.09 95.0897 382.873 93.9317C383.421 93.1212 384.04 92.4145 384.729 91.8116C385.444 91.1701 386.138 90.6837 386.813 90.3521L385.771 89.6474C384.537 90.5568 383.091 91.3226 381.433 91.945C379.84 92.5548 378.235 92.8479 376.62 92.8243C374.398 92.7838 372.301 92.35 370.33 91.5228C368.359 90.6957 366.525 89.5399 364.83 88.0554C363.622 87.0136 362.655 85.7408 361.929 84.2369C361.241 82.7591 360.935 81.174 361.011 79.4815C361.126 77.8151 361.692 76.2293 362.71 74.724C364.276 72.4081 366.107 71.0309 368.203 70.5924C370.338 70.18 372.565 70.4209 374.885 71.3149C376.007 71.7359 377.127 72.2408 378.248 72.8297C379.394 73.3801 380.469 73.9106 381.474 74.4212C382.903 75.2189 384.132 75.8538 385.163 76.3258L385.994 76.719C387.424 77.3488 388.513 77.692 389.262 77.7486C390.037 77.7666 390.596 77.2727 390.939 76.267C391.202 75.545 391.188 74.776 390.896 73.9599C390.669 73.1313 390.229 72.3272 389.575 71.5475C388.948 70.7292 388.113 69.9676 387.071 69.2629C385.682 68.3232 384.361 67.7395 383.11 67.5115C381.858 67.2836 380.746 67.3473 379.775 67.7028C378.868 68.0457 378.153 68.6032 377.631 69.3751L370.107 64.2854C371.333 62.4713 372.997 61.0931 375.096 60.1506C377.261 59.1956 379.737 58.9017 382.525 59.269C385.353 59.6625 388.329 60.9162 391.455 63.0304C394.542 65.1185 396.775 67.3883 398.154 69.8399C399.571 72.3176 400.22 74.7257 400.101 77.064C399.982 79.4023 399.283 81.5172 398.004 83.4085L391.465 93.0773C391.204 93.4632 391.117 93.8827 391.205 94.3356C391.318 94.7498 391.568 95.0875 391.954 95.3485L394.327 96.9537L389.55 104.017Z" fill="#A3A3A3"/>
<path d="M419.577 105.366L420.631 106.485L440.028 105.972L447.025 113.397L423.174 114.075L422.258 114.937L422.149 136.835L414.484 128.599L414.572 112.386L413.422 111.166L405.282 118.835L398.86 112.02L434.47 78.4691L440.892 85.2837L419.577 105.366Z" fill="#A3A3A3"/>
<path d="M461.517 146.364C460.693 144.957 459.685 143.927 458.493 143.275C457.302 142.623 456.079 142.286 454.824 142.264C453.61 142.219 452.461 142.378 451.378 142.742L459.65 157.01C460.458 156.268 461.159 155.344 461.754 154.24C462.35 153.136 462.655 151.905 462.67 150.547C462.725 149.166 462.34 147.771 461.517 146.364ZM446.532 145.254C445.557 145.986 444.687 146.9 443.924 147.994C443.185 149.128 442.719 150.454 442.526 151.969C442.398 153.502 442.816 155.093 443.781 156.741C444.77 158.429 445.94 159.553 447.293 160.111C448.669 160.709 450.093 160.928 451.565 160.769L456.155 168.608C453.165 169.495 449.908 169.511 446.384 168.658C442.901 167.781 439.842 165.091 437.206 160.588C435.228 157.211 434.325 153.961 434.495 150.839C434.728 147.734 435.705 144.976 437.426 142.566C439.187 140.133 441.354 138.163 443.928 136.657C446.502 135.151 449.261 134.238 452.206 133.919C455.19 133.576 458.074 134.075 460.857 135.415C463.703 136.773 466.115 139.14 468.092 142.517C470.093 145.934 470.98 149.248 470.753 152.457C470.55 155.706 469.415 158.61 467.349 161.168C465.347 163.743 462.727 165.816 459.489 167.386L446.532 145.254Z" fill="#A3A3A3"/>
<path d="M484.363 237.905C483.225 239.641 481.307 240.768 478.607 241.285C476.593 241.67 474.589 241.485 472.593 240.728C470.644 239.963 468.896 238.519 467.35 236.396C465.812 234.318 464.723 231.61 464.082 228.269C463.432 224.884 463.437 221.942 464.096 219.444C464.755 216.945 465.844 214.958 467.364 213.481C468.929 211.996 470.718 211.06 472.732 210.674L474.339 219.048C473.012 219.302 472.096 220.094 471.592 221.424C471.143 222.79 471.134 224.595 471.564 226.837C471.775 227.935 472.105 228.915 472.555 229.778C473.014 230.686 473.575 231.385 474.239 231.875C474.948 232.356 475.737 232.513 476.606 232.346C477.476 232.18 478.101 231.728 478.481 230.991C478.862 230.254 479.047 229.365 479.037 228.323C479.027 227.282 478.946 225.874 478.795 224.1C478.543 221.302 478.447 218.949 478.508 217.04C478.614 215.122 479.204 213.372 480.276 211.791C481.357 210.256 483.133 209.252 485.604 208.779C487.526 208.411 489.389 208.6 491.193 209.345C493.051 210.128 494.694 211.521 496.122 213.525C497.559 215.574 498.59 218.223 499.213 221.471C499.828 224.674 499.843 227.47 499.257 229.859C498.672 232.248 497.661 234.15 496.225 235.563C494.834 236.968 493.177 237.854 491.255 238.222L490.706 238.327L489.099 229.954L489.648 229.849C490.701 229.648 491.392 228.922 491.721 227.673C492.097 226.415 492.104 224.849 491.744 222.973C491.437 221.371 490.876 220.055 490.062 219.026C489.302 218.033 488.441 217.628 487.48 217.812C486.84 217.935 486.385 218.283 486.115 218.856C485.9 219.467 485.793 220.27 485.795 221.266C485.851 222.299 485.933 223.469 486.042 224.776C486.275 227.72 486.324 230.201 486.189 232.219C486.109 234.274 485.5 236.17 484.363 237.905Z" fill="#A3A3A3"/>
<path d="M475.673 276.898C475.594 278.993 476.064 280.737 477.083 282.128C478.101 283.566 479.436 284.62 481.089 285.289C482.742 285.959 484.477 286.329 486.292 286.398C488.108 286.468 489.865 286.232 491.564 285.691C493.263 285.151 494.675 284.202 495.798 282.847C496.92 281.537 497.521 279.835 497.601 277.74C497.68 275.645 497.211 273.879 496.193 272.441C495.174 271.049 493.839 269.996 492.187 269.279C490.534 268.61 488.8 268.24 486.984 268.17C485.169 268.101 483.411 268.336 481.712 268.877C480.012 269.465 478.6 270.413 477.478 271.722C476.354 273.078 475.753 274.803 475.673 276.898ZM504.514 278.006C504.366 281.917 503.358 285.119 501.492 287.611C499.671 290.152 497.364 291.952 494.573 293.011C491.829 294.071 488.967 294.544 485.987 294.43C483.008 294.315 480.167 293.623 477.464 292.354C474.808 291.086 472.645 289.115 470.975 286.44C469.35 283.813 468.611 280.544 468.76 276.633C468.91 272.675 469.895 269.449 471.715 266.955C473.581 264.462 475.887 262.662 478.633 261.555C481.424 260.497 484.31 260.025 487.289 260.139C490.269 260.253 493.087 260.945 495.743 262.212C498.443 263.528 500.607 265.5 502.232 268.126C503.904 270.755 504.665 274.048 504.514 278.006Z" fill="#A3A3A3"/>
<path d="M472.762 378.358C470.565 378.424 468.566 378.141 466.764 377.507L448.175 370.966L451.281 362.131L469.475 368.532C471.452 369.228 473.367 369.26 475.219 368.627C477.1 368.054 478.508 366.648 479.443 364.408C480.239 362.564 480.465 360.94 480.119 359.534C479.818 358.143 479.175 356.954 478.189 355.965C477.203 354.976 476.001 354.182 474.581 353.584C472.107 352.615 469.574 351.674 466.981 350.762L456.566 347.097L459.393 339.053L477.587 345.454C479.565 346.15 481.48 346.182 483.332 345.549C485.168 344.961 486.562 343.524 487.513 341.241C488.294 339.441 488.519 337.816 488.189 336.367C487.888 334.976 487.244 333.787 486.259 332.798C485.257 331.853 484.077 331.067 482.717 330.44L482.387 330.324C480.865 329.739 479.672 329.27 478.808 328.917C477.973 328.623 476.743 328.19 475.117 327.618L464.701 323.953L467.807 315.118L499.976 326.436L496.87 335.272L495.947 334.947C494.98 334.607 493.944 334.045 492.837 333.26C491.774 332.491 490.786 331.649 489.872 330.735L489.455 331.922C491.581 333.46 493.047 335.261 493.853 337.322C494.659 339.384 494.898 341.444 494.57 343.502C494.27 345.619 493.591 347.48 492.534 349.083C491.445 350.775 490.166 351.955 488.697 352.623C487.271 353.307 485.918 353.646 484.636 353.64C483.398 353.649 482.494 353.553 481.922 353.352L481.505 354.538C483.6 356.165 485.027 358.075 485.787 360.268C486.547 362.462 486.762 364.588 486.434 366.646C486.134 368.763 485.456 370.623 484.398 372.227C483.039 374.268 481.298 375.779 479.175 376.761C477.08 377.802 474.943 378.335 472.762 378.358Z" fill="#A3A3A3"/>
<path d="M451.841 414.244C452.808 412.931 453.356 411.598 453.485 410.246C453.613 408.893 453.44 407.637 452.965 406.476C452.527 405.343 451.927 404.351 451.165 403.5L441.323 416.737C442.323 417.185 443.448 417.464 444.698 417.575C445.947 417.685 447.199 417.479 448.453 416.956C449.744 416.461 450.873 415.556 451.841 414.244ZM446.943 400.041C445.885 399.435 444.703 398.997 443.396 398.729C442.062 398.498 440.66 398.593 439.191 399.016C437.732 399.503 436.436 400.516 435.303 402.054C434.142 403.629 433.572 405.149 433.593 406.612C433.587 408.112 433.948 409.507 434.676 410.796L429.286 418.11C427.29 415.713 425.989 412.728 425.382 409.155C424.812 405.609 426.075 401.736 429.172 397.535C431.494 394.384 434.122 392.27 437.058 391.192C440.004 390.179 442.923 389.987 445.817 390.615C448.748 391.27 451.414 392.483 453.814 394.251C456.214 396.02 458.142 398.194 459.598 400.773C461.092 403.379 461.773 406.224 461.64 409.31C461.517 412.461 460.294 415.612 457.972 418.763C455.622 421.951 452.928 424.075 449.89 425.135C446.824 426.233 443.708 426.338 440.542 425.452C437.386 424.63 434.447 423.043 431.725 420.69L446.943 400.041Z" fill="#A3A3A3"/>
<path d="M408.372 432.098C410.159 432.852 411.705 433.926 413.008 435.322L422.786 445.792L427.282 441.594L433.053 447.774L428.557 451.971L438.669 462.798L431.823 469.19L421.712 458.363L413.947 465.613L408.175 459.434L415.94 452.183L406.258 441.816C405.686 441.203 404.989 440.866 404.166 440.805C403.376 440.778 402.692 441.035 402.113 441.576L396.442 446.87L390.671 440.691L397.057 434.728C398.896 433.011 400.811 431.956 402.802 431.562C404.76 431.201 406.616 431.379 408.372 432.098Z" fill="#A3A3A3"/>
<path d="M371.073 484.767C369.282 483.419 367.864 481.918 366.818 480.264L356.395 463.787L364.311 458.782L374.473 474.846C375.693 476.775 377.239 478.085 379.11 478.777C380.941 479.493 382.938 479.25 385.1 478.048C386.764 477.106 387.929 475.984 388.594 474.682C389.284 473.419 389.548 472.094 389.388 470.708C389.188 469.346 388.724 467.958 387.995 466.545C387.287 465.339 386.572 464.165 385.85 463.023C385.142 461.817 384.365 460.545 383.518 459.206L377.84 450.229L385.756 445.225L411.907 486.565L403.991 491.569L395.996 478.931C394.95 477.278 394.082 474.685 393.391 471.153L392.328 471.825C393.082 474.325 393.136 476.633 392.49 478.75C391.845 480.867 390.735 482.643 389.162 484.078C387.614 485.553 385.908 486.604 384.044 487.231C381.672 488.014 379.349 488.133 377.074 487.587C374.824 487.08 372.823 486.14 371.073 484.767Z" fill="#A3A3A3"/>
<path d="M344.596 505.36C343.865 505.058 343.348 504.542 343.044 503.81L331.053 474.966L339.702 471.374L348.93 493.572C349.109 494.002 349.403 494.284 349.811 494.417C350.195 494.611 350.601 494.618 351.032 494.44L353.936 493.233L357.182 501.042L346.79 505.357C346.058 505.661 345.327 505.662 344.596 505.36ZM355.365 511.784C354.165 511.324 352.962 511.344 351.758 511.845C350.639 512.309 349.84 513.12 349.363 514.277C348.86 515.495 348.841 516.663 349.306 517.781C349.789 518.943 350.63 519.754 351.831 520.214C352.988 520.691 354.126 520.698 355.245 520.233C356.45 519.733 357.313 518.896 357.833 517.721C358.354 516.546 358.373 515.378 357.89 514.216C357.407 513.055 356.566 512.244 355.365 511.784Z" fill="#A3A3A3"/>
<path d="M294.06 511.814C292.82 509.946 291.981 508.059 291.545 506.152L287.193 487.146L296.322 485.059L300.565 503.588C301.075 505.814 302.097 507.564 303.631 508.838C305.12 510.122 307.084 510.558 309.523 510.144C311.406 509.809 312.877 509.138 313.937 508.131C315.008 507.17 315.698 506.009 316.007 504.647C316.272 503.297 316.295 501.834 316.078 500.258C315.534 497.467 314.94 494.664 314.295 491.848L311.924 481.494L321.054 479.407L328.666 512.651L319.537 514.737L319.318 513.783C319.1 512.83 319.027 511.676 319.099 510.321C319.171 508.966 319.35 507.659 319.635 506.399L318.408 506.679C318.289 509.287 317.572 511.482 316.26 513.264C314.947 515.045 313.31 516.351 311.349 517.182C309.399 518.058 307.441 518.481 305.474 518.453C302.977 518.402 300.747 517.741 298.783 516.469C296.829 515.243 295.255 513.691 294.06 511.814Z" fill="#A3A3A3"/>
<path d="M254.34 493.15C257.508 493.208 260.338 493.889 262.831 495.193C265.323 496.544 267.246 498.42 268.601 500.821C269.956 503.223 270.606 505.938 270.552 508.966C270.496 512.087 269.795 514.8 268.448 517.105C267.101 519.457 265.252 521.264 262.899 522.525C260.5 523.786 257.786 524.388 254.759 524.333C252.523 524.292 250.505 523.788 248.705 522.823C246.904 521.905 245.481 520.69 244.437 519.18C243.391 517.716 242.767 516.167 242.563 514.532C242.431 514.11 242.205 513.733 241.884 513.401C241.518 513.068 240.989 512.639 240.3 512.114C239.382 511.351 238.718 510.71 238.308 510.19C237.851 509.669 237.629 509.059 237.641 508.36C237.697 505.286 238.444 502.573 239.885 500.223C241.277 497.919 243.243 496.137 245.782 494.879C248.273 493.667 251.126 493.09 254.34 493.15ZM254.202 500.836C252.525 500.805 251.029 501.104 249.713 501.732C248.349 502.406 247.285 503.318 246.518 504.469C245.752 505.62 245.355 506.964 245.328 508.502C245.3 510.039 245.648 511.42 246.371 512.645C247.095 513.87 248.126 514.821 249.465 515.498C250.757 516.221 252.242 516.597 253.919 516.628C255.642 516.66 257.186 516.339 258.549 515.665C259.865 515.037 260.907 514.124 261.674 512.926C262.441 511.729 262.838 510.362 262.866 508.824C262.893 507.287 262.545 505.929 261.821 504.751C261.096 503.573 260.088 502.622 258.796 501.899C257.457 501.222 255.926 500.868 254.202 500.836ZM253.952 475.877C251.949 475.84 250.152 475.97 248.563 476.267C246.927 476.563 245.661 477.006 244.765 477.595C243.823 478.137 243.345 478.804 243.331 479.596C243.316 480.388 243.77 481.095 244.691 481.718C245.612 482.294 246.885 482.76 248.51 483.116C250.088 483.472 251.855 483.667 253.811 483.703C255.861 483.741 257.704 483.612 259.34 483.316C260.93 483.019 262.172 482.599 263.067 482.056C263.963 481.467 264.418 480.776 264.432 479.984C264.447 479.193 264.016 478.509 263.141 477.934C262.267 477.312 261.041 476.823 259.463 476.468C257.839 476.112 256.001 475.915 253.952 475.877ZM265.976 487.422C267.56 487.451 268.787 487.87 269.658 488.678C270.483 489.439 270.884 490.495 270.859 491.846C270.837 493.104 270.4 494.074 269.549 494.758C268.651 495.487 267.409 495.837 265.826 495.807L265.336 495.798L265.313 497.126L254.315 494.547L254.41 493.151L261.887 493.289C262.492 493.3 262.984 493.192 263.36 492.966C263.69 492.786 263.859 492.463 263.867 491.997C263.875 491.531 263.719 491.179 263.397 490.94C263.027 490.746 262.54 490.644 261.934 490.633L253.689 490.481C250.056 490.415 246.804 489.889 243.932 488.904C241.061 487.919 238.825 486.596 237.224 484.936C235.576 483.275 234.77 481.442 234.806 479.439C234.842 477.436 235.713 475.635 237.42 474.035C239.079 472.435 241.361 471.195 244.266 470.317C247.171 469.438 250.417 469.032 254.004 469.098C257.684 469.166 260.984 469.622 263.904 470.468C266.778 471.313 269.017 472.473 270.622 473.947C272.226 475.421 273.013 477.043 272.981 478.814C272.952 480.398 272.439 481.739 271.441 482.84C270.443 483.893 269.264 484.687 267.903 485.221C266.496 485.708 265.093 486.008 263.693 486.122L263.553 486.119L263.531 487.377L265.976 487.422ZM241.305 514.509C242.059 516.666 242.42 518.63 242.388 520.4C242.374 521.192 242.082 521.863 241.513 522.411C240.944 522.96 240.263 523.227 239.471 523.213L231.785 523.071L231.937 514.616L235.99 514.691C236.409 514.698 236.785 514.542 237.117 514.222C237.401 513.948 237.547 513.601 237.555 513.182L237.641 508.36L243.629 509.659L242.563 514.532L241.305 514.509Z" fill="#A3A3A3"/>
<path d="M163.88 489.077C164.312 488.996 165.069 489.041 166.152 489.213C167.218 489.428 168.583 489.71 170.247 490.058C171.617 490.392 173.06 490.73 174.577 491.071C175.86 491.371 177.153 491.324 178.456 490.932C179.715 490.523 180.573 489.732 181.03 488.559C181.452 487.474 181.417 486.41 180.923 485.367C180.368 484.351 179.548 483.506 178.46 482.832C177.252 482.212 176.189 481.797 175.27 481.589C174.351 481.381 173.195 481.331 171.804 481.439C170.395 481.59 169.136 481.999 168.026 482.667C166.899 483.378 166.076 484.207 165.557 485.155C165.2 485.816 164.877 486.516 164.59 487.254L163.88 489.077ZM157.263 467.746L163.513 470.182C164.902 470.723 165.792 471.52 166.182 472.572C166.572 473.624 166.514 474.801 166.007 476.104C165.652 477.016 165.205 477.842 164.667 478.582C164.112 479.366 163.542 479.994 162.958 480.467L164.13 480.924C165.132 479.764 166.372 478.697 167.851 477.723C169.27 476.776 170.769 476.135 172.349 475.8C174.525 475.348 176.666 475.307 178.771 475.678C180.877 476.048 182.921 476.769 184.903 477.842C186.311 478.591 187.536 479.618 188.577 480.924C189.575 482.213 190.224 483.691 190.525 485.359C190.782 487.009 190.581 488.681 189.922 490.374C188.907 492.979 187.427 494.728 185.48 495.619C183.489 496.494 181.264 496.752 178.804 496.393C177.617 496.231 176.413 495.987 175.19 495.66C173.95 495.377 172.784 495.098 171.692 494.822C170.122 494.36 168.782 494.013 167.673 493.781L166.775 493.581C165.242 493.284 164.103 493.19 163.36 493.301C162.6 493.455 162.165 494.06 162.053 495.117C161.956 495.879 162.14 496.626 162.606 497.357C163.01 498.115 163.618 498.802 164.428 499.418C165.221 500.077 166.204 500.635 167.376 501.091C168.938 501.7 170.355 501.977 171.627 501.923C172.898 501.868 173.968 501.56 174.836 500.998C175.645 500.463 176.218 499.761 176.556 498.893L185.02 502.191C184.226 504.232 182.909 505.944 181.07 507.328C179.171 508.739 176.822 509.573 174.021 509.832C171.177 510.074 167.997 509.51 164.481 508.14C161.009 506.786 158.329 505.067 156.441 502.981C154.51 500.879 153.344 498.674 152.942 496.367C152.541 494.06 152.754 491.843 153.582 489.715L157.818 478.839C157.987 478.405 157.978 477.976 157.793 477.554C157.591 477.175 157.272 476.901 156.838 476.732L154.169 475.692L157.263 467.746Z" fill="#A3A3A3"/>
<path d="M105.668 443.238C104.572 444.22 103.347 445.22 101.99 446.239L84.271 459.207L76.4743 453.297L105.207 432.276L116.122 440.55L108.316 461.031C107.591 462.528 106.922 463.95 106.309 465.298L107.312 466.058C108.389 464.945 109.578 463.917 110.878 462.973L128.597 450.005L139.401 458.193L126.986 491.582L119.189 485.672L126.786 465.12C127.4 463.539 128.027 462.056 128.668 460.67L127.721 459.953C126.524 460.916 125.265 461.921 123.946 462.967L106.325 475.922L96.9686 468.831L104.775 448.349C105.389 446.768 106.02 445.317 106.67 443.997L105.668 443.238Z" fill="#A3A3A3"/>
<path d="M60.1193 421.811C61.0954 423.117 62.2121 424.027 63.4693 424.542C64.7265 425.057 65.9796 425.254 67.2286 425.135C68.4403 425.044 69.5638 424.757 70.5991 424.275L60.7818 411.023C60.0627 411.851 59.4691 412.847 59.0011 414.011C58.533 415.175 58.3676 416.432 58.505 417.783C58.605 419.162 59.1431 420.505 60.1193 421.811ZM75.1338 421.235C76.0207 420.398 76.782 419.393 77.4179 418.221C78.0258 417.01 78.3405 415.641 78.3619 414.113C78.3181 412.576 77.7244 411.042 76.5809 409.512C75.4095 407.945 74.1205 406.96 72.714 406.557C71.2796 406.117 69.8399 406.058 68.3948 406.382L62.9561 399.105C65.8287 397.89 69.0632 397.509 72.6597 397.962C76.2188 398.443 79.5602 400.773 82.684 404.953C85.0268 408.087 86.2886 411.215 86.4693 414.337C86.5849 417.449 85.9227 420.299 84.4828 422.886C83.0056 425.502 81.0725 427.702 78.6836 429.487C76.2946 431.272 73.655 432.488 70.7648 433.135C67.8373 433.811 64.916 433.638 62.0009 432.617C59.0205 431.587 56.359 429.505 54.0161 426.371C51.6454 423.199 50.3931 420.006 50.2591 416.791C50.0973 413.539 50.8995 410.526 52.6659 407.753C54.367 404.97 56.7384 402.617 59.78 400.693L75.1338 421.235Z" fill="#A3A3A3"/>
<path d="M35.5397 358.674C36.2611 356.728 37.8799 355.202 40.3962 354.095C42.2728 353.269 44.2681 353.003 46.382 353.294C48.4533 353.605 50.4795 354.622 52.4606 356.346C54.4229 358.028 56.0893 360.425 57.4598 363.537C58.8491 366.693 59.5013 369.561 59.4165 372.143C59.3316 374.726 58.7135 376.906 57.5621 378.685C56.3681 380.483 54.8329 381.794 52.9563 382.62L49.5206 374.817C50.7574 374.273 51.473 373.296 51.6672 371.888C51.8001 370.455 51.4065 368.694 50.4866 366.605C50.036 365.582 49.495 364.7 48.8636 363.96C48.2135 363.177 47.5105 362.621 46.7546 362.292C45.9561 361.981 45.1516 362.004 44.3413 362.361C43.531 362.717 43.0226 363.297 42.8163 364.1C42.61 364.904 42.6281 365.812 42.8705 366.825C43.113 367.838 43.5056 369.192 44.0484 370.888C44.919 373.558 45.5378 375.831 45.9049 377.705C46.2294 379.599 46.0454 381.435 45.3531 383.216C44.6419 384.954 43.1348 386.329 40.8317 387.343C39.0404 388.131 37.1825 388.362 35.2579 388.038C33.2719 387.691 31.3592 386.7 29.5198 385.066C27.6615 383.389 26.0659 381.037 24.733 378.01C23.4188 375.025 22.7802 372.303 22.8173 369.844C22.8545 367.385 23.4154 365.306 24.5002 363.607C25.5424 361.927 26.9591 360.693 28.7504 359.905L29.2622 359.68L32.6979 367.483L32.1861 367.708C31.2052 368.139 30.6935 369.001 30.651 370.292C30.566 371.602 30.9083 373.131 31.678 374.879C32.3351 376.371 33.1756 377.528 34.1994 378.35C35.1618 379.148 36.0908 379.351 36.9864 378.957C37.5835 378.694 37.9494 378.253 38.0841 377.634C38.1574 376.991 38.0822 376.184 37.8585 375.214C37.5734 374.219 37.232 373.097 36.8343 371.847C35.95 369.029 35.3482 366.622 35.0289 364.625C34.6481 362.604 34.8183 360.62 35.5397 358.674Z" fill="#A3A3A3"/>
<path d="M35.3263 318.69C34.9382 316.629 34.0924 315.034 32.7891 313.904C31.4772 312.729 29.9409 311.998 28.1803 311.713C26.4197 311.428 24.6465 311.453 22.8607 311.788C21.0749 312.124 19.4138 312.744 17.8775 313.649C16.3412 314.554 15.1758 315.793 14.3814 317.364C13.5784 318.89 13.3709 320.683 13.7591 322.743C14.1472 324.803 14.9973 326.421 16.3092 327.597C17.6125 328.727 19.1488 329.457 20.918 329.788C22.6786 330.074 24.4518 330.049 26.2376 329.713C28.0234 329.377 29.6845 328.757 31.2208 327.852C32.7485 326.901 33.9139 325.663 34.7169 324.137C35.5113 322.566 35.7144 320.75 35.3263 318.69ZM6.95922 324.021C6.23468 320.175 6.50522 316.83 7.77085 313.984C8.98207 311.102 10.8307 308.835 13.3167 307.182C15.7569 305.538 18.4422 304.441 21.3728 303.89C24.3034 303.34 27.2273 303.383 30.1446 304.02C33.0161 304.665 35.5633 306.106 37.7864 308.343C39.955 310.543 41.4016 313.566 42.1262 317.412C42.8593 321.303 42.616 324.668 41.3962 327.504C40.1305 330.349 38.2819 332.617 35.8503 334.306C33.3643 335.959 30.6561 337.06 27.7255 337.611C24.7949 338.162 21.8939 338.114 19.0224 337.469C16.0965 336.786 13.5492 335.345 11.3806 333.145C9.16617 330.954 7.69238 327.913 6.95922 324.021Z" fill="#A3A3A3"/>
<path d="M15.4997 219.167C17.6251 218.61 19.6369 218.438 21.5351 218.653L41.1181 220.861L40.0723 230.168L20.9059 228.006C18.8226 227.771 16.9494 228.169 15.2863 229.201C13.5822 230.181 12.5254 231.867 12.1159 234.259C11.7533 236.234 11.8979 237.868 12.5496 239.161C13.1551 240.448 14.049 241.463 15.2313 242.206C16.4136 242.949 17.7635 243.453 19.2808 243.718C21.9093 244.108 24.5892 244.457 27.3207 244.765L38.2927 246.003L37.3405 254.476L18.1741 252.314C16.0908 252.079 14.2177 252.478 12.5546 253.509C10.8968 254.494 9.86051 256.206 9.44585 258.645C9.08843 260.574 9.23299 262.207 9.87953 263.546C10.485 264.834 11.3789 265.849 12.5612 266.592C13.7487 267.288 15.0754 267.79 16.5413 268.096L16.8885 268.135C18.5037 268.364 19.7716 268.554 20.6923 268.705C21.5719 268.804 22.8682 268.95 24.5811 269.143L35.5532 270.381L34.5074 279.687L0.618913 275.865L1.66477 266.558L2.63699 266.668C3.65549 266.783 4.79206 267.099 6.04672 267.615C7.25507 268.127 8.40673 268.726 9.50169 269.412L9.64218 268.162C7.22546 267.139 5.39318 265.713 4.14533 263.884C2.89748 262.056 2.20285 260.102 2.06143 258.023C1.87892 255.892 2.12321 253.927 2.79429 252.127C3.47579 250.235 4.45767 248.798 5.73994 247.817C6.97591 246.831 8.21916 246.198 9.46968 245.917C10.6739 245.631 11.5769 245.522 12.1788 245.59L12.3193 244.339C9.91296 243.224 8.09368 241.683 6.86144 239.715C5.6292 237.747 4.94237 235.724 4.80095 233.645C4.61844 231.514 4.86274 229.549 5.53382 227.749C6.40103 225.456 7.75902 223.593 9.60778 222.16C11.4154 220.676 13.3794 219.678 15.4997 219.167Z" fill="#A3A3A3"/>
<path d="M27.8102 179.49C27.1612 180.986 26.9255 182.407 27.103 183.754C27.2805 185.101 27.7309 186.287 28.4543 187.312C29.1349 188.319 29.9417 189.152 30.8746 189.81L37.5023 174.706C36.4266 174.493 35.2676 174.472 34.0251 174.644C32.7826 174.816 31.6091 175.297 30.5045 176.088C29.3572 176.86 28.4591 177.994 27.8102 179.49ZM35.7634 192.237C36.9302 192.591 38.1803 192.753 39.514 192.722C40.8661 192.649 42.2106 192.242 43.5474 191.501C44.86 190.699 45.8963 189.422 46.6565 187.67C47.4353 185.874 47.6504 184.266 47.302 182.845C46.9721 181.381 46.308 180.102 45.3097 179.009L48.9252 170.673C51.4063 172.562 53.3429 175.181 54.7349 178.528C56.0841 181.856 55.7204 185.914 53.6438 190.702C52.0863 194.293 49.9979 196.942 47.3783 198.65C44.7346 200.296 41.9324 201.137 38.9717 201.172C35.9682 201.19 33.0989 200.605 30.3639 199.417C27.6288 198.23 25.2629 196.543 23.2664 194.356C21.227 192.15 19.9266 189.529 19.3652 186.491C18.7795 183.393 19.2654 180.048 20.8229 176.457C22.3989 172.824 24.5487 170.15 27.2722 168.437C30.0143 166.681 33.0273 165.881 36.3114 166.036C39.5713 166.131 42.7909 167.02 45.9703 168.705L35.7634 192.237Z" fill="#A3A3A3"/>
<path d="M34.08 122.919L63.3541 143.385L59.0988 149.788L28.8962 130.72L34.08 122.919ZM72.9626 154.303C72.1115 155.584 70.9626 156.387 69.5159 156.712C68.0692 157.038 66.7445 156.8 65.5418 156.001C64.339 155.202 63.6075 154.072 63.3471 152.612C63.0867 151.152 63.3821 149.782 64.2332 148.501C64.7232 147.764 65.4008 147.207 66.266 146.831C67.1182 146.39 68.003 146.195 68.9205 146.245C69.8637 146.257 70.7233 146.521 71.4993 147.036C72.702 147.836 73.4335 148.966 73.6939 150.425C73.9801 151.847 73.7363 153.139 72.9626 154.303Z" fill="#A3A3A3"/>
</svg>
