<svg width="92" height="17" viewBox="0 0 92 17" fill="none" xmlns="http://www.w3.org/2000/svg">
<path d="M4.84 4.232C5.40533 4.232 5.87467 4.392 6.248 4.712C6.632 5.032 6.87733 5.49067 6.984 6.088L7.064 6.792V13H4.536V7.224C4.536 6.776 4.46133 6.47733 4.312 6.328C4.17333 6.168 4.008 6.088 3.816 6.088C3.54933 6.088 3.30933 6.184 3.096 6.376C2.89333 6.568 2.70133 6.84 2.52 7.192L2.184 5.768C2.52533 5.26667 2.90933 4.888 3.336 4.632C3.76267 4.36533 4.264 4.232 4.84 4.232ZM-0.00799996 4.504H2.2L2.52 6.264V13H-0.00799996V4.504ZM9.384 4.232C10.0453 4.232 10.5787 4.456 10.984 4.904C11.4 5.352 11.608 5.98133 11.608 6.792V13H9.08V7.224C9.08 6.776 9.00533 6.47733 8.856 6.328C8.71733 6.168 8.552 6.088 8.36 6.088C8.09333 6.088 7.85333 6.184 7.64 6.376C7.43733 6.568 7.24533 6.84 7.064 7.192L6.712 5.752C7.064 5.25067 7.45333 4.872 7.88 4.616C8.30667 4.36 8.808 4.232 9.384 4.232ZM19.2196 4.168C19.8916 4.168 20.3983 4.39733 20.7396 4.856C21.0916 5.304 21.209 5.93867 21.0916 6.76L20.2116 13H17.3636L18.1476 7.48C18.201 7.096 18.1903 6.84533 18.1156 6.728C18.041 6.6 17.9343 6.536 17.7956 6.536C17.625 6.536 17.4543 6.616 17.2836 6.776C17.113 6.92533 16.937 7.144 16.7556 7.432C16.5743 7.70933 16.3876 8.05067 16.1956 8.456L15.5396 13H12.6916L14.3556 1.112L17.2356 0.808L16.5476 5.848C16.8356 5.34667 17.2196 4.94133 17.6996 4.632C18.1796 4.32267 18.6863 4.168 19.2196 4.168ZM25.564 4.232C25.8733 4.232 26.1613 4.27467 26.428 4.36C26.6947 4.43467 26.9347 4.54667 27.148 4.696C27.372 4.84533 27.5693 5.016 27.74 5.208L27.756 7.016C27.6067 6.81333 27.4573 6.64267 27.308 6.504C27.1693 6.36533 27.0093 6.25867 26.828 6.184C26.6573 6.10933 26.4653 6.072 26.252 6.072C25.9533 6.072 25.6867 6.16267 25.452 6.344C25.228 6.51467 25.0467 6.79733 24.908 7.192C24.78 7.58667 24.716 8.104 24.716 8.744C24.716 9.448 24.7747 9.992 24.892 10.376C25.0093 10.76 25.1693 11.032 25.372 11.192C25.5853 11.3413 25.8307 11.416 26.108 11.416C26.4493 11.416 26.748 11.3147 27.004 11.112C27.2707 10.9093 27.5107 10.6107 27.724 10.216L27.868 11.816C27.6333 12.2 27.308 12.5413 26.892 12.84C26.476 13.128 25.9533 13.272 25.324 13.272C24.5987 13.272 23.996 13.0853 23.516 12.712C23.0467 12.328 22.6893 11.8 22.444 11.128C22.2093 10.4453 22.092 9.64533 22.092 8.728C22.092 7.85333 22.236 7.08 22.524 6.408C22.812 5.72533 23.2173 5.192 23.74 4.808C24.2627 4.424 24.8707 4.232 25.564 4.232ZM27.58 10.696V0.855999L30.108 1.128V13H27.868L27.708 11.784L27.58 10.696ZM34.2298 1.912H37.4138L40.7578 13H37.9738L35.7818 3.816L33.6058 13H30.8857L34.2298 1.912ZM34.3578 8.712H37.2218L37.6378 10.616H33.9258L34.3578 8.712ZM44.5153 4.232C45.1339 4.232 45.7099 4.32267 46.2433 4.504C46.7766 4.68533 47.2406 4.94133 47.6353 5.272L46.7073 6.696C46.3766 6.48267 46.0353 6.32267 45.6833 6.216C45.3313 6.09867 44.9739 6.04 44.6113 6.04C44.3873 6.04 44.1953 6.06667 44.0353 6.12C43.8859 6.17333 43.7739 6.248 43.6993 6.344C43.6246 6.44 43.5873 6.552 43.5873 6.68C43.5873 6.82933 43.6246 6.95733 43.6993 7.064C43.7739 7.17067 43.9393 7.27733 44.1953 7.384C44.4513 7.49067 44.8299 7.61867 45.3313 7.768C45.8966 7.928 46.3713 8.12 46.7553 8.344C47.1499 8.568 47.4486 8.85067 47.6513 9.192C47.8539 9.53333 47.9553 9.96 47.9553 10.472C47.9553 11.0587 47.7846 11.5653 47.4433 11.992C47.1126 12.408 46.6593 12.728 46.0833 12.952C45.5179 13.1653 44.8833 13.272 44.1793 13.272C43.4433 13.272 42.7713 13.16 42.1633 12.936C41.5553 12.7013 41.0433 12.392 40.6273 12.008L41.8593 10.632C42.1793 10.8773 42.5313 11.08 42.9153 11.24C43.2993 11.3893 43.6993 11.464 44.1153 11.464C44.4993 11.464 44.7979 11.3947 45.0113 11.256C45.2353 11.1173 45.3473 10.92 45.3473 10.664C45.3473 10.472 45.3046 10.3173 45.2193 10.2C45.1339 10.072 44.9633 9.95467 44.7073 9.848C44.4513 9.74133 44.0673 9.61867 43.5553 9.48C42.7126 9.23467 42.0833 8.89333 41.6673 8.456C41.2513 8.01867 41.0433 7.47467 41.0433 6.824C41.0433 6.33333 41.1819 5.89067 41.4593 5.496C41.7473 5.10133 42.1473 4.792 42.6593 4.568C43.1819 4.344 43.8006 4.232 44.5153 4.232ZM54.8256 4.216C55.519 4.216 56.0363 4.44533 56.3776 4.904C56.7296 5.36267 56.847 6.00267 56.7296 6.824L55.8656 13H53.3376L54.1216 7.4C54.1856 6.96267 54.1696 6.67467 54.0736 6.536C53.9776 6.39733 53.839 6.328 53.6576 6.328C53.4443 6.328 53.231 6.41333 53.0176 6.584C52.815 6.744 52.6123 6.97867 52.4096 7.288C52.207 7.58667 52.0043 7.93867 51.8016 8.344L51.1456 13H48.6176L50.2816 1.128L52.8416 0.872L52.1216 5.912C52.431 5.41067 52.8203 5.00533 53.2896 4.696C53.7696 4.376 54.2816 4.216 54.8256 4.216ZM62.9438 4.264C63.1038 4.264 63.2478 4.27467 63.3758 4.296C63.5144 4.30667 63.6531 4.33333 63.7918 4.376L63.3918 6.824C63.2531 6.792 63.1251 6.76533 63.0078 6.744C62.8904 6.72267 62.7624 6.712 62.6238 6.712C62.2504 6.712 61.9464 6.808 61.7118 7C61.4771 7.192 61.2904 7.46933 61.1518 7.832C61.0131 8.184 60.8958 8.61067 60.7998 9.112L60.6878 6.392C60.8584 5.73067 61.1464 5.21333 61.5518 4.84C61.9571 4.456 62.4211 4.264 62.9438 4.264ZM58.3358 4.504H60.5438L60.7838 6.344L60.8638 8.52V13H58.3358V4.504ZM67.6771 4.232C68.9145 4.232 69.8105 4.488 70.3651 5C70.9198 5.50133 71.1971 6.248 71.1971 7.24V10.536C71.1971 10.856 71.2398 11.0907 71.3251 11.24C71.4211 11.3893 71.5705 11.5013 71.7731 11.576L71.2451 13.224C70.7011 13.1813 70.2531 13.0533 69.9011 12.84C69.5598 12.6267 69.2931 12.2693 69.1011 11.768L68.7171 10.888V7.384C68.7171 6.88267 68.6051 6.54133 68.3811 6.36C68.1571 6.168 67.7891 6.072 67.2771 6.072C67.0105 6.072 66.6798 6.10933 66.2851 6.184C65.8905 6.25867 65.4798 6.37067 65.0531 6.52L64.4771 4.856C65.0105 4.65333 65.5545 4.49867 66.1091 4.392C66.6745 4.28533 67.1971 4.232 67.6771 4.232ZM67.8531 7.752H69.0691V9.144H68.0931C67.5171 9.144 67.0851 9.24533 66.7971 9.448C66.5198 9.65067 66.3811 9.96533 66.3811 10.392C66.3811 10.7227 66.4665 10.984 66.6371 11.176C66.8185 11.368 67.0638 11.464 67.3731 11.464C67.7145 11.464 68.0078 11.3733 68.2531 11.192C68.4985 11 68.6905 10.744 68.8291 10.424L69.3411 11.752C69.0531 12.3067 68.6638 12.7013 68.1731 12.936C67.6931 13.16 67.1811 13.272 66.6371 13.272C65.7945 13.272 65.1225 13.0267 64.6211 12.536C64.1198 12.0347 63.8691 11.3947 63.8691 10.616C63.8691 9.688 64.2105 8.97867 64.8931 8.488C65.5865 7.99733 66.5731 7.752 67.8531 7.752ZM77.7068 0.855999C78.2081 0.855999 78.6561 0.925332 79.0508 1.064C79.4561 1.20267 79.7974 1.368 80.0748 1.56L79.1948 3.096C78.9814 2.95733 78.7574 2.86667 78.5228 2.824C78.2988 2.77067 78.0961 2.744 77.9148 2.744C77.5521 2.744 77.2694 2.83467 77.0668 3.016C76.8748 3.19733 76.7521 3.49067 76.6988 3.896L75.5468 12.04C75.4188 12.968 75.1681 13.72 74.7948 14.296C74.4214 14.872 73.9574 15.3307 73.4028 15.672C72.8588 16.0133 72.2401 16.3067 71.5467 16.552L70.9227 14.696C71.3281 14.5467 71.6747 14.3707 71.9627 14.168C72.2401 13.976 72.4641 13.7147 72.6348 13.384C72.8161 13.064 72.9388 12.6533 73.0028 12.152L74.1868 3.736C74.2614 3.192 74.4428 2.70133 74.7308 2.264C75.0188 1.82667 75.4134 1.48533 75.9148 1.24C76.4161 0.983999 77.0134 0.855999 77.7068 0.855999ZM72.8268 4.488H78.5868L78.0588 6.28H72.5708L72.8268 4.488ZM83.3976 4.504H85.9256V13H83.7336L83.6216 11.928C83.3123 12.376 82.9443 12.712 82.5176 12.936C82.1016 13.16 81.611 13.272 81.0456 13.272C80.2563 13.272 79.6643 13.032 79.2696 12.552C78.875 12.072 78.6776 11.4213 78.6776 10.6V4.504H81.2056V10.28C81.2056 10.7067 81.275 11 81.4136 11.16C81.5523 11.32 81.755 11.4 82.0216 11.4C82.2883 11.4 82.539 11.3147 82.7736 11.144C83.0083 10.9733 83.2163 10.728 83.3976 10.408V4.504ZM90.1699 13.272C89.4339 13.272 88.8579 13.064 88.4419 12.648C88.0365 12.2213 87.8339 11.6187 87.8339 10.84V1.128L90.3619 0.855999V10.744C90.3619 10.9147 90.3939 11.048 90.4579 11.144C90.5325 11.2293 90.6445 11.272 90.7939 11.272C90.8899 11.272 90.9699 11.2667 91.0339 11.256C91.0979 11.2347 91.1565 11.2133 91.2099 11.192L91.7059 12.984C91.5245 13.0587 91.3005 13.1227 91.0339 13.176C90.7672 13.24 90.4792 13.272 90.1699 13.272Z" fill="black"/>
</svg>
