<svg width="400" height="866" viewBox="0 0 400 866" fill="none" xmlns="http://www.w3.org/2000/svg">
<g id="mobileInterface">
<rect x="2" y="2" width="396" height="862" rx="48" fill="#FAFAD2"/>
<rect x="2" y="2" width="396" height="862" rx="48" stroke="#0F0F0F" stroke-width="4"/>
<rect id="Rectangle 11" x="121" y="10" width="160" height="34" rx="17" fill="black"/>
<path id="Vector" d="M375 25.8334V28.1666M362.428 23.5H372.072C372.861 23.5 373.5 24.1394 373.5 24.9281V29.0719C373.5 29.8606 372.861 30.5 372.072 30.5H362.428C361.639 30.5 361 29.8606 361 29.0719V24.9281C361 24.1394 361.639 23.5 362.428 23.5ZM371.697 25.2166H362.803C362.734 25.2166 362.678 25.2725 362.678 25.3416V28.6584C362.678 28.7275 362.734 28.7834 362.803 28.7834H371.697C371.767 28.7834 371.822 28.7275 371.822 28.6584V25.3416C371.822 25.2725 371.767 25.2166 371.697 25.2166Z" stroke="black" stroke-miterlimit="10" stroke-linecap="round"/>
<path id="Vector_2" d="M345.762 26.6703C346.733 25.6359 348.049 25 349.501 25C350.952 25 352.269 25.6359 353.239 26.6703C353.419 26.8609 353.703 26.8547 353.875 26.6562C354.047 26.4578 354.041 26.1406 353.862 25.95C352.731 24.7422 351.194 24 349.501 24C347.807 24 346.27 24.7422 345.138 25.9484C344.959 26.1406 344.953 26.4562 345.125 26.6562C345.297 26.8563 345.582 26.8625 345.761 26.6703H345.762ZM349.501 27.5C350.3 27.5 351.028 27.8297 351.585 28.375C351.772 28.5578 352.056 28.5375 352.221 28.3313C352.385 28.125 352.367 27.8078 352.181 27.625C351.467 26.925 350.527 26.5 349.501 26.5C348.474 26.5 347.534 26.925 346.821 27.625C346.634 27.8078 346.617 28.1234 346.782 28.3313C346.947 28.5391 347.231 28.5578 347.418 28.375C347.973 27.8297 348.702 27.5 349.502 27.5H349.501ZM350.401 30C350.401 29.7348 350.306 29.4804 350.137 29.2929C349.968 29.1054 349.739 29 349.501 29C349.262 29 349.033 29.1054 348.864 29.2929C348.695 29.4804 348.601 29.7348 348.601 30C348.601 30.2652 348.695 30.5196 348.864 30.7071C349.033 30.8946 349.262 31 349.501 31C349.739 31 349.968 30.8946 350.137 30.7071C350.306 30.5196 350.401 30.2652 350.401 30Z" fill="black"/>
<path id="Vector_3" d="M336.434 24V31H338V24H336.434ZM333.826 26.1534V31H335.39V26.1534H333.826ZM331.213 27.7699V31H332.782V27.7699H331.213ZM328.606 28.8466V31H330.172V28.8466H328.606ZM326 29.6304V31H327.565V29.6304H326Z" fill="black"/>
<path id="9:41 am" d="M38.3616 28.972C38.3616 32.296 37.0416 33.412 34.0896 34.264L33.8376 33.436C35.8536 32.86 37.1376 31.936 37.2216 30.124C36.8736 30.664 36.2376 31.084 35.4216 31.084C34.1736 31.084 33.2016 30.1 33.2016 28.504C33.2016 26.824 34.3776 25.852 35.7696 25.852C37.4976 25.852 38.3616 27.088 38.3616 28.972ZM34.3176 28.528C34.3176 29.68 34.8696 30.22 35.6496 30.22C36.3336 30.22 36.8496 29.836 37.2456 29.224C37.2816 27.412 36.7896 26.728 35.7936 26.728C34.8576 26.728 34.3176 27.376 34.3176 28.528ZM40.8742 28.06C41.3542 28.06 41.7142 28.432 41.7142 28.888C41.7142 29.356 41.3542 29.728 40.8742 29.728C40.4062 29.728 40.0462 29.356 40.0462 28.888C40.0462 28.432 40.4062 28.06 40.8742 28.06ZM40.8742 32.476C41.3542 32.476 41.7142 32.848 41.7142 33.304C41.7142 33.772 41.3542 34.144 40.8742 34.144C40.4062 34.144 40.0462 33.772 40.0462 33.304C40.0462 32.848 40.4062 32.476 40.8742 32.476ZM43.2891 31.228L45.7011 25.852L46.6251 26.236L44.4531 31.144H46.7331L46.8291 28.984H47.7891V31.144H48.8331V32.02H47.7891V34H46.7211V32.02H43.2891V31.228ZM51.6188 25.972H52.5908V34H51.4868V27.148L49.6148 28.288L49.1348 27.508L51.6188 25.972ZM61.366 30.148H62.338V29.68C62.338 28.768 61.894 28.432 61.018 28.432C60.55 28.432 59.962 28.552 59.314 28.768L59.038 27.964C59.818 27.676 60.514 27.532 61.222 27.532C62.746 27.532 63.442 28.312 63.442 29.632V32.524C63.442 33.076 63.646 33.256 63.97 33.376L63.718 34.144C63.082 34.072 62.674 33.82 62.482 33.196C62.038 33.856 61.366 34.144 60.598 34.144C59.338 34.144 58.582 33.364 58.582 32.236C58.582 30.88 59.602 30.148 61.366 30.148ZM60.85 33.316C61.498 33.316 61.978 32.992 62.338 32.332V30.88H61.51C60.346 30.88 59.758 31.312 59.758 32.176C59.758 32.92 60.13 33.316 60.85 33.316ZM66.1894 27.676H67.1374L67.2334 28.6C67.6534 27.964 68.2294 27.532 69.0574 27.532C69.8374 27.532 70.4134 27.952 70.6534 28.672C71.1094 27.988 71.6854 27.532 72.5374 27.532C73.5694 27.532 74.2534 28.276 74.2534 29.464V34H73.1494V29.62C73.1494 28.672 72.7414 28.396 72.2614 28.396C71.5774 28.396 71.2054 28.84 70.7734 29.512V34H69.6694V29.62C69.6694 28.672 69.2614 28.396 68.7814 28.396C68.0974 28.396 67.7134 28.84 67.2934 29.512V34H66.1894V27.676Z" fill="black"/>
<path id="Line 15" d="M125 855.5H275" stroke="black" stroke-width="4" stroke-linecap="round"/>
</g>
</svg>
