<svg width="31" height="9" viewBox="0 0 31 9" fill="none" xmlns="http://www.w3.org/2000/svg">
<g id="pm">
<circle id="Ellipse 4" cx="4.5" cy="4.5" r="4" stroke="#0F0F0F"/>
<path id="pm_2" d="M17.436 5.072C17.436 4.44 17.268 3.92 16.932 3.512C16.604 3.096 16.148 2.888 15.564 2.888C15.172 2.888 14.836 2.984 14.556 3.176C14.276 3.368 14.06 3.632 13.908 3.968C13.764 4.296 13.696 4.664 13.704 5.072C13.712 5.704 13.88 6.228 14.208 6.644C14.536 7.052 14.988 7.256 15.564 7.256C15.956 7.256 16.292 7.16 16.572 6.968C16.852 6.776 17.064 6.516 17.208 6.188C17.36 5.852 17.436 5.48 17.436 5.072ZM18.42 5.072C18.42 5.608 18.324 6.108 18.132 6.572C17.948 7.036 17.66 7.416 17.268 7.712C16.884 8 16.408 8.144 15.84 8.144C15.28 8.144 14.828 8.012 14.484 7.748C14.14 7.484 13.876 7.14 13.692 6.716H13.536C13.648 7.156 13.704 7.624 13.704 8.12V11.336H12.72V2.144H13.704V2.264C13.704 2.456 13.688 2.656 13.656 2.864C13.624 3.072 13.584 3.256 13.536 3.416H13.692C13.716 3.368 13.748 3.304 13.788 3.224C13.908 2.984 14.056 2.776 14.232 2.6C14.416 2.416 14.644 2.272 14.916 2.168C15.188 2.056 15.504 2 15.864 2C16.424 2 16.896 2.148 17.28 2.444C17.664 2.732 17.948 3.108 18.132 3.572C18.324 4.036 18.42 4.536 18.42 5.072ZM29.1278 3.488C29.2638 3.824 29.3318 4.164 29.3318 4.508V8H28.3478V4.604C28.3478 4.164 28.2358 3.78 28.0118 3.452C27.7958 3.116 27.4638 2.916 27.0158 2.852C26.6238 2.788 26.2878 2.836 26.0078 2.996C25.7278 3.156 25.5038 3.384 25.3358 3.68C25.1678 3.968 25.0518 4.292 24.9878 4.652C24.9398 5.052 24.9158 5.468 24.9158 5.9V8H24.0038V4.604C24.0038 4.148 23.8998 3.76 23.6918 3.44C23.4838 3.12 23.1478 2.924 22.6838 2.852C22.2918 2.796 21.9558 2.848 21.6758 3.008C21.3958 3.16 21.1678 3.384 20.9918 3.68C20.8238 3.976 20.7078 4.3 20.6438 4.652L20.6318 4.712C20.6158 4.936 20.5998 5.128 20.5838 5.288C20.5758 5.44 20.5718 5.644 20.5718 5.9V8H19.5878V2.144H20.5718V2.588C20.5718 2.78 20.5478 2.996 20.4998 3.236C20.4598 3.468 20.4078 3.684 20.3438 3.884H20.5118C20.6398 3.42 20.8438 3.036 21.1238 2.732C21.4038 2.428 21.7278 2.22 22.0958 2.108C22.4718 1.988 22.8598 1.976 23.2598 2.072C23.6198 2.152 23.9038 2.312 24.1118 2.552C24.3198 2.784 24.4598 3.028 24.5318 3.284C24.6118 3.532 24.6438 3.732 24.6278 3.884H24.7958C24.9398 3.42 25.1558 3.036 25.4438 2.732C25.7318 2.428 26.0598 2.216 26.4278 2.096C26.8038 1.976 27.1958 1.968 27.6038 2.072C27.9718 2.16 28.2838 2.336 28.5398 2.6C28.8038 2.856 28.9998 3.152 29.1278 3.488Z" fill="black"/>
</g>
</svg>
