<svg width="160" height="116" viewBox="0 0 160 116" fill="none" xmlns="http://www.w3.org/2000/svg">
<path id="&#226;&#128;&#156;" d="M94.0216 3.38396L81.9997 17.3357L81.9536 17.3893L81.894 17.4286C79.5526 18.9533 77.4883 19.5894 75.6057 19.712C73.7289 19.8341 72.0682 19.4423 70.5488 18.9705C68.9997 18.4894 67.6689 17.9546 66.2991 17.702C64.9679 17.4566 63.6663 17.4973 62.2633 18.1724L62.2529 18.1779L62.2419 18.1821C59.3718 19.3983 56.8449 21.5683 54.5199 24.0446C52.1884 26.5278 50.1301 29.2353 48.1006 31.5923C44.6227 36.2185 42.8919 40.7806 42.8511 45.2861C45.8053 45.427 48.6381 46.0015 51.3474 47.0149C57.4288 49.2897 61.3533 53.1736 63.0408 58.6717L63.0417 58.6721C64.8914 63.7728 64.0533 69.0776 60.6238 74.5407L60.6186 74.5492C56.3199 81.1128 49.9175 85.9105 41.4474 88.9546L41.444 88.9554C33.66 91.6861 26.1787 91.7741 19.0204 89.202L19.0187 89.2065L18.6135 89.055L17.9226 88.7892C10.8575 86.0124 6.01452 81.9879 3.48082 76.6809C0.949202 71.3781 0.762944 64.8789 2.8405 57.2307L3.04882 56.487C7.56755 40.7935 18.4549 27.058 35.6402 15.2684L36.4627 14.7086C54.3163 2.35432 73.4207 -1.69989 93.7458 2.56867L94.5745 2.74206L94.0216 3.38396ZM158.481 27.4952L146.459 41.4469L146.424 41.4871L146.382 41.5192C143.597 43.6239 141.239 44.6207 139.158 44.9489C137.074 45.2777 135.314 44.9287 133.745 44.4183C132.967 44.165 132.226 43.8681 131.529 43.5989C130.825 43.3268 130.163 43.0815 129.507 42.9113C128.216 42.5758 126.973 42.538 125.587 43.2048L125.576 43.2103L125.565 43.2145C122.693 44.4316 120.451 46.373 118.417 48.6108C117.399 49.7303 116.438 50.9187 115.476 52.1253C114.519 53.3248 113.559 54.5447 112.552 55.7132C109.079 60.336 107.351 64.8951 107.311 69.3974C110.265 69.5383 113.098 70.1128 115.807 71.1262C121.888 73.401 125.813 77.2849 127.5 82.783L127.501 82.7834C129.351 87.8841 128.513 93.1889 125.083 98.652L125.078 98.6605C120.779 105.224 114.377 110.022 105.907 113.066L105.903 113.067C98.1195 115.797 90.6382 115.885 83.4799 113.313L83.4781 113.318L83.0729 113.166L82.382 112.901C75.3169 110.124 70.4739 106.099 67.9402 100.792C65.3269 95.3183 65.213 88.5697 67.5082 80.5983C72.027 64.9047 82.9143 51.1693 100.1 39.3797L100.922 38.8199C118.776 26.4656 137.88 22.4114 158.205 26.6799L159.034 26.8533L158.481 27.4952Z" stroke="#0F0F0F"/>
</svg>
